<?xml version="1.0" encoding="UTF-8" standalone="no"?>
<!DOCTYPE svg PUBLIC "-//W3C//DTD SVG 1.1//EN"
 "http://www.w3.org/Graphics/SVG/1.1/DTD/svg11.dtd">
<!-- Generated by graphviz version 2.47.0 (20210316.0004)
 -->
<!-- Title: dependencies Pages: 1 -->
<svg width="504pt" height="284pt"
 viewBox="0.00 0.00 504.00 284.00" xmlns="http://www.w3.org/2000/svg" xmlns:xlink="http://www.w3.org/1999/xlink">
<g id="graph0" class="graph" transform="scale(1 1) rotate(0) translate(4 280)">
<title>dependencies</title>
<polygon fill="white" stroke="transparent" points="-4,4 -4,-280 500,-280 500,4 -4,4"/>
<text text-anchor="start" x="227.01" y="-42.4" font-family="Times-12" font-weight="bold" font-size="14.00">Legend</text>
<polygon fill="#ffffb3" stroke="transparent" points="14,-10 14,-30 34,-30 34,-10 14,-10"/>
<text text-anchor="start" x="37.63" y="-15.4" font-family="Times-12" font-size="14.00"> &#160;Declarations</text>
<polygon fill="#8dd3c7" stroke="transparent" points="127,-10 127,-30 147,-30 147,-10 127,-10"/>
<text text-anchor="start" x="150.73" y="-15.4" font-family="Times-12" font-size="14.00"> &#160;Module</text>
<polygon fill="#80b1d3" stroke="transparent" points="213,-10 213,-30 233,-30 233,-10 213,-10"/>
<text text-anchor="start" x="236.78" y="-15.4" font-family="Times-12" font-size="14.00"> &#160;Bootstrap</text>
<polygon fill="#fdb462" stroke="transparent" points="310,-10 310,-30 330,-30 330,-10 310,-10"/>
<text text-anchor="start" x="333.67" y="-15.4" font-family="Times-12" font-size="14.00"> &#160;Providers</text>
<polygon fill="#fb8072" stroke="transparent" points="406,-10 406,-30 426,-30 426,-10 406,-10"/>
<text text-anchor="start" x="429.73" y="-15.4" font-family="Times-12" font-size="14.00"> &#160;Exports</text>
<g id="clust1" class="cluster">
<title>cluster_TeamsSettingsModule</title>
<polygon fill="none" stroke="black" stroke-dasharray="1,5" points="84,-70 84,-268 412,-268 412,-70 84,-70"/>
</g>
<g id="clust2" class="cluster">
<title>cluster_TeamsSettingsModule_declarations</title>
<polygon fill="none" stroke="black" points="224,-78 224,-130 404,-130 404,-78 224,-78"/>
</g>
<g id="clust5" class="cluster">
<title>cluster_TeamsSettingsModule_exports</title>
<polygon fill="none" stroke="black" points="156,-208 156,-260 340,-260 340,-208 156,-208"/>
</g>
<g id="clust4" class="cluster">
<title>cluster_TeamsSettingsModule_imports</title>
<polygon fill="none" stroke="black" points="92,-78 92,-130 216,-130 216,-78 92,-78"/>
</g>
<!-- TeamsSettingsComponent -->
<g id="node1" class="node">
<title>TeamsSettingsComponent</title>
<polygon fill="#ffffb3" stroke="black" points="395.76,-122 232.24,-122 232.24,-86 395.76,-86 395.76,-122"/>
<text text-anchor="middle" x="314" y="-99.8" font-family="Times,serif" font-size="14.00">TeamsSettingsComponent</text>
</g>
<!-- TeamsSettingsModule -->
<g id="node2" class="node">
<title>TeamsSettingsModule</title>
<polygon fill="#8dd3c7" stroke="black" points="318.98,-187 315.98,-191 294.98,-191 291.98,-187 177.02,-187 177.02,-151 318.98,-151 318.98,-187"/>
<text text-anchor="middle" x="248" y="-164.8" font-family="Times,serif" font-size="14.00">TeamsSettingsModule</text>
</g>
<!-- TeamsSettingsComponent&#45;&gt;TeamsSettingsModule -->
<g id="edge1" class="edge">
<title>TeamsSettingsComponent&#45;&gt;TeamsSettingsModule</title>
<path fill="none" stroke="black" d="M275.55,-122.11C275.55,-122.11 275.55,-140.99 275.55,-140.99"/>
<polygon fill="black" stroke="black" points="272.05,-140.99 275.55,-150.99 279.05,-140.99 272.05,-140.99"/>
</g>
<!-- TeamsSettingsComponent  -->
<g id="node4" class="node">
<title>TeamsSettingsComponent </title>
<polygon fill="#fb8072" stroke="black" points="331.76,-252 164.24,-252 164.24,-216 331.76,-216 331.76,-252"/>
<text text-anchor="middle" x="248" y="-229.8" font-family="Times,serif" font-size="14.00">TeamsSettingsComponent </text>
</g>
<!-- TeamsSettingsModule&#45;&gt;TeamsSettingsComponent  -->
<g id="edge3" class="edge">
<title>TeamsSettingsModule&#45;&gt;TeamsSettingsComponent </title>
<path fill="none" stroke="black" stroke-dasharray="5,2" d="M248,-187.11C248,-187.11 248,-205.99 248,-205.99"/>
<polygon fill="black" stroke="black" points="244.5,-205.99 248,-215.99 251.5,-205.99 244.5,-205.99"/>
</g>
<!-- CardListModule -->
<g id="node3" class="node">
<title>CardListModule</title>
<polygon fill="#8dd3c7" stroke="black" points="208.04,-122 205.04,-126 184.04,-126 181.04,-122 99.96,-122 99.96,-86 208.04,-86 208.04,-122"/>
<text text-anchor="middle" x="154" y="-99.8" font-family="Times,serif" font-size="14.00">CardListModule</text>
</g>
<!-- CardListModule&#45;&gt;TeamsSettingsModule -->
<g id="edge2" class="edge">
<title>CardListModule&#45;&gt;TeamsSettingsModule</title>
<path fill="none" stroke="black" d="M192.64,-122.11C192.64,-122.11 192.64,-140.99 192.64,-140.99"/>
<polygon fill="black" stroke="black" points="189.14,-140.99 192.64,-150.99 196.14,-140.99 189.14,-140.99"/>
</g>
</g>
</svg>
