<?xml version="1.0" encoding="UTF-8" standalone="no"?>
<!DOCTYPE svg PUBLIC "-//W3C//DTD SVG 1.1//EN"
 "http://www.w3.org/Graphics/SVG/1.1/DTD/svg11.dtd">
<!-- Generated by graphviz version 2.47.0 (20210316.0004)
 -->
<!-- Title: dependencies Pages: 1 -->
<svg width="1670pt" height="284pt"
 viewBox="0.00 0.00 1670.00 284.00" xmlns="http://www.w3.org/2000/svg" xmlns:xlink="http://www.w3.org/1999/xlink">
<g id="graph0" class="graph" transform="scale(1 1) rotate(0) translate(4 280)">
<title>dependencies</title>
<polygon fill="white" stroke="transparent" points="-4,4 -4,-280 1666,-280 1666,4 -4,4"/>
<text text-anchor="start" x="810.01" y="-42.4" font-family="Times-12" font-weight="bold" font-size="14.00">Legend</text>
<polygon fill="#ffffb3" stroke="transparent" points="597,-10 597,-30 617,-30 617,-10 597,-10"/>
<text text-anchor="start" x="620.63" y="-15.4" font-family="Times-12" font-size="14.00"> &#160;Declarations</text>
<polygon fill="#8dd3c7" stroke="transparent" points="710,-10 710,-30 730,-30 730,-10 710,-10"/>
<text text-anchor="start" x="733.73" y="-15.4" font-family="Times-12" font-size="14.00"> &#160;Module</text>
<polygon fill="#80b1d3" stroke="transparent" points="796,-10 796,-30 816,-30 816,-10 796,-10"/>
<text text-anchor="start" x="819.78" y="-15.4" font-family="Times-12" font-size="14.00"> &#160;Bootstrap</text>
<polygon fill="#fdb462" stroke="transparent" points="893,-10 893,-30 913,-30 913,-10 893,-10"/>
<text text-anchor="start" x="916.67" y="-15.4" font-family="Times-12" font-size="14.00"> &#160;Providers</text>
<polygon fill="#fb8072" stroke="transparent" points="989,-10 989,-30 1009,-30 1009,-10 989,-10"/>
<text text-anchor="start" x="1012.73" y="-15.4" font-family="Times-12" font-size="14.00"> &#160;Exports</text>
<g id="clust1" class="cluster">
<title>cluster_TasksModule</title>
<polygon fill="none" stroke="black" stroke-dasharray="1,5" points="8,-70 8,-268 1654,-268 1654,-70 8,-70"/>
</g>
<g id="clust6" class="cluster">
<title>cluster_TasksModule_exports</title>
<polygon fill="none" stroke="black" points="681,-208 681,-260 815,-260 815,-208 681,-208"/>
</g>
<g id="clust5" class="cluster">
<title>cluster_TasksModule_imports</title>
<polygon fill="none" stroke="black" points="288,-78 288,-130 1646,-130 1646,-78 288,-78"/>
</g>
<g id="clust2" class="cluster">
<title>cluster_TasksModule_declarations</title>
<polygon fill="none" stroke="black" points="16,-78 16,-130 280,-130 280,-78 16,-78"/>
</g>
<!-- MuralComponent -->
<g id="node1" class="node">
<title>MuralComponent</title>
<polygon fill="#ffffb3" stroke="black" points="271.54,-122 156.46,-122 156.46,-86 271.54,-86 271.54,-122"/>
<text text-anchor="middle" x="214" y="-99.8" font-family="Times,serif" font-size="14.00">MuralComponent</text>
</g>
<!-- TasksModule -->
<g id="node3" class="node">
<title>TasksModule</title>
<polygon fill="#8dd3c7" stroke="black" points="794.21,-187 791.21,-191 770.21,-191 767.21,-187 701.79,-187 701.79,-151 794.21,-151 794.21,-187"/>
<text text-anchor="middle" x="748" y="-164.8" font-family="Times,serif" font-size="14.00">TasksModule</text>
</g>
<!-- MuralComponent&#45;&gt;TasksModule -->
<g id="edge1" class="edge">
<title>MuralComponent&#45;&gt;TasksModule</title>
<path fill="none" stroke="black" d="M214,-122.28C214,-143.32 214,-175 214,-175 214,-175 691.55,-175 691.55,-175"/>
<polygon fill="black" stroke="black" points="691.55,-178.5 701.55,-175 691.55,-171.5 691.55,-178.5"/>
</g>
<!-- TasksComponent -->
<g id="node2" class="node">
<title>TasksComponent</title>
<polygon fill="#ffffb3" stroke="black" points="137.99,-122 24.01,-122 24.01,-86 137.99,-86 137.99,-122"/>
<text text-anchor="middle" x="81" y="-99.8" font-family="Times,serif" font-size="14.00">TasksComponent</text>
</g>
<!-- TasksComponent&#45;&gt;TasksModule -->
<g id="edge2" class="edge">
<title>TasksComponent&#45;&gt;TasksModule</title>
<path fill="none" stroke="black" d="M81,-122.25C81,-145.02 81,-181 81,-181 81,-181 691.89,-181 691.89,-181"/>
<polygon fill="black" stroke="black" points="691.89,-184.5 701.89,-181 691.89,-177.5 691.89,-184.5"/>
</g>
<!-- TasksComponent  -->
<g id="node14" class="node">
<title>TasksComponent </title>
<polygon fill="#fb8072" stroke="black" points="806.99,-252 689.01,-252 689.01,-216 806.99,-216 806.99,-252"/>
<text text-anchor="middle" x="748" y="-229.8" font-family="Times,serif" font-size="14.00">TasksComponent </text>
</g>
<!-- TasksModule&#45;&gt;TasksComponent  -->
<g id="edge14" class="edge">
<title>TasksModule&#45;&gt;TasksComponent </title>
<path fill="none" stroke="black" stroke-dasharray="5,2" d="M748,-187.11C748,-187.11 748,-205.99 748,-205.99"/>
<polygon fill="black" stroke="black" points="744.5,-205.99 748,-215.99 751.5,-205.99 744.5,-205.99"/>
</g>
<!-- CalendarScreenModule -->
<g id="node4" class="node">
<title>CalendarScreenModule</title>
<polygon fill="#8dd3c7" stroke="black" points="1638.17,-122 1635.17,-126 1614.17,-126 1611.17,-122 1489.83,-122 1489.83,-86 1638.17,-86 1638.17,-122"/>
<text text-anchor="middle" x="1564" y="-99.8" font-family="Times,serif" font-size="14.00">CalendarScreenModule</text>
</g>
<!-- CalendarScreenModule&#45;&gt;TasksModule -->
<g id="edge3" class="edge">
<title>CalendarScreenModule&#45;&gt;TasksModule</title>
<path fill="none" stroke="black" d="M1564,-122.09C1564,-145.13 1564,-182 1564,-182 1564,-182 804.21,-182 804.21,-182"/>
<polygon fill="black" stroke="black" points="804.21,-178.5 794.21,-182 804.21,-185.5 804.21,-178.5"/>
</g>
<!-- CardModule -->
<g id="node5" class="node">
<title>CardModule</title>
<polygon fill="#8dd3c7" stroke="black" points="1472.26,-122 1469.26,-126 1448.26,-126 1445.26,-122 1385.74,-122 1385.74,-86 1472.26,-86 1472.26,-122"/>
<text text-anchor="middle" x="1429" y="-99.8" font-family="Times,serif" font-size="14.00">CardModule</text>
</g>
<!-- CardModule&#45;&gt;TasksModule -->
<g id="edge4" class="edge">
<title>CardModule&#45;&gt;TasksModule</title>
<path fill="none" stroke="black" d="M1429,-122.04C1429,-143.66 1429,-177 1429,-177 1429,-177 804.27,-177 804.27,-177"/>
<polygon fill="black" stroke="black" points="804.27,-173.5 794.27,-177 804.27,-180.5 804.27,-173.5"/>
</g>
<!-- CreateTeamProjectModule -->
<g id="node6" class="node">
<title>CreateTeamProjectModule</title>
<polygon fill="#8dd3c7" stroke="black" points="1367.61,-122 1364.61,-126 1343.61,-126 1340.61,-122 1200.39,-122 1200.39,-86 1367.61,-86 1367.61,-122"/>
<text text-anchor="middle" x="1284" y="-99.8" font-family="Times,serif" font-size="14.00">CreateTeamProjectModule</text>
</g>
<!-- CreateTeamProjectModule&#45;&gt;TasksModule -->
<g id="edge5" class="edge">
<title>CreateTeamProjectModule&#45;&gt;TasksModule</title>
<path fill="none" stroke="black" d="M1284,-122.22C1284,-142.37 1284,-172 1284,-172 1284,-172 804.16,-172 804.16,-172"/>
<polygon fill="black" stroke="black" points="804.16,-168.5 794.16,-172 804.16,-175.5 804.16,-168.5"/>
</g>
<!-- KanbanModule -->
<g id="node7" class="node">
<title>KanbanModule</title>
<polygon fill="#8dd3c7" stroke="black" points="1182.59,-122 1179.59,-126 1158.59,-126 1155.59,-122 1079.41,-122 1079.41,-86 1182.59,-86 1182.59,-122"/>
<text text-anchor="middle" x="1131" y="-99.8" font-family="Times,serif" font-size="14.00">KanbanModule</text>
</g>
<!-- KanbanModule&#45;&gt;TasksModule -->
<g id="edge6" class="edge">
<title>KanbanModule&#45;&gt;TasksModule</title>
<path fill="none" stroke="black" d="M1131,-122.22C1131,-140.83 1131,-167 1131,-167 1131,-167 804.2,-167 804.2,-167"/>
<polygon fill="black" stroke="black" points="804.2,-163.5 794.2,-167 804.2,-170.5 804.2,-163.5"/>
</g>
<!-- ListModule -->
<g id="node8" class="node">
<title>ListModule</title>
<polygon fill="#8dd3c7" stroke="black" points="1061.83,-122 1058.83,-126 1037.83,-126 1034.83,-122 980.17,-122 980.17,-86 1061.83,-86 1061.83,-122"/>
<text text-anchor="middle" x="1021" y="-99.8" font-family="Times,serif" font-size="14.00">ListModule</text>
</g>
<!-- ListModule&#45;&gt;TasksModule -->
<g id="edge7" class="edge">
<title>ListModule&#45;&gt;TasksModule</title>
<path fill="none" stroke="black" d="M1021,-122.03C1021,-139.06 1021,-162 1021,-162 1021,-162 804.31,-162 804.31,-162"/>
<polygon fill="black" stroke="black" points="804.31,-158.5 794.31,-162 804.31,-165.5 804.31,-158.5"/>
</g>
<!-- ModalPropertiesModule -->
<g id="node9" class="node">
<title>ModalPropertiesModule</title>
<polygon fill="#8dd3c7" stroke="black" points="962.36,-122 959.36,-126 938.36,-126 935.36,-122 809.64,-122 809.64,-86 962.36,-86 962.36,-122"/>
<text text-anchor="middle" x="886" y="-99.8" font-family="Times,serif" font-size="14.00">ModalPropertiesModule</text>
</g>
<!-- ModalPropertiesModule&#45;&gt;TasksModule -->
<g id="edge8" class="edge">
<title>ModalPropertiesModule&#45;&gt;TasksModule</title>
<path fill="none" stroke="black" d="M886,-122.24C886,-137.57 886,-157 886,-157 886,-157 804.34,-157 804.34,-157"/>
<polygon fill="black" stroke="black" points="804.34,-153.5 794.34,-157 804.34,-160.5 804.34,-153.5"/>
</g>
<!-- NoteModule -->
<g id="node10" class="node">
<title>NoteModule</title>
<polygon fill="#8dd3c7" stroke="black" points="791.26,-122 788.26,-126 767.26,-126 764.26,-122 704.74,-122 704.74,-86 791.26,-86 791.26,-122"/>
<text text-anchor="middle" x="748" y="-99.8" font-family="Times,serif" font-size="14.00">NoteModule</text>
</g>
<!-- NoteModule&#45;&gt;TasksModule -->
<g id="edge9" class="edge">
<title>NoteModule&#45;&gt;TasksModule</title>
<path fill="none" stroke="black" d="M733.54,-122.11C733.54,-122.11 733.54,-140.99 733.54,-140.99"/>
<polygon fill="black" stroke="black" points="730.04,-140.99 733.54,-150.99 737.04,-140.99 730.04,-140.99"/>
</g>
<!-- NoteModule&#45;&gt;TasksModule -->
<g id="edge10" class="edge">
<title>NoteModule&#45;&gt;TasksModule</title>
<path fill="none" stroke="black" d="M762.46,-122.11C762.46,-122.11 762.46,-140.99 762.46,-140.99"/>
<polygon fill="black" stroke="black" points="758.96,-140.99 762.46,-150.99 765.96,-140.99 758.96,-140.99"/>
</g>
<!-- PropertiesModule -->
<g id="node11" class="node">
<title>PropertiesModule</title>
<polygon fill="#8dd3c7" stroke="black" points="686.31,-122 683.31,-126 662.31,-126 659.31,-122 569.69,-122 569.69,-86 686.31,-86 686.31,-122"/>
<text text-anchor="middle" x="628" y="-99.8" font-family="Times,serif" font-size="14.00">PropertiesModule</text>
</g>
<!-- PropertiesModule&#45;&gt;TasksModule -->
<g id="edge11" class="edge">
<title>PropertiesModule&#45;&gt;TasksModule</title>
<path fill="none" stroke="black" d="M628,-122.24C628,-137.57 628,-157 628,-157 628,-157 691.6,-157 691.6,-157"/>
<polygon fill="black" stroke="black" points="691.6,-160.5 701.6,-157 691.6,-153.5 691.6,-160.5"/>
</g>
<!-- ReviewTaskComponent -->
<g id="node12" class="node">
<title>ReviewTaskComponent</title>
<polygon fill="#8dd3c7" stroke="black" points="551.81,-122 548.81,-126 527.81,-126 524.81,-122 400.19,-122 400.19,-86 551.81,-86 551.81,-122"/>
<text text-anchor="middle" x="476" y="-99.8" font-family="Times,serif" font-size="14.00">ReviewTaskComponent</text>
</g>
<!-- ReviewTaskComponent&#45;&gt;TasksModule -->
<g id="edge12" class="edge">
<title>ReviewTaskComponent&#45;&gt;TasksModule</title>
<path fill="none" stroke="black" d="M476,-122.02C476,-139.37 476,-163 476,-163 476,-163 691.86,-163 691.86,-163"/>
<polygon fill="black" stroke="black" points="691.86,-166.5 701.86,-163 691.86,-159.5 691.86,-166.5"/>
</g>
<!-- TaskModule -->
<g id="node13" class="node">
<title>TaskModule</title>
<polygon fill="#8dd3c7" stroke="black" points="382.26,-122 379.26,-126 358.26,-126 355.26,-122 295.74,-122 295.74,-86 382.26,-86 382.26,-122"/>
<text text-anchor="middle" x="339" y="-99.8" font-family="Times,serif" font-size="14.00">TaskModule</text>
</g>
<!-- TaskModule&#45;&gt;TasksModule -->
<g id="edge13" class="edge">
<title>TaskModule&#45;&gt;TasksModule</title>
<path fill="none" stroke="black" d="M339,-122.11C339,-141.34 339,-169 339,-169 339,-169 691.88,-169 691.88,-169"/>
<polygon fill="black" stroke="black" points="691.88,-172.5 701.88,-169 691.88,-165.5 691.88,-172.5"/>
</g>
</g>
</svg>
