<?xml version="1.0" encoding="UTF-8" standalone="no"?>
<!DOCTYPE svg PUBLIC "-//W3C//DTD SVG 1.1//EN"
 "http://www.w3.org/Graphics/SVG/1.1/DTD/svg11.dtd">
<!-- Generated by graphviz version 2.47.0 (20210316.0004)
 -->
<!-- Title: dependencies Pages: 1 -->
<svg width="504pt" height="284pt"
 viewBox="0.00 0.00 504.00 284.00" xmlns="http://www.w3.org/2000/svg" xmlns:xlink="http://www.w3.org/1999/xlink">
<g id="graph0" class="graph" transform="scale(1 1) rotate(0) translate(4 280)">
<title>dependencies</title>
<polygon fill="white" stroke="transparent" points="-4,4 -4,-280 500,-280 500,4 -4,4"/>
<text text-anchor="start" x="227.01" y="-42.4" font-family="Times-12" font-weight="bold" font-size="14.00">Legend</text>
<polygon fill="#ffffb3" stroke="transparent" points="14,-10 14,-30 34,-30 34,-10 14,-10"/>
<text text-anchor="start" x="37.63" y="-15.4" font-family="Times-12" font-size="14.00"> &#160;Declarations</text>
<polygon fill="#8dd3c7" stroke="transparent" points="127,-10 127,-30 147,-30 147,-10 127,-10"/>
<text text-anchor="start" x="150.73" y="-15.4" font-family="Times-12" font-size="14.00"> &#160;Module</text>
<polygon fill="#80b1d3" stroke="transparent" points="213,-10 213,-30 233,-30 233,-10 213,-10"/>
<text text-anchor="start" x="236.78" y="-15.4" font-family="Times-12" font-size="14.00"> &#160;Bootstrap</text>
<polygon fill="#fdb462" stroke="transparent" points="310,-10 310,-30 330,-30 330,-10 310,-10"/>
<text text-anchor="start" x="333.67" y="-15.4" font-family="Times-12" font-size="14.00"> &#160;Providers</text>
<polygon fill="#fb8072" stroke="transparent" points="406,-10 406,-30 426,-30 426,-10 406,-10"/>
<text text-anchor="start" x="429.73" y="-15.4" font-family="Times-12" font-size="14.00"> &#160;Exports</text>
<g id="clust1" class="cluster">
<title>cluster_ListModule</title>
<polygon fill="none" stroke="black" stroke-dasharray="1,5" points="30.5,-70 30.5,-268 465.5,-268 465.5,-70 30.5,-70"/>
</g>
<g id="clust5" class="cluster">
<title>cluster_ListModule_exports</title>
<polygon fill="none" stroke="black" points="188.5,-208 188.5,-260 310.5,-260 310.5,-208 188.5,-208"/>
</g>
<g id="clust2" class="cluster">
<title>cluster_ListModule_declarations</title>
<polygon fill="none" stroke="black" points="337.5,-78 337.5,-130 457.5,-130 457.5,-78 337.5,-78"/>
</g>
<g id="clust4" class="cluster">
<title>cluster_ListModule_imports</title>
<polygon fill="none" stroke="black" points="38.5,-78 38.5,-130 329.5,-130 329.5,-78 38.5,-78"/>
</g>
<!-- ListComponent -->
<g id="node1" class="node">
<title>ListComponent</title>
<polygon fill="#ffffb3" stroke="black" points="449.11,-122 345.89,-122 345.89,-86 449.11,-86 449.11,-122"/>
<text text-anchor="middle" x="397.5" y="-99.8" font-family="Times,serif" font-size="14.00">ListComponent</text>
</g>
<!-- ListModule -->
<g id="node2" class="node">
<title>ListModule</title>
<polygon fill="#8dd3c7" stroke="black" points="290.33,-187 287.33,-191 266.33,-191 263.33,-187 208.67,-187 208.67,-151 290.33,-151 290.33,-187"/>
<text text-anchor="middle" x="249.5" y="-164.8" font-family="Times,serif" font-size="14.00">ListModule</text>
</g>
<!-- ListComponent&#45;&gt;ListModule -->
<g id="edge1" class="edge">
<title>ListComponent&#45;&gt;ListModule</title>
<path fill="none" stroke="black" d="M397.5,-122.11C397.5,-141.34 397.5,-169 397.5,-169 397.5,-169 300.33,-169 300.33,-169"/>
<polygon fill="black" stroke="black" points="300.33,-165.5 290.33,-169 300.33,-172.5 300.33,-165.5"/>
</g>
<!-- ListComponent  -->
<g id="node5" class="node">
<title>ListComponent </title>
<polygon fill="#fb8072" stroke="black" points="302.61,-252 196.39,-252 196.39,-216 302.61,-216 302.61,-252"/>
<text text-anchor="middle" x="249.5" y="-229.8" font-family="Times,serif" font-size="14.00">ListComponent </text>
</g>
<!-- ListModule&#45;&gt;ListComponent  -->
<g id="edge4" class="edge">
<title>ListModule&#45;&gt;ListComponent </title>
<path fill="none" stroke="black" stroke-dasharray="5,2" d="M249.5,-187.11C249.5,-187.11 249.5,-205.99 249.5,-205.99"/>
<polygon fill="black" stroke="black" points="246,-205.99 249.5,-215.99 253,-205.99 246,-205.99"/>
</g>
<!-- ConfirmModalModule -->
<g id="node3" class="node">
<title>ConfirmModalModule</title>
<polygon fill="#8dd3c7" stroke="black" points="321.04,-122 318.04,-126 297.04,-126 294.04,-122 177.96,-122 177.96,-86 321.04,-86 321.04,-122"/>
<text text-anchor="middle" x="249.5" y="-99.8" font-family="Times,serif" font-size="14.00">ConfirmModalModule</text>
</g>
<!-- ConfirmModalModule&#45;&gt;ListModule -->
<g id="edge2" class="edge">
<title>ConfirmModalModule&#45;&gt;ListModule</title>
<path fill="none" stroke="black" d="M249.5,-122.11C249.5,-122.11 249.5,-140.99 249.5,-140.99"/>
<polygon fill="black" stroke="black" points="246,-140.99 249.5,-150.99 253,-140.99 246,-140.99"/>
</g>
<!-- RowCardModule -->
<g id="node4" class="node">
<title>RowCardModule</title>
<polygon fill="#8dd3c7" stroke="black" points="160.2,-122 157.2,-126 136.2,-126 133.2,-122 46.8,-122 46.8,-86 160.2,-86 160.2,-122"/>
<text text-anchor="middle" x="103.5" y="-99.8" font-family="Times,serif" font-size="14.00">RowCardModule</text>
</g>
<!-- RowCardModule&#45;&gt;ListModule -->
<g id="edge3" class="edge">
<title>RowCardModule&#45;&gt;ListModule</title>
<path fill="none" stroke="black" d="M103.5,-122.11C103.5,-141.34 103.5,-169 103.5,-169 103.5,-169 198.83,-169 198.83,-169"/>
<polygon fill="black" stroke="black" points="198.83,-172.5 208.83,-169 198.83,-165.5 198.83,-172.5"/>
</g>
</g>
</svg>
