<?xml version="1.0" encoding="UTF-8" standalone="no"?>
<!DOCTYPE svg PUBLIC "-//W3C//DTD SVG 1.1//EN"
 "http://www.w3.org/Graphics/SVG/1.1/DTD/svg11.dtd">
<!-- Generated by graphviz version 2.47.0 (20210316.0004)
 -->
<!-- Title: dependencies Pages: 1 -->
<svg width="504pt" height="284pt"
 viewBox="0.00 0.00 504.00 284.00" xmlns="http://www.w3.org/2000/svg" xmlns:xlink="http://www.w3.org/1999/xlink">
<g id="graph0" class="graph" transform="scale(1 1) rotate(0) translate(4 280)">
<title>dependencies</title>
<polygon fill="white" stroke="transparent" points="-4,4 -4,-280 500,-280 500,4 -4,4"/>
<text text-anchor="start" x="227.01" y="-42.4" font-family="Times-12" font-weight="bold" font-size="14.00">Legend</text>
<polygon fill="#ffffb3" stroke="transparent" points="14,-10 14,-30 34,-30 34,-10 14,-10"/>
<text text-anchor="start" x="37.63" y="-15.4" font-family="Times-12" font-size="14.00"> &#160;Declarations</text>
<polygon fill="#8dd3c7" stroke="transparent" points="127,-10 127,-30 147,-30 147,-10 127,-10"/>
<text text-anchor="start" x="150.73" y="-15.4" font-family="Times-12" font-size="14.00"> &#160;Module</text>
<polygon fill="#80b1d3" stroke="transparent" points="213,-10 213,-30 233,-30 233,-10 213,-10"/>
<text text-anchor="start" x="236.78" y="-15.4" font-family="Times-12" font-size="14.00"> &#160;Bootstrap</text>
<polygon fill="#fdb462" stroke="transparent" points="310,-10 310,-30 330,-30 330,-10 310,-10"/>
<text text-anchor="start" x="333.67" y="-15.4" font-family="Times-12" font-size="14.00"> &#160;Providers</text>
<polygon fill="#fb8072" stroke="transparent" points="406,-10 406,-30 426,-30 426,-10 406,-10"/>
<text text-anchor="start" x="429.73" y="-15.4" font-family="Times-12" font-size="14.00"> &#160;Exports</text>
<g id="clust1" class="cluster">
<title>cluster_GroupsSelectModule</title>
<polygon fill="none" stroke="black" stroke-dasharray="1,5" points="78,-70 78,-268 418,-268 418,-70 78,-70"/>
</g>
<g id="clust5" class="cluster">
<title>cluster_GroupsSelectModule_exports</title>
<polygon fill="none" stroke="black" points="160,-208 160,-260 336,-260 336,-208 160,-208"/>
</g>
<g id="clust2" class="cluster">
<title>cluster_GroupsSelectModule_declarations</title>
<polygon fill="none" stroke="black" points="238,-78 238,-130 410,-130 410,-78 238,-78"/>
</g>
<g id="clust4" class="cluster">
<title>cluster_GroupsSelectModule_imports</title>
<polygon fill="none" stroke="black" points="86,-78 86,-130 230,-130 230,-78 86,-78"/>
</g>
<!-- GroupsSelectComponent -->
<g id="node1" class="node">
<title>GroupsSelectComponent</title>
<polygon fill="#ffffb3" stroke="black" points="402.25,-122 245.75,-122 245.75,-86 402.25,-86 402.25,-122"/>
<text text-anchor="middle" x="324" y="-99.8" font-family="Times,serif" font-size="14.00">GroupsSelectComponent</text>
</g>
<!-- GroupsSelectModule -->
<g id="node2" class="node">
<title>GroupsSelectModule</title>
<polygon fill="#8dd3c7" stroke="black" points="315.47,-187 312.47,-191 291.47,-191 288.47,-187 180.53,-187 180.53,-151 315.47,-151 315.47,-187"/>
<text text-anchor="middle" x="248" y="-164.8" font-family="Times,serif" font-size="14.00">GroupsSelectModule</text>
</g>
<!-- GroupsSelectComponent&#45;&gt;GroupsSelectModule -->
<g id="edge1" class="edge">
<title>GroupsSelectComponent&#45;&gt;GroupsSelectModule</title>
<path fill="none" stroke="black" d="M280.55,-122.11C280.55,-122.11 280.55,-140.99 280.55,-140.99"/>
<polygon fill="black" stroke="black" points="277.05,-140.99 280.55,-150.99 284.05,-140.99 277.05,-140.99"/>
</g>
<!-- GroupsSelectComponent  -->
<g id="node4" class="node">
<title>GroupsSelectComponent </title>
<polygon fill="#fb8072" stroke="black" points="328.25,-252 167.75,-252 167.75,-216 328.25,-216 328.25,-252"/>
<text text-anchor="middle" x="248" y="-229.8" font-family="Times,serif" font-size="14.00">GroupsSelectComponent </text>
</g>
<!-- GroupsSelectModule&#45;&gt;GroupsSelectComponent  -->
<g id="edge3" class="edge">
<title>GroupsSelectModule&#45;&gt;GroupsSelectComponent </title>
<path fill="none" stroke="black" stroke-dasharray="5,2" d="M248,-187.11C248,-187.11 248,-205.99 248,-205.99"/>
<polygon fill="black" stroke="black" points="244.5,-205.99 248,-215.99 251.5,-205.99 244.5,-205.99"/>
</g>
<!-- ModalWarnModule -->
<g id="node3" class="node">
<title>ModalWarnModule</title>
<polygon fill="#8dd3c7" stroke="black" points="221.69,-122 218.69,-126 197.69,-126 194.69,-122 94.31,-122 94.31,-86 221.69,-86 221.69,-122"/>
<text text-anchor="middle" x="158" y="-99.8" font-family="Times,serif" font-size="14.00">ModalWarnModule</text>
</g>
<!-- ModalWarnModule&#45;&gt;GroupsSelectModule -->
<g id="edge2" class="edge">
<title>ModalWarnModule&#45;&gt;GroupsSelectModule</title>
<path fill="none" stroke="black" d="M201.06,-122.11C201.06,-122.11 201.06,-140.99 201.06,-140.99"/>
<polygon fill="black" stroke="black" points="197.56,-140.99 201.06,-150.99 204.56,-140.99 197.56,-140.99"/>
</g>
</g>
</svg>
