<?xml version="1.0" encoding="UTF-8" standalone="no"?>
<!DOCTYPE svg PUBLIC "-//W3C//DTD SVG 1.1//EN"
 "http://www.w3.org/Graphics/SVG/1.1/DTD/svg11.dtd">
<!-- Generated by graphviz version 2.47.0 (20210316.0004)
 -->
<!-- Title: dependencies Pages: 1 -->
<svg width="504pt" height="284pt"
 viewBox="0.00 0.00 504.00 284.00" xmlns="http://www.w3.org/2000/svg" xmlns:xlink="http://www.w3.org/1999/xlink">
<g id="graph0" class="graph" transform="scale(1 1) rotate(0) translate(4 280)">
<title>dependencies</title>
<polygon fill="white" stroke="transparent" points="-4,4 -4,-280 500,-280 500,4 -4,4"/>
<text text-anchor="start" x="227.01" y="-42.4" font-family="Times-12" font-weight="bold" font-size="14.00">Legend</text>
<polygon fill="#ffffb3" stroke="transparent" points="14,-10 14,-30 34,-30 34,-10 14,-10"/>
<text text-anchor="start" x="37.63" y="-15.4" font-family="Times-12" font-size="14.00"> &#160;Declarations</text>
<polygon fill="#8dd3c7" stroke="transparent" points="127,-10 127,-30 147,-30 147,-10 127,-10"/>
<text text-anchor="start" x="150.73" y="-15.4" font-family="Times-12" font-size="14.00"> &#160;Module</text>
<polygon fill="#80b1d3" stroke="transparent" points="213,-10 213,-30 233,-30 233,-10 213,-10"/>
<text text-anchor="start" x="236.78" y="-15.4" font-family="Times-12" font-size="14.00"> &#160;Bootstrap</text>
<polygon fill="#fdb462" stroke="transparent" points="310,-10 310,-30 330,-30 330,-10 310,-10"/>
<text text-anchor="start" x="333.67" y="-15.4" font-family="Times-12" font-size="14.00"> &#160;Providers</text>
<polygon fill="#fb8072" stroke="transparent" points="406,-10 406,-30 426,-30 426,-10 406,-10"/>
<text text-anchor="start" x="429.73" y="-15.4" font-family="Times-12" font-size="14.00"> &#160;Exports</text>
<g id="clust1" class="cluster">
<title>cluster_ProfileModule</title>
<polygon fill="none" stroke="black" stroke-dasharray="1,5" points="38.5,-70 38.5,-268 457.5,-268 457.5,-70 38.5,-70"/>
</g>
<g id="clust4" class="cluster">
<title>cluster_ProfileModule_imports</title>
<polygon fill="none" stroke="black" points="190.5,-78 190.5,-130 449.5,-130 449.5,-78 190.5,-78"/>
</g>
<g id="clust5" class="cluster">
<title>cluster_ProfileModule_exports</title>
<polygon fill="none" stroke="black" points="193.5,-208 193.5,-260 331.5,-260 331.5,-208 193.5,-208"/>
</g>
<g id="clust2" class="cluster">
<title>cluster_ProfileModule_declarations</title>
<polygon fill="none" stroke="black" points="46.5,-78 46.5,-130 182.5,-130 182.5,-78 46.5,-78"/>
</g>
<!-- ProfileComponent -->
<g id="node1" class="node">
<title>ProfileComponent</title>
<polygon fill="#ffffb3" stroke="black" points="174.43,-122 54.57,-122 54.57,-86 174.43,-86 174.43,-122"/>
<text text-anchor="middle" x="114.5" y="-99.8" font-family="Times,serif" font-size="14.00">ProfileComponent</text>
</g>
<!-- ProfileModule -->
<g id="node2" class="node">
<title>ProfileModule</title>
<polygon fill="#8dd3c7" stroke="black" points="311.15,-187 308.15,-191 287.15,-191 284.15,-187 213.85,-187 213.85,-151 311.15,-151 311.15,-187"/>
<text text-anchor="middle" x="262.5" y="-164.8" font-family="Times,serif" font-size="14.00">ProfileModule</text>
</g>
<!-- ProfileComponent&#45;&gt;ProfileModule -->
<g id="edge1" class="edge">
<title>ProfileComponent&#45;&gt;ProfileModule</title>
<path fill="none" stroke="black" d="M114.5,-122.11C114.5,-141.34 114.5,-169 114.5,-169 114.5,-169 203.63,-169 203.63,-169"/>
<polygon fill="black" stroke="black" points="203.63,-172.5 213.63,-169 203.63,-165.5 203.63,-172.5"/>
</g>
<!-- ProfileComponent  -->
<g id="node5" class="node">
<title>ProfileComponent </title>
<polygon fill="#fb8072" stroke="black" points="323.93,-252 201.07,-252 201.07,-216 323.93,-216 323.93,-252"/>
<text text-anchor="middle" x="262.5" y="-229.8" font-family="Times,serif" font-size="14.00">ProfileComponent </text>
</g>
<!-- ProfileModule&#45;&gt;ProfileComponent  -->
<g id="edge4" class="edge">
<title>ProfileModule&#45;&gt;ProfileComponent </title>
<path fill="none" stroke="black" stroke-dasharray="5,2" d="M262.5,-187.11C262.5,-187.11 262.5,-205.99 262.5,-205.99"/>
<polygon fill="black" stroke="black" points="259,-205.99 262.5,-215.99 266,-205.99 259,-205.99"/>
</g>
<!-- ButtonModule -->
<g id="node3" class="node">
<title>ButtonModule</title>
<polygon fill="#8dd3c7" stroke="black" points="441.17,-122 438.17,-126 417.17,-126 414.17,-122 343.83,-122 343.83,-86 441.17,-86 441.17,-122"/>
<text text-anchor="middle" x="392.5" y="-99.8" font-family="Times,serif" font-size="14.00">ButtonModule</text>
</g>
<!-- ButtonModule&#45;&gt;ProfileModule -->
<g id="edge2" class="edge">
<title>ButtonModule&#45;&gt;ProfileModule</title>
<path fill="none" stroke="black" d="M392.5,-122.11C392.5,-141.34 392.5,-169 392.5,-169 392.5,-169 321.28,-169 321.28,-169"/>
<polygon fill="black" stroke="black" points="321.28,-165.5 311.28,-169 321.28,-172.5 321.28,-165.5"/>
</g>
<!-- ModalWarnModule -->
<g id="node4" class="node">
<title>ModalWarnModule</title>
<polygon fill="#8dd3c7" stroke="black" points="326.19,-122 323.19,-126 302.19,-126 299.19,-122 198.81,-122 198.81,-86 326.19,-86 326.19,-122"/>
<text text-anchor="middle" x="262.5" y="-99.8" font-family="Times,serif" font-size="14.00">ModalWarnModule</text>
</g>
<!-- ModalWarnModule&#45;&gt;ProfileModule -->
<g id="edge3" class="edge">
<title>ModalWarnModule&#45;&gt;ProfileModule</title>
<path fill="none" stroke="black" d="M262.5,-122.11C262.5,-122.11 262.5,-140.99 262.5,-140.99"/>
<polygon fill="black" stroke="black" points="259,-140.99 262.5,-150.99 266,-140.99 259,-140.99"/>
</g>
</g>
</svg>
