<?xml version="1.0" encoding="UTF-8" standalone="no"?>
<!DOCTYPE svg PUBLIC "-//W3C//DTD SVG 1.1//EN"
 "http://www.w3.org/Graphics/SVG/1.1/DTD/svg11.dtd">
<!-- Generated by graphviz version 2.47.0 (20210316.0004)
 -->
<!-- Title: dependencies Pages: 1 -->
<svg width="540pt" height="284pt"
 viewBox="0.00 0.00 540.00 284.00" xmlns="http://www.w3.org/2000/svg" xmlns:xlink="http://www.w3.org/1999/xlink">
<g id="graph0" class="graph" transform="scale(1 1) rotate(0) translate(4 280)">
<title>dependencies</title>
<polygon fill="white" stroke="transparent" points="-4,4 -4,-280 536,-280 536,4 -4,4"/>
<text text-anchor="start" x="245.01" y="-42.4" font-family="Times-12" font-weight="bold" font-size="14.00">Legend</text>
<polygon fill="#ffffb3" stroke="transparent" points="32,-10 32,-30 52,-30 52,-10 32,-10"/>
<text text-anchor="start" x="55.63" y="-15.4" font-family="Times-12" font-size="14.00"> &#160;Declarations</text>
<polygon fill="#8dd3c7" stroke="transparent" points="145,-10 145,-30 165,-30 165,-10 145,-10"/>
<text text-anchor="start" x="168.73" y="-15.4" font-family="Times-12" font-size="14.00"> &#160;Module</text>
<polygon fill="#80b1d3" stroke="transparent" points="231,-10 231,-30 251,-30 251,-10 231,-10"/>
<text text-anchor="start" x="254.78" y="-15.4" font-family="Times-12" font-size="14.00"> &#160;Bootstrap</text>
<polygon fill="#fdb462" stroke="transparent" points="328,-10 328,-30 348,-30 348,-10 328,-10"/>
<text text-anchor="start" x="351.67" y="-15.4" font-family="Times-12" font-size="14.00"> &#160;Providers</text>
<polygon fill="#fb8072" stroke="transparent" points="424,-10 424,-30 444,-30 444,-10 424,-10"/>
<text text-anchor="start" x="447.73" y="-15.4" font-family="Times-12" font-size="14.00"> &#160;Exports</text>
<g id="clust1" class="cluster">
<title>cluster_CardListModule</title>
<polygon fill="none" stroke="black" stroke-dasharray="1,5" points="8,-70 8,-268 524,-268 524,-70 8,-70"/>
</g>
<g id="clust2" class="cluster">
<title>cluster_CardListModule_declarations</title>
<polygon fill="none" stroke="black" points="370,-78 370,-130 516,-130 516,-78 370,-78"/>
</g>
<g id="clust4" class="cluster">
<title>cluster_CardListModule_imports</title>
<polygon fill="none" stroke="black" points="16,-78 16,-130 362,-130 362,-78 16,-78"/>
</g>
<g id="clust5" class="cluster">
<title>cluster_CardListModule_exports</title>
<polygon fill="none" stroke="black" points="207,-208 207,-260 357,-260 357,-208 207,-208"/>
</g>
<!-- CardListComponent -->
<g id="node1" class="node">
<title>CardListComponent</title>
<polygon fill="#ffffb3" stroke="black" points="508.32,-122 377.68,-122 377.68,-86 508.32,-86 508.32,-122"/>
<text text-anchor="middle" x="443" y="-99.8" font-family="Times,serif" font-size="14.00">CardListComponent</text>
</g>
<!-- CardListModule -->
<g id="node2" class="node">
<title>CardListModule</title>
<polygon fill="#8dd3c7" stroke="black" points="336.04,-187 333.04,-191 312.04,-191 309.04,-187 227.96,-187 227.96,-151 336.04,-151 336.04,-187"/>
<text text-anchor="middle" x="282" y="-164.8" font-family="Times,serif" font-size="14.00">CardListModule</text>
</g>
<!-- CardListComponent&#45;&gt;CardListModule -->
<g id="edge1" class="edge">
<title>CardListComponent&#45;&gt;CardListModule</title>
<path fill="none" stroke="black" d="M443,-122.11C443,-141.34 443,-169 443,-169 443,-169 346.06,-169 346.06,-169"/>
<polygon fill="black" stroke="black" points="346.06,-165.5 336.06,-169 346.06,-172.5 346.06,-165.5"/>
</g>
<!-- CardListComponent  -->
<g id="node5" class="node">
<title>CardListComponent </title>
<polygon fill="#fb8072" stroke="black" points="348.82,-252 215.18,-252 215.18,-216 348.82,-216 348.82,-252"/>
<text text-anchor="middle" x="282" y="-229.8" font-family="Times,serif" font-size="14.00">CardListComponent </text>
</g>
<!-- CardListModule&#45;&gt;CardListComponent  -->
<g id="edge4" class="edge">
<title>CardListModule&#45;&gt;CardListComponent </title>
<path fill="none" stroke="black" stroke-dasharray="5,2" d="M282,-187.11C282,-187.11 282,-205.99 282,-205.99"/>
<polygon fill="black" stroke="black" points="278.5,-205.99 282,-215.99 285.5,-205.99 278.5,-205.99"/>
</g>
<!-- ConfirmModalModule -->
<g id="node3" class="node">
<title>ConfirmModalModule</title>
<polygon fill="#8dd3c7" stroke="black" points="353.54,-122 350.54,-126 329.54,-126 326.54,-122 210.46,-122 210.46,-86 353.54,-86 353.54,-122"/>
<text text-anchor="middle" x="282" y="-99.8" font-family="Times,serif" font-size="14.00">ConfirmModalModule</text>
</g>
<!-- ConfirmModalModule&#45;&gt;CardListModule -->
<g id="edge2" class="edge">
<title>ConfirmModalModule&#45;&gt;CardListModule</title>
<path fill="none" stroke="black" d="M282,-122.11C282,-122.11 282,-140.99 282,-140.99"/>
<polygon fill="black" stroke="black" points="278.5,-140.99 282,-150.99 285.5,-140.99 278.5,-140.99"/>
</g>
<!-- CreateTeamProjectModule -->
<g id="node4" class="node">
<title>CreateTeamProjectModule</title>
<polygon fill="#8dd3c7" stroke="black" points="191.61,-122 188.61,-126 167.61,-126 164.61,-122 24.39,-122 24.39,-86 191.61,-86 191.61,-122"/>
<text text-anchor="middle" x="108" y="-99.8" font-family="Times,serif" font-size="14.00">CreateTeamProjectModule</text>
</g>
<!-- CreateTeamProjectModule&#45;&gt;CardListModule -->
<g id="edge3" class="edge">
<title>CreateTeamProjectModule&#45;&gt;CardListModule</title>
<path fill="none" stroke="black" d="M108,-122.11C108,-141.34 108,-169 108,-169 108,-169 217.9,-169 217.9,-169"/>
<polygon fill="black" stroke="black" points="217.9,-172.5 227.9,-169 217.9,-165.5 217.9,-172.5"/>
</g>
</g>
</svg>
