<?xml version="1.0" encoding="UTF-8" standalone="no"?>
<!DOCTYPE svg PUBLIC "-//W3C//DTD SVG 1.1//EN"
 "http://www.w3.org/Graphics/SVG/1.1/DTD/svg11.dtd">
<!-- Generated by graphviz version 2.47.0 (20210316.0004)
 -->
<!-- Title: dependencies Pages: 1 -->
<svg width="1215pt" height="284pt"
 viewBox="0.00 0.00 1215.00 284.00" xmlns="http://www.w3.org/2000/svg" xmlns:xlink="http://www.w3.org/1999/xlink">
<g id="graph0" class="graph" transform="scale(1 1) rotate(0) translate(4 280)">
<title>dependencies</title>
<polygon fill="white" stroke="transparent" points="-4,4 -4,-280 1211,-280 1211,4 -4,4"/>
<text text-anchor="start" x="582.51" y="-42.4" font-family="Times-12" font-weight="bold" font-size="14.00">Legend</text>
<polygon fill="#ffffb3" stroke="transparent" points="369.5,-10 369.5,-30 389.5,-30 389.5,-10 369.5,-10"/>
<text text-anchor="start" x="393.13" y="-15.4" font-family="Times-12" font-size="14.00"> &#160;Declarations</text>
<polygon fill="#8dd3c7" stroke="transparent" points="482.5,-10 482.5,-30 502.5,-30 502.5,-10 482.5,-10"/>
<text text-anchor="start" x="506.23" y="-15.4" font-family="Times-12" font-size="14.00"> &#160;Module</text>
<polygon fill="#80b1d3" stroke="transparent" points="568.5,-10 568.5,-30 588.5,-30 588.5,-10 568.5,-10"/>
<text text-anchor="start" x="592.28" y="-15.4" font-family="Times-12" font-size="14.00"> &#160;Bootstrap</text>
<polygon fill="#fdb462" stroke="transparent" points="665.5,-10 665.5,-30 685.5,-30 685.5,-10 665.5,-10"/>
<text text-anchor="start" x="689.17" y="-15.4" font-family="Times-12" font-size="14.00"> &#160;Providers</text>
<polygon fill="#fb8072" stroke="transparent" points="761.5,-10 761.5,-30 781.5,-30 781.5,-10 761.5,-10"/>
<text text-anchor="start" x="785.23" y="-15.4" font-family="Times-12" font-size="14.00"> &#160;Exports</text>
<g id="clust1" class="cluster">
<title>cluster_PipesModule</title>
<polygon fill="none" stroke="black" stroke-dasharray="1,5" points="8,-70 8,-268 1199,-268 1199,-70 8,-70"/>
</g>
<g id="clust14" class="cluster">
<title>cluster_PipesModule_exports</title>
<polygon fill="none" stroke="black" points="16,-208 16,-260 1191,-260 1191,-208 16,-208"/>
</g>
<g id="clust2" class="cluster">
<title>cluster_PipesModule_declarations</title>
<polygon fill="none" stroke="black" points="37,-78 37,-130 1178,-130 1178,-78 37,-78"/>
</g>
<!-- DatePipe -->
<g id="node1" class="node">
<title>DatePipe</title>
<polygon fill="#ffffb3" stroke="black" points="1169.81,-122 1102.19,-122 1102.19,-86 1169.81,-86 1169.81,-122"/>
<text text-anchor="middle" x="1136" y="-99.8" font-family="Times,serif" font-size="14.00">DatePipe</text>
</g>
<!-- PipesModule -->
<g id="node11" class="node">
<title>PipesModule</title>
<polygon fill="#8dd3c7" stroke="black" points="611.88,-187 608.88,-191 587.88,-191 584.88,-187 522.12,-187 522.12,-151 611.88,-151 611.88,-187"/>
<text text-anchor="middle" x="567" y="-164.8" font-family="Times,serif" font-size="14.00">PipesModule</text>
</g>
<!-- DatePipe&#45;&gt;PipesModule -->
<g id="edge1" class="edge">
<title>DatePipe&#45;&gt;PipesModule</title>
<path fill="none" stroke="black" d="M1107.47,-122.17C1107.47,-141.09 1107.47,-168 1107.47,-168 1107.47,-168 622.15,-168 622.15,-168"/>
<polygon fill="black" stroke="black" points="622.15,-164.5 612.15,-168 622.15,-171.5 622.15,-164.5"/>
</g>
<!-- DateSortPipe -->
<g id="node2" class="node">
<title>DateSortPipe</title>
<polygon fill="#ffffb3" stroke="black" points="1084.15,-122 993.85,-122 993.85,-86 1084.15,-86 1084.15,-122"/>
<text text-anchor="middle" x="1039" y="-99.8" font-family="Times,serif" font-size="14.00">DateSortPipe</text>
</g>
<!-- DateSortPipe&#45;&gt;PipesModule -->
<g id="edge2" class="edge">
<title>DateSortPipe&#45;&gt;PipesModule</title>
<path fill="none" stroke="black" d="M997.3,-122.3C997.3,-140.27 997.3,-165 997.3,-165 997.3,-165 622.24,-165 622.24,-165"/>
<polygon fill="black" stroke="black" points="622.24,-161.5 612.24,-165 622.24,-168.5 622.24,-161.5"/>
</g>
<!-- NamePipe -->
<g id="node3" class="node">
<title>NamePipe</title>
<polygon fill="#ffffb3" stroke="black" points="976.31,-122 901.69,-122 901.69,-86 976.31,-86 976.31,-122"/>
<text text-anchor="middle" x="939" y="-99.8" font-family="Times,serif" font-size="14.00">NamePipe</text>
</g>
<!-- NamePipe&#45;&gt;PipesModule -->
<g id="edge3" class="edge">
<title>NamePipe&#45;&gt;PipesModule</title>
<path fill="none" stroke="black" d="M952.47,-122.04C952.47,-138.73 952.47,-161 952.47,-161 952.47,-161 621.97,-161 621.97,-161"/>
<polygon fill="black" stroke="black" points="621.97,-157.5 611.97,-161 621.97,-164.5 621.97,-157.5"/>
</g>
<!-- NameSortPipe -->
<g id="node4" class="node">
<title>NameSortPipe</title>
<polygon fill="#ffffb3" stroke="black" points="883.65,-122 786.35,-122 786.35,-86 883.65,-86 883.65,-122"/>
<text text-anchor="middle" x="835" y="-99.8" font-family="Times,serif" font-size="14.00">NameSortPipe</text>
</g>
<!-- NameSortPipe&#45;&gt;PipesModule -->
<g id="edge4" class="edge">
<title>NameSortPipe&#45;&gt;PipesModule</title>
<path fill="none" stroke="black" d="M851.36,-122.28C851.36,-137.95 851.36,-158 851.36,-158 851.36,-158 622.06,-158 622.06,-158"/>
<polygon fill="black" stroke="black" points="622.06,-154.5 612.06,-158 622.06,-161.5 622.06,-154.5"/>
</g>
<!-- SearchAllFilterPipe -->
<g id="node5" class="node">
<title>SearchAllFilterPipe</title>
<polygon fill="#ffffb3" stroke="black" points="768.69,-122 641.31,-122 641.31,-86 768.69,-86 768.69,-122"/>
<text text-anchor="middle" x="705" y="-99.8" font-family="Times,serif" font-size="14.00">SearchAllFilterPipe</text>
</g>
<!-- SearchAllFilterPipe&#45;&gt;PipesModule -->
<g id="edge5" class="edge">
<title>SearchAllFilterPipe&#45;&gt;PipesModule</title>
<path fill="none" stroke="black" d="M683.72,-122.12C683.72,-136.78 683.72,-155 683.72,-155 683.72,-155 622.13,-155 622.13,-155"/>
<polygon fill="black" stroke="black" points="622.13,-151.5 612.13,-155 622.13,-158.5 622.13,-151.5"/>
</g>
<!-- SimplePropertyPipe -->
<g id="node6" class="node">
<title>SimplePropertyPipe</title>
<polygon fill="#ffffb3" stroke="black" points="623.27,-122 494.73,-122 494.73,-86 623.27,-86 623.27,-122"/>
<text text-anchor="middle" x="559" y="-99.8" font-family="Times,serif" font-size="14.00">SimplePropertyPipe</text>
</g>
<!-- SimplePropertyPipe&#45;&gt;PipesModule -->
<g id="edge6" class="edge">
<title>SimplePropertyPipe&#45;&gt;PipesModule</title>
<path fill="none" stroke="black" d="M567,-122.11C567,-122.11 567,-140.99 567,-140.99"/>
<polygon fill="black" stroke="black" points="563.5,-140.99 567,-150.99 570.5,-140.99 563.5,-140.99"/>
</g>
<!-- StatusBasicPipe -->
<g id="node7" class="node">
<title>StatusBasicPipe</title>
<polygon fill="#ffffb3" stroke="black" points="477.21,-122 370.79,-122 370.79,-86 477.21,-86 477.21,-122"/>
<text text-anchor="middle" x="424" y="-99.8" font-family="Times,serif" font-size="14.00">StatusBasicPipe</text>
</g>
<!-- StatusBasicPipe&#45;&gt;PipesModule -->
<g id="edge7" class="edge">
<title>StatusBasicPipe&#45;&gt;PipesModule</title>
<path fill="none" stroke="black" d="M473.48,-122.12C473.48,-136.78 473.48,-155 473.48,-155 473.48,-155 511.88,-155 511.88,-155"/>
<polygon fill="black" stroke="black" points="511.88,-158.5 521.88,-155 511.88,-151.5 511.88,-158.5"/>
</g>
<!-- StatusPipe -->
<g id="node8" class="node">
<title>StatusPipe</title>
<polygon fill="#ffffb3" stroke="black" points="352.61,-122 277.39,-122 277.39,-86 352.61,-86 352.61,-122"/>
<text text-anchor="middle" x="315" y="-99.8" font-family="Times,serif" font-size="14.00">StatusPipe</text>
</g>
<!-- StatusPipe&#45;&gt;PipesModule -->
<g id="edge8" class="edge">
<title>StatusPipe&#45;&gt;PipesModule</title>
<path fill="none" stroke="black" d="M347.43,-122.01C347.43,-138.05 347.43,-159 347.43,-159 347.43,-159 512.04,-159 512.04,-159"/>
<polygon fill="black" stroke="black" points="512.04,-162.5 522.04,-159 512.04,-155.5 512.04,-162.5"/>
</g>
<!-- StatusSortPipe -->
<g id="node9" class="node">
<title>StatusSortPipe</title>
<polygon fill="#ffffb3" stroke="black" points="259.45,-122 160.55,-122 160.55,-86 259.45,-86 259.45,-122"/>
<text text-anchor="middle" x="210" y="-99.8" font-family="Times,serif" font-size="14.00">StatusSortPipe</text>
</g>
<!-- StatusSortPipe&#45;&gt;PipesModule -->
<g id="edge9" class="edge">
<title>StatusSortPipe&#45;&gt;PipesModule</title>
<path fill="none" stroke="black" d="M252.6,-122.02C252.6,-139.37 252.6,-163 252.6,-163 252.6,-163 511.95,-163 511.95,-163"/>
<polygon fill="black" stroke="black" points="511.95,-166.5 521.95,-163 511.95,-159.5 511.95,-166.5"/>
</g>
<!-- UsernamePipe -->
<g id="node10" class="node">
<title>UsernamePipe</title>
<polygon fill="#ffffb3" stroke="black" points="142.63,-122 45.37,-122 45.37,-86 142.63,-86 142.63,-122"/>
<text text-anchor="middle" x="94" y="-99.8" font-family="Times,serif" font-size="14.00">UsernamePipe</text>
</g>
<!-- UsernamePipe&#45;&gt;PipesModule -->
<g id="edge10" class="edge">
<title>UsernamePipe&#45;&gt;PipesModule</title>
<path fill="none" stroke="black" d="M134.19,-122.22C134.19,-140.83 134.19,-167 134.19,-167 134.19,-167 511.91,-167 511.91,-167"/>
<polygon fill="black" stroke="black" points="511.91,-170.5 521.91,-167 511.91,-163.5 511.91,-170.5"/>
</g>
<!-- DatePipe  -->
<g id="node12" class="node">
<title>DatePipe </title>
<polygon fill="#fb8072" stroke="black" points="1183.31,-252 1112.69,-252 1112.69,-216 1183.31,-216 1183.31,-252"/>
<text text-anchor="middle" x="1148" y="-229.8" font-family="Times,serif" font-size="14.00">DatePipe </text>
</g>
<!-- PipesModule&#45;&gt;DatePipe  -->
<g id="edge11" class="edge">
<title>PipesModule&#45;&gt;DatePipe </title>
<path fill="none" stroke="black" stroke-dasharray="5,2" d="M612.05,-171C747.4,-171 1141.12,-171 1141.12,-171 1141.12,-171 1141.12,-205.78 1141.12,-205.78"/>
<polygon fill="black" stroke="black" points="1137.63,-205.78 1141.12,-215.78 1144.63,-205.78 1137.63,-205.78"/>
</g>
<!-- DateSortPipe  -->
<g id="node13" class="node">
<title>DateSortPipe </title>
<polygon fill="#fb8072" stroke="black" points="1095.15,-252 1000.85,-252 1000.85,-216 1095.15,-216 1095.15,-252"/>
<text text-anchor="middle" x="1048" y="-229.8" font-family="Times,serif" font-size="14.00">DateSortPipe </text>
</g>
<!-- PipesModule&#45;&gt;DateSortPipe  -->
<g id="edge12" class="edge">
<title>PipesModule&#45;&gt;DateSortPipe </title>
<path fill="none" stroke="black" stroke-dasharray="5,2" d="M612.17,-174C730.9,-174 1042.62,-174 1042.62,-174 1042.62,-174 1042.62,-206 1042.62,-206"/>
<polygon fill="black" stroke="black" points="1039.13,-206 1042.62,-216 1046.13,-206 1039.13,-206"/>
</g>
<!-- NamePipe  -->
<g id="node14" class="node">
<title>NamePipe </title>
<polygon fill="#fb8072" stroke="black" points="982.81,-252 905.19,-252 905.19,-216 982.81,-216 982.81,-252"/>
<text text-anchor="middle" x="944" y="-229.8" font-family="Times,serif" font-size="14.00">NamePipe </text>
</g>
<!-- PipesModule&#45;&gt;NamePipe  -->
<g id="edge13" class="edge">
<title>PipesModule&#45;&gt;NamePipe </title>
<path fill="none" stroke="black" stroke-dasharray="5,2" d="M612.09,-178C709.07,-178 928.78,-178 928.78,-178 928.78,-178 928.78,-205.97 928.78,-205.97"/>
<polygon fill="black" stroke="black" points="925.28,-205.97 928.78,-215.97 932.28,-205.97 925.28,-205.97"/>
</g>
<!-- NameSortPipe  -->
<g id="node15" class="node">
<title>NameSortPipe </title>
<polygon fill="#fb8072" stroke="black" points="887.65,-252 786.35,-252 786.35,-216 887.65,-216 887.65,-252"/>
<text text-anchor="middle" x="837" y="-229.8" font-family="Times,serif" font-size="14.00">NameSortPipe </text>
</g>
<!-- PipesModule&#45;&gt;NameSortPipe  -->
<g id="edge14" class="edge">
<title>PipesModule&#45;&gt;NameSortPipe </title>
<path fill="none" stroke="black" stroke-dasharray="5,2" d="M612.03,-181C684.49,-181 818.89,-181 818.89,-181 818.89,-181 818.89,-205.76 818.89,-205.76"/>
<polygon fill="black" stroke="black" points="815.39,-205.76 818.89,-215.76 822.39,-205.76 815.39,-205.76"/>
</g>
<!-- SearchAllFilterPipe  -->
<g id="node16" class="node">
<title>SearchAllFilterPipe </title>
<polygon fill="#fb8072" stroke="black" points="768.19,-252 637.81,-252 637.81,-216 768.19,-216 768.19,-252"/>
<text text-anchor="middle" x="703" y="-229.8" font-family="Times,serif" font-size="14.00">SearchAllFilterPipe </text>
</g>
<!-- PipesModule&#45;&gt;SearchAllFilterPipe  -->
<g id="edge15" class="edge">
<title>PipesModule&#45;&gt;SearchAllFilterPipe </title>
<path fill="none" stroke="black" stroke-dasharray="5,2" d="M612.15,-184C659.16,-184 726.03,-184 726.03,-184 726.03,-184 726.03,-205.95 726.03,-205.95"/>
<polygon fill="black" stroke="black" points="722.53,-205.95 726.03,-215.95 729.53,-205.95 722.53,-205.95"/>
</g>
<!-- SimplePropertyPipe  -->
<g id="node17" class="node">
<title>SimplePropertyPipe </title>
<polygon fill="#fb8072" stroke="black" points="620.27,-252 487.73,-252 487.73,-216 620.27,-216 620.27,-252"/>
<text text-anchor="middle" x="554" y="-229.8" font-family="Times,serif" font-size="14.00">SimplePropertyPipe </text>
</g>
<!-- PipesModule&#45;&gt;SimplePropertyPipe  -->
<g id="edge16" class="edge">
<title>PipesModule&#45;&gt;SimplePropertyPipe </title>
<path fill="none" stroke="black" stroke-dasharray="5,2" d="M567,-187.11C567,-187.11 567,-205.99 567,-205.99"/>
<polygon fill="black" stroke="black" points="563.5,-205.99 567,-215.99 570.5,-205.99 563.5,-205.99"/>
</g>
<!-- StatusBasicPipe  -->
<g id="node18" class="node">
<title>StatusBasicPipe </title>
<polygon fill="#fb8072" stroke="black" points="469.71,-252 360.29,-252 360.29,-216 469.71,-216 469.71,-252"/>
<text text-anchor="middle" x="415" y="-229.8" font-family="Times,serif" font-size="14.00">StatusBasicPipe </text>
</g>
<!-- PipesModule&#45;&gt;StatusBasicPipe  -->
<g id="edge17" class="edge">
<title>PipesModule&#45;&gt;StatusBasicPipe </title>
<path fill="none" stroke="black" stroke-dasharray="5,2" d="M521.81,-183C478.73,-183 420.38,-183 420.38,-183 420.38,-183 420.38,-205.88 420.38,-205.88"/>
<polygon fill="black" stroke="black" points="416.88,-205.88 420.38,-215.88 423.88,-205.88 416.88,-205.88"/>
</g>
<!-- StatusPipe  -->
<g id="node19" class="node">
<title>StatusPipe </title>
<polygon fill="#fb8072" stroke="black" points="342.11,-252 263.89,-252 263.89,-216 342.11,-216 342.11,-252"/>
<text text-anchor="middle" x="303" y="-229.8" font-family="Times,serif" font-size="14.00">StatusPipe </text>
</g>
<!-- PipesModule&#45;&gt;StatusPipe  -->
<g id="edge18" class="edge">
<title>PipesModule&#45;&gt;StatusPipe </title>
<path fill="none" stroke="black" stroke-dasharray="5,2" d="M521.92,-179C448.18,-179 309.88,-179 309.88,-179 309.88,-179 309.88,-205.99 309.88,-205.99"/>
<polygon fill="black" stroke="black" points="306.38,-205.99 309.88,-215.99 313.38,-205.99 306.38,-205.99"/>
</g>
<!-- StatusSortPipe  -->
<g id="node20" class="node">
<title>StatusSortPipe </title>
<polygon fill="#fb8072" stroke="black" points="245.94,-252 144.06,-252 144.06,-216 245.94,-216 245.94,-252"/>
<text text-anchor="middle" x="195" y="-229.8" font-family="Times,serif" font-size="14.00">StatusSortPipe </text>
</g>
<!-- PipesModule&#45;&gt;StatusSortPipe  -->
<g id="edge19" class="edge">
<title>PipesModule&#45;&gt;StatusSortPipe </title>
<path fill="none" stroke="black" stroke-dasharray="5,2" d="M522.05,-175C424.76,-175 203.38,-175 203.38,-175 203.38,-175 203.38,-205.98 203.38,-205.98"/>
<polygon fill="black" stroke="black" points="199.88,-205.98 203.38,-215.98 206.88,-205.98 199.88,-205.98"/>
</g>
<!-- UsernamePipe  -->
<g id="node21" class="node">
<title>UsernamePipe </title>
<polygon fill="#fb8072" stroke="black" points="125.63,-252 24.37,-252 24.37,-216 125.63,-216 125.63,-252"/>
<text text-anchor="middle" x="75" y="-229.8" font-family="Times,serif" font-size="14.00">UsernamePipe </text>
</g>
<!-- PipesModule&#45;&gt;UsernamePipe  -->
<g id="edge20" class="edge">
<title>PipesModule&#45;&gt;UsernamePipe </title>
<path fill="none" stroke="black" stroke-dasharray="5,2" d="M521.69,-171C401.8,-171 85.38,-171 85.38,-171 85.38,-171 85.38,-205.78 85.38,-205.78"/>
<polygon fill="black" stroke="black" points="81.88,-205.78 85.38,-215.78 88.88,-205.78 81.88,-205.78"/>
</g>
</g>
</svg>
