<?xml version="1.0" encoding="UTF-8" standalone="no"?>
<!DOCTYPE svg PUBLIC "-//W3C//DTD SVG 1.1//EN"
 "http://www.w3.org/Graphics/SVG/1.1/DTD/svg11.dtd">
<!-- Generated by graphviz version 2.47.0 (20210316.0004)
 -->
<!-- Title: dependencies Pages: 1 -->
<svg width="831pt" height="284pt"
 viewBox="0.00 0.00 831.00 284.00" xmlns="http://www.w3.org/2000/svg" xmlns:xlink="http://www.w3.org/1999/xlink">
<g id="graph0" class="graph" transform="scale(1 1) rotate(0) translate(4 280)">
<title>dependencies</title>
<polygon fill="white" stroke="transparent" points="-4,4 -4,-280 827,-280 827,4 -4,4"/>
<text text-anchor="start" x="390.51" y="-42.4" font-family="Times-12" font-weight="bold" font-size="14.00">Legend</text>
<polygon fill="#ffffb3" stroke="transparent" points="177.5,-10 177.5,-30 197.5,-30 197.5,-10 177.5,-10"/>
<text text-anchor="start" x="201.13" y="-15.4" font-family="Times-12" font-size="14.00"> &#160;Declarations</text>
<polygon fill="#8dd3c7" stroke="transparent" points="290.5,-10 290.5,-30 310.5,-30 310.5,-10 290.5,-10"/>
<text text-anchor="start" x="314.23" y="-15.4" font-family="Times-12" font-size="14.00"> &#160;Module</text>
<polygon fill="#80b1d3" stroke="transparent" points="376.5,-10 376.5,-30 396.5,-30 396.5,-10 376.5,-10"/>
<text text-anchor="start" x="400.28" y="-15.4" font-family="Times-12" font-size="14.00"> &#160;Bootstrap</text>
<polygon fill="#fdb462" stroke="transparent" points="473.5,-10 473.5,-30 493.5,-30 493.5,-10 473.5,-10"/>
<text text-anchor="start" x="497.17" y="-15.4" font-family="Times-12" font-size="14.00"> &#160;Providers</text>
<polygon fill="#fb8072" stroke="transparent" points="569.5,-10 569.5,-30 589.5,-30 589.5,-10 569.5,-10"/>
<text text-anchor="start" x="593.23" y="-15.4" font-family="Times-12" font-size="14.00"> &#160;Exports</text>
<g id="clust1" class="cluster">
<title>cluster_TeamInformationsModule</title>
<polygon fill="none" stroke="black" stroke-dasharray="1,5" points="8,-70 8,-268 815,-268 815,-70 8,-70"/>
</g>
<g id="clust5" class="cluster">
<title>cluster_TeamInformationsModule_exports</title>
<polygon fill="none" stroke="black" points="289,-208 289,-260 495,-260 495,-208 289,-208"/>
</g>
<g id="clust2" class="cluster">
<title>cluster_TeamInformationsModule_declarations</title>
<polygon fill="none" stroke="black" points="605,-78 605,-130 807,-130 807,-78 605,-78"/>
</g>
<g id="clust4" class="cluster">
<title>cluster_TeamInformationsModule_imports</title>
<polygon fill="none" stroke="black" points="16,-78 16,-130 597,-130 597,-78 16,-78"/>
</g>
<!-- TeamInformationsComponent -->
<g id="node1" class="node">
<title>TeamInformationsComponent</title>
<polygon fill="#ffffb3" stroke="black" points="798.52,-122 613.48,-122 613.48,-86 798.52,-86 798.52,-122"/>
<text text-anchor="middle" x="706" y="-99.8" font-family="Times,serif" font-size="14.00">TeamInformationsComponent</text>
</g>
<!-- TeamInformationsModule -->
<g id="node2" class="node">
<title>TeamInformationsModule</title>
<polygon fill="#8dd3c7" stroke="black" points="473.74,-187 470.74,-191 449.74,-191 446.74,-187 310.26,-187 310.26,-151 473.74,-151 473.74,-187"/>
<text text-anchor="middle" x="392" y="-164.8" font-family="Times,serif" font-size="14.00">TeamInformationsModule</text>
</g>
<!-- TeamInformationsComponent&#45;&gt;TeamInformationsModule -->
<g id="edge1" class="edge">
<title>TeamInformationsComponent&#45;&gt;TeamInformationsModule</title>
<path fill="none" stroke="black" d="M706,-122.11C706,-141.34 706,-169 706,-169 706,-169 484.09,-169 484.09,-169"/>
<polygon fill="black" stroke="black" points="484.09,-165.5 474.09,-169 484.09,-172.5 484.09,-165.5"/>
</g>
<!-- TeamInformationsComponent  -->
<g id="node7" class="node">
<title>TeamInformationsComponent </title>
<polygon fill="#fb8072" stroke="black" points="486.52,-252 297.48,-252 297.48,-216 486.52,-216 486.52,-252"/>
<text text-anchor="middle" x="392" y="-229.8" font-family="Times,serif" font-size="14.00">TeamInformationsComponent </text>
</g>
<!-- TeamInformationsModule&#45;&gt;TeamInformationsComponent  -->
<g id="edge6" class="edge">
<title>TeamInformationsModule&#45;&gt;TeamInformationsComponent </title>
<path fill="none" stroke="black" stroke-dasharray="5,2" d="M392,-187.11C392,-187.11 392,-205.99 392,-205.99"/>
<polygon fill="black" stroke="black" points="388.5,-205.99 392,-215.99 395.5,-205.99 388.5,-205.99"/>
</g>
<!-- CardGroupModule -->
<g id="node3" class="node">
<title>CardGroupModule</title>
<polygon fill="#8dd3c7" stroke="black" points="589.03,-122 586.03,-126 565.03,-126 562.03,-122 466.97,-122 466.97,-86 589.03,-86 589.03,-122"/>
<text text-anchor="middle" x="528" y="-99.8" font-family="Times,serif" font-size="14.00">CardGroupModule</text>
</g>
<!-- CardGroupModule&#45;&gt;TeamInformationsModule -->
<g id="edge2" class="edge">
<title>CardGroupModule&#45;&gt;TeamInformationsModule</title>
<path fill="none" stroke="black" d="M470.3,-122.11C470.3,-122.11 470.3,-140.99 470.3,-140.99"/>
<polygon fill="black" stroke="black" points="466.8,-140.99 470.3,-150.99 473.8,-140.99 466.8,-140.99"/>
</g>
<!-- CardUserModule -->
<g id="node4" class="node">
<title>CardUserModule</title>
<polygon fill="#8dd3c7" stroke="black" points="448.69,-122 445.69,-126 424.69,-126 421.69,-122 335.31,-122 335.31,-86 448.69,-86 448.69,-122"/>
<text text-anchor="middle" x="392" y="-99.8" font-family="Times,serif" font-size="14.00">CardUserModule</text>
</g>
<!-- CardUserModule&#45;&gt;TeamInformationsModule -->
<g id="edge3" class="edge">
<title>CardUserModule&#45;&gt;TeamInformationsModule</title>
<path fill="none" stroke="black" d="M392,-122.11C392,-122.11 392,-140.99 392,-140.99"/>
<polygon fill="black" stroke="black" points="388.5,-140.99 392,-150.99 395.5,-140.99 388.5,-140.99"/>
</g>
<!-- ConfirmModalModule -->
<g id="node5" class="node">
<title>ConfirmModalModule</title>
<polygon fill="#8dd3c7" stroke="black" points="317.54,-122 314.54,-126 293.54,-126 290.54,-122 174.46,-122 174.46,-86 317.54,-86 317.54,-122"/>
<text text-anchor="middle" x="246" y="-99.8" font-family="Times,serif" font-size="14.00">ConfirmModalModule</text>
</g>
<!-- ConfirmModalModule&#45;&gt;TeamInformationsModule -->
<g id="edge4" class="edge">
<title>ConfirmModalModule&#45;&gt;TeamInformationsModule</title>
<path fill="none" stroke="black" d="M313.95,-122.11C313.95,-122.11 313.95,-140.99 313.95,-140.99"/>
<polygon fill="black" stroke="black" points="310.45,-140.99 313.95,-150.99 317.45,-140.99 310.45,-140.99"/>
</g>
<!-- CreateGroupModule -->
<g id="node6" class="node">
<title>CreateGroupModule</title>
<polygon fill="#8dd3c7" stroke="black" points="155.85,-122 152.85,-126 131.85,-126 128.85,-122 24.15,-122 24.15,-86 155.85,-86 155.85,-122"/>
<text text-anchor="middle" x="90" y="-99.8" font-family="Times,serif" font-size="14.00">CreateGroupModule</text>
</g>
<!-- CreateGroupModule&#45;&gt;TeamInformationsModule -->
<g id="edge5" class="edge">
<title>CreateGroupModule&#45;&gt;TeamInformationsModule</title>
<path fill="none" stroke="black" d="M90,-122.11C90,-141.34 90,-169 90,-169 90,-169 299.88,-169 299.88,-169"/>
<polygon fill="black" stroke="black" points="299.88,-172.5 309.88,-169 299.88,-165.5 299.88,-172.5"/>
</g>
</g>
</svg>
