<?xml version="1.0" encoding="UTF-8" standalone="no"?>
<!DOCTYPE svg PUBLIC "-//W3C//DTD SVG 1.1//EN"
 "http://www.w3.org/Graphics/SVG/1.1/DTD/svg11.dtd">
<!-- Generated by graphviz version 2.47.0 (20210316.0004)
 -->
<!-- Title: dependencies Pages: 1 -->
<svg width="504pt" height="284pt"
 viewBox="0.00 0.00 504.00 284.00" xmlns="http://www.w3.org/2000/svg" xmlns:xlink="http://www.w3.org/1999/xlink">
<g id="graph0" class="graph" transform="scale(1 1) rotate(0) translate(4 280)">
<title>dependencies</title>
<polygon fill="white" stroke="transparent" points="-4,4 -4,-280 500,-280 500,4 -4,4"/>
<text text-anchor="start" x="227.01" y="-42.4" font-family="Times-12" font-weight="bold" font-size="14.00">Legend</text>
<polygon fill="#ffffb3" stroke="transparent" points="14,-10 14,-30 34,-30 34,-10 14,-10"/>
<text text-anchor="start" x="37.63" y="-15.4" font-family="Times-12" font-size="14.00"> &#160;Declarations</text>
<polygon fill="#8dd3c7" stroke="transparent" points="127,-10 127,-30 147,-30 147,-10 127,-10"/>
<text text-anchor="start" x="150.73" y="-15.4" font-family="Times-12" font-size="14.00"> &#160;Module</text>
<polygon fill="#80b1d3" stroke="transparent" points="213,-10 213,-30 233,-30 233,-10 213,-10"/>
<text text-anchor="start" x="236.78" y="-15.4" font-family="Times-12" font-size="14.00"> &#160;Bootstrap</text>
<polygon fill="#fdb462" stroke="transparent" points="310,-10 310,-30 330,-30 330,-10 310,-10"/>
<text text-anchor="start" x="333.67" y="-15.4" font-family="Times-12" font-size="14.00"> &#160;Providers</text>
<polygon fill="#fb8072" stroke="transparent" points="406,-10 406,-30 426,-30 426,-10 406,-10"/>
<text text-anchor="start" x="429.73" y="-15.4" font-family="Times-12" font-size="14.00"> &#160;Exports</text>
<g id="clust1" class="cluster">
<title>cluster_SecurityModule</title>
<polygon fill="none" stroke="black" stroke-dasharray="1,5" points="34.5,-70 34.5,-268 461.5,-268 461.5,-70 34.5,-70"/>
</g>
<g id="clust2" class="cluster">
<title>cluster_SecurityModule_declarations</title>
<polygon fill="none" stroke="black" points="309.5,-78 309.5,-130 453.5,-130 453.5,-78 309.5,-78"/>
</g>
<g id="clust4" class="cluster">
<title>cluster_SecurityModule_imports</title>
<polygon fill="none" stroke="black" points="42.5,-78 42.5,-130 301.5,-130 301.5,-78 42.5,-78"/>
</g>
<g id="clust5" class="cluster">
<title>cluster_SecurityModule_exports</title>
<polygon fill="none" stroke="black" points="170.5,-208 170.5,-260 318.5,-260 318.5,-208 170.5,-208"/>
</g>
<!-- SecurityComponent -->
<g id="node1" class="node">
<title>SecurityComponent</title>
<polygon fill="#ffffb3" stroke="black" points="445.49,-122 317.51,-122 317.51,-86 445.49,-86 445.49,-122"/>
<text text-anchor="middle" x="381.5" y="-99.8" font-family="Times,serif" font-size="14.00">SecurityComponent</text>
</g>
<!-- SecurityModule -->
<g id="node2" class="node">
<title>SecurityModule</title>
<polygon fill="#8dd3c7" stroke="black" points="297.7,-187 294.7,-191 273.7,-191 270.7,-187 191.3,-187 191.3,-151 297.7,-151 297.7,-187"/>
<text text-anchor="middle" x="244.5" y="-164.8" font-family="Times,serif" font-size="14.00">SecurityModule</text>
</g>
<!-- SecurityComponent&#45;&gt;SecurityModule -->
<g id="edge1" class="edge">
<title>SecurityComponent&#45;&gt;SecurityModule</title>
<path fill="none" stroke="black" d="M381.5,-122.11C381.5,-141.34 381.5,-169 381.5,-169 381.5,-169 307.86,-169 307.86,-169"/>
<polygon fill="black" stroke="black" points="307.86,-165.5 297.86,-169 307.86,-172.5 307.86,-165.5"/>
</g>
<!-- SecurityComponent  -->
<g id="node5" class="node">
<title>SecurityComponent </title>
<polygon fill="#fb8072" stroke="black" points="310.49,-252 178.51,-252 178.51,-216 310.49,-216 310.49,-252"/>
<text text-anchor="middle" x="244.5" y="-229.8" font-family="Times,serif" font-size="14.00">SecurityComponent </text>
</g>
<!-- SecurityModule&#45;&gt;SecurityComponent  -->
<g id="edge4" class="edge">
<title>SecurityModule&#45;&gt;SecurityComponent </title>
<path fill="none" stroke="black" stroke-dasharray="5,2" d="M244.5,-187.11C244.5,-187.11 244.5,-205.99 244.5,-205.99"/>
<polygon fill="black" stroke="black" points="241,-205.99 244.5,-215.99 248,-205.99 241,-205.99"/>
</g>
<!-- ButtonModule -->
<g id="node3" class="node">
<title>ButtonModule</title>
<polygon fill="#8dd3c7" stroke="black" points="293.17,-122 290.17,-126 269.17,-126 266.17,-122 195.83,-122 195.83,-86 293.17,-86 293.17,-122"/>
<text text-anchor="middle" x="244.5" y="-99.8" font-family="Times,serif" font-size="14.00">ButtonModule</text>
</g>
<!-- ButtonModule&#45;&gt;SecurityModule -->
<g id="edge2" class="edge">
<title>ButtonModule&#45;&gt;SecurityModule</title>
<path fill="none" stroke="black" d="M244.5,-122.11C244.5,-122.11 244.5,-140.99 244.5,-140.99"/>
<polygon fill="black" stroke="black" points="241,-140.99 244.5,-150.99 248,-140.99 241,-140.99"/>
</g>
<!-- ModalWarnModule -->
<g id="node4" class="node">
<title>ModalWarnModule</title>
<polygon fill="#8dd3c7" stroke="black" points="178.19,-122 175.19,-126 154.19,-126 151.19,-122 50.81,-122 50.81,-86 178.19,-86 178.19,-122"/>
<text text-anchor="middle" x="114.5" y="-99.8" font-family="Times,serif" font-size="14.00">ModalWarnModule</text>
</g>
<!-- ModalWarnModule&#45;&gt;SecurityModule -->
<g id="edge3" class="edge">
<title>ModalWarnModule&#45;&gt;SecurityModule</title>
<path fill="none" stroke="black" d="M114.5,-122.11C114.5,-141.34 114.5,-169 114.5,-169 114.5,-169 181.25,-169 181.25,-169"/>
<polygon fill="black" stroke="black" points="181.25,-172.5 191.25,-169 181.25,-165.5 181.25,-172.5"/>
</g>
</g>
</svg>
