<?xml version="1.0" encoding="UTF-8" standalone="no"?>
<!DOCTYPE svg PUBLIC "-//W3C//DTD SVG 1.1//EN"
 "http://www.w3.org/Graphics/SVG/1.1/DTD/svg11.dtd">
<!-- Generated by graphviz version 2.47.0 (20210316.0004)
 -->
<!-- Title: dependencies Pages: 1 -->
<svg width="649pt" height="284pt"
 viewBox="0.00 0.00 649.00 284.00" xmlns="http://www.w3.org/2000/svg" xmlns:xlink="http://www.w3.org/1999/xlink">
<g id="graph0" class="graph" transform="scale(1 1) rotate(0) translate(4 280)">
<title>dependencies</title>
<polygon fill="white" stroke="transparent" points="-4,4 -4,-280 645,-280 645,4 -4,4"/>
<text text-anchor="start" x="299.51" y="-42.4" font-family="Times-12" font-weight="bold" font-size="14.00">Legend</text>
<polygon fill="#ffffb3" stroke="transparent" points="86.5,-10 86.5,-30 106.5,-30 106.5,-10 86.5,-10"/>
<text text-anchor="start" x="110.13" y="-15.4" font-family="Times-12" font-size="14.00"> &#160;Declarations</text>
<polygon fill="#8dd3c7" stroke="transparent" points="199.5,-10 199.5,-30 219.5,-30 219.5,-10 199.5,-10"/>
<text text-anchor="start" x="223.23" y="-15.4" font-family="Times-12" font-size="14.00"> &#160;Module</text>
<polygon fill="#80b1d3" stroke="transparent" points="285.5,-10 285.5,-30 305.5,-30 305.5,-10 285.5,-10"/>
<text text-anchor="start" x="309.28" y="-15.4" font-family="Times-12" font-size="14.00"> &#160;Bootstrap</text>
<polygon fill="#fdb462" stroke="transparent" points="382.5,-10 382.5,-30 402.5,-30 402.5,-10 382.5,-10"/>
<text text-anchor="start" x="406.17" y="-15.4" font-family="Times-12" font-size="14.00"> &#160;Providers</text>
<polygon fill="#fb8072" stroke="transparent" points="478.5,-10 478.5,-30 498.5,-30 498.5,-10 478.5,-10"/>
<text text-anchor="start" x="502.23" y="-15.4" font-family="Times-12" font-size="14.00"> &#160;Exports</text>
<g id="clust1" class="cluster">
<title>cluster_CardGroupModule</title>
<polygon fill="none" stroke="black" stroke-dasharray="1,5" points="8,-70 8,-268 633,-268 633,-70 8,-70"/>
</g>
<g id="clust5" class="cluster">
<title>cluster_CardGroupModule_exports</title>
<polygon fill="none" stroke="black" points="164,-208 164,-260 328,-260 328,-208 164,-208"/>
</g>
<g id="clust2" class="cluster">
<title>cluster_CardGroupModule_declarations</title>
<polygon fill="none" stroke="black" points="465,-78 465,-130 625,-130 625,-78 465,-78"/>
</g>
<g id="clust4" class="cluster">
<title>cluster_CardGroupModule_imports</title>
<polygon fill="none" stroke="black" points="16,-78 16,-130 457,-130 457,-78 16,-78"/>
</g>
<!-- CardGroupComponent -->
<g id="node1" class="node">
<title>CardGroupComponent</title>
<polygon fill="#ffffb3" stroke="black" points="617.31,-122 472.69,-122 472.69,-86 617.31,-86 617.31,-122"/>
<text text-anchor="middle" x="545" y="-99.8" font-family="Times,serif" font-size="14.00">CardGroupComponent</text>
</g>
<!-- CardGroupModule -->
<g id="node2" class="node">
<title>CardGroupModule</title>
<polygon fill="#8dd3c7" stroke="black" points="307.03,-187 304.03,-191 283.03,-191 280.03,-187 184.97,-187 184.97,-151 307.03,-151 307.03,-187"/>
<text text-anchor="middle" x="246" y="-164.8" font-family="Times,serif" font-size="14.00">CardGroupModule</text>
</g>
<!-- CardGroupComponent&#45;&gt;CardGroupModule -->
<g id="edge1" class="edge">
<title>CardGroupComponent&#45;&gt;CardGroupModule</title>
<path fill="none" stroke="black" d="M545,-122.28C545,-143.32 545,-175 545,-175 545,-175 317.23,-175 317.23,-175"/>
<polygon fill="black" stroke="black" points="317.23,-171.5 307.23,-175 317.23,-178.5 317.23,-171.5"/>
</g>
<!-- CardGroupComponent  -->
<g id="node6" class="node">
<title>CardGroupComponent </title>
<polygon fill="#fb8072" stroke="black" points="319.81,-252 172.19,-252 172.19,-216 319.81,-216 319.81,-252"/>
<text text-anchor="middle" x="246" y="-229.8" font-family="Times,serif" font-size="14.00">CardGroupComponent </text>
</g>
<!-- CardGroupModule&#45;&gt;CardGroupComponent  -->
<g id="edge6" class="edge">
<title>CardGroupModule&#45;&gt;CardGroupComponent </title>
<path fill="none" stroke="black" stroke-dasharray="5,2" d="M246,-187.11C246,-187.11 246,-205.99 246,-205.99"/>
<polygon fill="black" stroke="black" points="242.5,-205.99 246,-215.99 249.5,-205.99 242.5,-205.99"/>
</g>
<!-- CardUserModule -->
<g id="node3" class="node">
<title>CardUserModule</title>
<polygon fill="#8dd3c7" stroke="black" points="448.69,-122 445.69,-126 424.69,-126 421.69,-122 335.31,-122 335.31,-86 448.69,-86 448.69,-122"/>
<text text-anchor="middle" x="392" y="-99.8" font-family="Times,serif" font-size="14.00">CardUserModule</text>
</g>
<!-- CardUserModule&#45;&gt;CardGroupModule -->
<g id="edge2" class="edge">
<title>CardUserModule&#45;&gt;CardGroupModule</title>
<path fill="none" stroke="black" d="M392,-122.02C392,-139.37 392,-163 392,-163 392,-163 317.07,-163 317.07,-163"/>
<polygon fill="black" stroke="black" points="317.07,-159.5 307.07,-163 317.07,-166.5 317.07,-159.5"/>
</g>
<!-- ConfirmModalModule -->
<g id="node4" class="node">
<title>ConfirmModalModule</title>
<polygon fill="#8dd3c7" stroke="black" points="317.54,-122 314.54,-126 293.54,-126 290.54,-122 174.46,-122 174.46,-86 317.54,-86 317.54,-122"/>
<text text-anchor="middle" x="246" y="-99.8" font-family="Times,serif" font-size="14.00">ConfirmModalModule</text>
</g>
<!-- ConfirmModalModule&#45;&gt;CardGroupModule -->
<g id="edge3" class="edge">
<title>ConfirmModalModule&#45;&gt;CardGroupModule</title>
<path fill="none" stroke="black" d="M266.42,-122.11C266.42,-122.11 266.42,-140.99 266.42,-140.99"/>
<polygon fill="black" stroke="black" points="262.92,-140.99 266.42,-150.99 269.92,-140.99 262.92,-140.99"/>
</g>
<!-- ConfirmModalModule&#45;&gt;CardGroupModule -->
<g id="edge4" class="edge">
<title>ConfirmModalModule&#45;&gt;CardGroupModule</title>
<path fill="none" stroke="black" d="M225.58,-122.11C225.58,-122.11 225.58,-140.99 225.58,-140.99"/>
<polygon fill="black" stroke="black" points="222.08,-140.99 225.58,-150.99 229.08,-140.99 222.08,-140.99"/>
</g>
<!-- CreateGroupModule -->
<g id="node5" class="node">
<title>CreateGroupModule</title>
<polygon fill="#8dd3c7" stroke="black" points="155.85,-122 152.85,-126 131.85,-126 128.85,-122 24.15,-122 24.15,-86 155.85,-86 155.85,-122"/>
<text text-anchor="middle" x="90" y="-99.8" font-family="Times,serif" font-size="14.00">CreateGroupModule</text>
</g>
<!-- CreateGroupModule&#45;&gt;CardGroupModule -->
<g id="edge5" class="edge">
<title>CreateGroupModule&#45;&gt;CardGroupModule</title>
<path fill="none" stroke="black" d="M90,-122.11C90,-141.34 90,-169 90,-169 90,-169 174.79,-169 174.79,-169"/>
<polygon fill="black" stroke="black" points="174.79,-172.5 184.79,-169 174.79,-165.5 174.79,-172.5"/>
</g>
</g>
</svg>
