<?xml version="1.0" encoding="UTF-8" standalone="no"?>
<!DOCTYPE svg PUBLIC "-//W3C//DTD SVG 1.1//EN"
 "http://www.w3.org/Graphics/SVG/1.1/DTD/svg11.dtd">
<!-- Generated by graphviz version 2.47.0 (20210316.0004)
 -->
<!-- Title: dependencies Pages: 1 -->
<svg width="504pt" height="284pt"
 viewBox="0.00 0.00 504.00 284.00" xmlns="http://www.w3.org/2000/svg" xmlns:xlink="http://www.w3.org/1999/xlink">
<g id="graph0" class="graph" transform="scale(1 1) rotate(0) translate(4 280)">
<title>dependencies</title>
<polygon fill="white" stroke="transparent" points="-4,4 -4,-280 500,-280 500,4 -4,4"/>
<text text-anchor="start" x="227.01" y="-42.4" font-family="Times-12" font-weight="bold" font-size="14.00">Legend</text>
<polygon fill="#ffffb3" stroke="transparent" points="14,-10 14,-30 34,-30 34,-10 14,-10"/>
<text text-anchor="start" x="37.63" y="-15.4" font-family="Times-12" font-size="14.00"> &#160;Declarations</text>
<polygon fill="#8dd3c7" stroke="transparent" points="127,-10 127,-30 147,-30 147,-10 127,-10"/>
<text text-anchor="start" x="150.73" y="-15.4" font-family="Times-12" font-size="14.00"> &#160;Module</text>
<polygon fill="#80b1d3" stroke="transparent" points="213,-10 213,-30 233,-30 233,-10 213,-10"/>
<text text-anchor="start" x="236.78" y="-15.4" font-family="Times-12" font-size="14.00"> &#160;Bootstrap</text>
<polygon fill="#fdb462" stroke="transparent" points="310,-10 310,-30 330,-30 330,-10 310,-10"/>
<text text-anchor="start" x="333.67" y="-15.4" font-family="Times-12" font-size="14.00"> &#160;Providers</text>
<polygon fill="#fb8072" stroke="transparent" points="406,-10 406,-30 426,-30 426,-10 406,-10"/>
<text text-anchor="start" x="429.73" y="-15.4" font-family="Times-12" font-size="14.00"> &#160;Exports</text>
<g id="clust1" class="cluster">
<title>cluster_CardModule</title>
<polygon fill="none" stroke="black" stroke-dasharray="1,5" points="94,-70 94,-268 402,-268 402,-70 94,-70"/>
</g>
<g id="clust5" class="cluster">
<title>cluster_CardModule_exports</title>
<polygon fill="none" stroke="black" points="192,-208 192,-260 320,-260 320,-208 192,-208"/>
</g>
<g id="clust2" class="cluster">
<title>cluster_CardModule_declarations</title>
<polygon fill="none" stroke="black" points="270,-78 270,-130 394,-130 394,-78 270,-78"/>
</g>
<g id="clust4" class="cluster">
<title>cluster_CardModule_imports</title>
<polygon fill="none" stroke="black" points="102,-78 102,-130 262,-130 262,-78 102,-78"/>
</g>
<!-- CardComponent -->
<g id="node1" class="node">
<title>CardComponent</title>
<polygon fill="#ffffb3" stroke="black" points="386.05,-122 277.95,-122 277.95,-86 386.05,-86 386.05,-122"/>
<text text-anchor="middle" x="332" y="-99.8" font-family="Times,serif" font-size="14.00">CardComponent</text>
</g>
<!-- CardModule -->
<g id="node2" class="node">
<title>CardModule</title>
<polygon fill="#8dd3c7" stroke="black" points="299.26,-187 296.26,-191 275.26,-191 272.26,-187 212.74,-187 212.74,-151 299.26,-151 299.26,-187"/>
<text text-anchor="middle" x="256" y="-164.8" font-family="Times,serif" font-size="14.00">CardModule</text>
</g>
<!-- CardComponent&#45;&gt;CardModule -->
<g id="edge1" class="edge">
<title>CardComponent&#45;&gt;CardModule</title>
<path fill="none" stroke="black" d="M288.55,-122.11C288.55,-122.11 288.55,-140.99 288.55,-140.99"/>
<polygon fill="black" stroke="black" points="285.05,-140.99 288.55,-150.99 292.05,-140.99 285.05,-140.99"/>
</g>
<!-- CardComponent  -->
<g id="node4" class="node">
<title>CardComponent </title>
<polygon fill="#fb8072" stroke="black" points="312.04,-252 199.96,-252 199.96,-216 312.04,-216 312.04,-252"/>
<text text-anchor="middle" x="256" y="-229.8" font-family="Times,serif" font-size="14.00">CardComponent </text>
</g>
<!-- CardModule&#45;&gt;CardComponent  -->
<g id="edge3" class="edge">
<title>CardModule&#45;&gt;CardComponent </title>
<path fill="none" stroke="black" stroke-dasharray="5,2" d="M256,-187.11C256,-187.11 256,-205.99 256,-205.99"/>
<polygon fill="black" stroke="black" points="252.5,-205.99 256,-215.99 259.5,-205.99 252.5,-205.99"/>
</g>
<!-- ConfirmModalModule -->
<g id="node3" class="node">
<title>ConfirmModalModule</title>
<polygon fill="#8dd3c7" stroke="black" points="253.54,-122 250.54,-126 229.54,-126 226.54,-122 110.46,-122 110.46,-86 253.54,-86 253.54,-122"/>
<text text-anchor="middle" x="182" y="-99.8" font-family="Times,serif" font-size="14.00">ConfirmModalModule</text>
</g>
<!-- ConfirmModalModule&#45;&gt;CardModule -->
<g id="edge2" class="edge">
<title>ConfirmModalModule&#45;&gt;CardModule</title>
<path fill="none" stroke="black" d="M233.19,-122.11C233.19,-122.11 233.19,-140.99 233.19,-140.99"/>
<polygon fill="black" stroke="black" points="229.69,-140.99 233.19,-150.99 236.69,-140.99 229.69,-140.99"/>
</g>
</g>
</svg>
