<?xml version="1.0" encoding="UTF-8" standalone="no"?>
<!DOCTYPE svg PUBLIC "-//W3C//DTD SVG 1.1//EN"
 "http://www.w3.org/Graphics/SVG/1.1/DTD/svg11.dtd">
<!-- Generated by graphviz version 2.47.0 (20210316.0004)
 -->
<!-- Title: dependencies Pages: 1 -->
<svg width="504pt" height="284pt"
 viewBox="0.00 0.00 504.00 284.00" xmlns="http://www.w3.org/2000/svg" xmlns:xlink="http://www.w3.org/1999/xlink">
<g id="graph0" class="graph" transform="scale(1 1) rotate(0) translate(4 280)">
<title>dependencies</title>
<polygon fill="white" stroke="transparent" points="-4,4 -4,-280 500,-280 500,4 -4,4"/>
<text text-anchor="start" x="227.01" y="-42.4" font-family="Times-12" font-weight="bold" font-size="14.00">Legend</text>
<polygon fill="#ffffb3" stroke="transparent" points="14,-10 14,-30 34,-30 34,-10 14,-10"/>
<text text-anchor="start" x="37.63" y="-15.4" font-family="Times-12" font-size="14.00"> &#160;Declarations</text>
<polygon fill="#8dd3c7" stroke="transparent" points="127,-10 127,-30 147,-30 147,-10 127,-10"/>
<text text-anchor="start" x="150.73" y="-15.4" font-family="Times-12" font-size="14.00"> &#160;Module</text>
<polygon fill="#80b1d3" stroke="transparent" points="213,-10 213,-30 233,-30 233,-10 213,-10"/>
<text text-anchor="start" x="236.78" y="-15.4" font-family="Times-12" font-size="14.00"> &#160;Bootstrap</text>
<polygon fill="#fdb462" stroke="transparent" points="310,-10 310,-30 330,-30 330,-10 310,-10"/>
<text text-anchor="start" x="333.67" y="-15.4" font-family="Times-12" font-size="14.00"> &#160;Providers</text>
<polygon fill="#fb8072" stroke="transparent" points="406,-10 406,-30 426,-30 426,-10 406,-10"/>
<text text-anchor="start" x="429.73" y="-15.4" font-family="Times-12" font-size="14.00"> &#160;Exports</text>
<g id="clust1" class="cluster">
<title>cluster_LoginModule</title>
<polygon fill="none" stroke="black" stroke-dasharray="1,5" points="30,-70 30,-268 466,-268 466,-70 30,-70"/>
</g>
<g id="clust2" class="cluster">
<title>cluster_LoginModule_declarations</title>
<polygon fill="none" stroke="black" points="328,-78 328,-130 458,-130 458,-78 328,-78"/>
</g>
<g id="clust5" class="cluster">
<title>cluster_LoginModule_exports</title>
<polygon fill="none" stroke="black" points="196,-208 196,-260 330,-260 330,-208 196,-208"/>
</g>
<g id="clust4" class="cluster">
<title>cluster_LoginModule_imports</title>
<polygon fill="none" stroke="black" points="38,-78 38,-130 320,-130 320,-78 38,-78"/>
</g>
<!-- LoginComponent -->
<g id="node1" class="node">
<title>LoginComponent</title>
<polygon fill="#ffffb3" stroke="black" points="450.28,-122 335.72,-122 335.72,-86 450.28,-86 450.28,-122"/>
<text text-anchor="middle" x="393" y="-99.8" font-family="Times,serif" font-size="14.00">LoginComponent</text>
</g>
<!-- LoginModule -->
<g id="node2" class="node">
<title>LoginModule</title>
<polygon fill="#8dd3c7" stroke="black" points="309.49,-187 306.49,-191 285.49,-191 282.49,-187 216.51,-187 216.51,-151 309.49,-151 309.49,-187"/>
<text text-anchor="middle" x="263" y="-164.8" font-family="Times,serif" font-size="14.00">LoginModule</text>
</g>
<!-- LoginComponent&#45;&gt;LoginModule -->
<g id="edge1" class="edge">
<title>LoginComponent&#45;&gt;LoginModule</title>
<path fill="none" stroke="black" d="M393,-122.11C393,-141.34 393,-169 393,-169 393,-169 319.57,-169 319.57,-169"/>
<polygon fill="black" stroke="black" points="319.57,-165.5 309.57,-169 319.57,-172.5 319.57,-165.5"/>
</g>
<!-- LoginComponent  -->
<g id="node5" class="node">
<title>LoginComponent </title>
<polygon fill="#fb8072" stroke="black" points="322.28,-252 203.72,-252 203.72,-216 322.28,-216 322.28,-252"/>
<text text-anchor="middle" x="263" y="-229.8" font-family="Times,serif" font-size="14.00">LoginComponent </text>
</g>
<!-- LoginModule&#45;&gt;LoginComponent  -->
<g id="edge4" class="edge">
<title>LoginModule&#45;&gt;LoginComponent </title>
<path fill="none" stroke="black" stroke-dasharray="5,2" d="M263,-187.11C263,-187.11 263,-205.99 263,-205.99"/>
<polygon fill="black" stroke="black" points="259.5,-205.99 263,-215.99 266.5,-205.99 259.5,-205.99"/>
</g>
<!-- ButtonModule -->
<g id="node3" class="node">
<title>ButtonModule</title>
<polygon fill="#8dd3c7" stroke="black" points="311.67,-122 308.67,-126 287.67,-126 284.67,-122 214.33,-122 214.33,-86 311.67,-86 311.67,-122"/>
<text text-anchor="middle" x="263" y="-99.8" font-family="Times,serif" font-size="14.00">ButtonModule</text>
</g>
<!-- ButtonModule&#45;&gt;LoginModule -->
<g id="edge2" class="edge">
<title>ButtonModule&#45;&gt;LoginModule</title>
<path fill="none" stroke="black" d="M263,-122.11C263,-122.11 263,-140.99 263,-140.99"/>
<polygon fill="black" stroke="black" points="259.5,-140.99 263,-150.99 266.5,-140.99 259.5,-140.99"/>
</g>
<!-- ForgotPasswordModule -->
<g id="node4" class="node">
<title>ForgotPasswordModule</title>
<polygon fill="#8dd3c7" stroke="black" points="196.04,-122 193.04,-126 172.04,-126 169.04,-122 45.96,-122 45.96,-86 196.04,-86 196.04,-122"/>
<text text-anchor="middle" x="121" y="-99.8" font-family="Times,serif" font-size="14.00">ForgotPasswordModule</text>
</g>
<!-- ForgotPasswordModule&#45;&gt;LoginModule -->
<g id="edge3" class="edge">
<title>ForgotPasswordModule&#45;&gt;LoginModule</title>
<path fill="none" stroke="black" d="M121,-122.11C121,-141.34 121,-169 121,-169 121,-169 206.5,-169 206.5,-169"/>
<polygon fill="black" stroke="black" points="206.5,-172.5 216.5,-169 206.5,-165.5 206.5,-172.5"/>
</g>
</g>
</svg>
