<?xml version="1.0" encoding="UTF-8" standalone="no"?>
<!DOCTYPE svg PUBLIC "-//W3C//DTD SVG 1.1//EN"
 "http://www.w3.org/Graphics/SVG/1.1/DTD/svg11.dtd">
<!-- Generated by graphviz version 2.47.0 (20210316.0004)
 -->
<!-- Title: dependencies Pages: 1 -->
<svg width="504pt" height="284pt"
 viewBox="0.00 0.00 504.00 284.00" xmlns="http://www.w3.org/2000/svg" xmlns:xlink="http://www.w3.org/1999/xlink">
<g id="graph0" class="graph" transform="scale(1 1) rotate(0) translate(4 280)">
<title>dependencies</title>
<polygon fill="white" stroke="transparent" points="-4,4 -4,-280 500,-280 500,4 -4,4"/>
<text text-anchor="start" x="227.01" y="-42.4" font-family="Times-12" font-weight="bold" font-size="14.00">Legend</text>
<polygon fill="#ffffb3" stroke="transparent" points="14,-10 14,-30 34,-30 34,-10 14,-10"/>
<text text-anchor="start" x="37.63" y="-15.4" font-family="Times-12" font-size="14.00"> &#160;Declarations</text>
<polygon fill="#8dd3c7" stroke="transparent" points="127,-10 127,-30 147,-30 147,-10 127,-10"/>
<text text-anchor="start" x="150.73" y="-15.4" font-family="Times-12" font-size="14.00"> &#160;Module</text>
<polygon fill="#80b1d3" stroke="transparent" points="213,-10 213,-30 233,-30 233,-10 213,-10"/>
<text text-anchor="start" x="236.78" y="-15.4" font-family="Times-12" font-size="14.00"> &#160;Bootstrap</text>
<polygon fill="#fdb462" stroke="transparent" points="310,-10 310,-30 330,-30 330,-10 310,-10"/>
<text text-anchor="start" x="333.67" y="-15.4" font-family="Times-12" font-size="14.00"> &#160;Providers</text>
<polygon fill="#fb8072" stroke="transparent" points="406,-10 406,-30 426,-30 426,-10 406,-10"/>
<text text-anchor="start" x="429.73" y="-15.4" font-family="Times-12" font-size="14.00"> &#160;Exports</text>
<g id="clust1" class="cluster">
<title>cluster_CardUserModule</title>
<polygon fill="none" stroke="black" stroke-dasharray="1,5" points="32,-70 32,-268 464,-268 464,-70 32,-70"/>
</g>
<g id="clust4" class="cluster">
<title>cluster_CardUserModule_imports</title>
<polygon fill="none" stroke="black" points="198,-78 198,-130 456,-130 456,-78 198,-78"/>
</g>
<g id="clust5" class="cluster">
<title>cluster_CardUserModule_exports</title>
<polygon fill="none" stroke="black" points="169,-208 169,-260 323,-260 323,-208 169,-208"/>
</g>
<g id="clust2" class="cluster">
<title>cluster_CardUserModule_declarations</title>
<polygon fill="none" stroke="black" points="40,-78 40,-130 190,-130 190,-78 40,-78"/>
</g>
<!-- CardUserComponent -->
<g id="node1" class="node">
<title>CardUserComponent</title>
<polygon fill="#ffffb3" stroke="black" points="182.47,-122 47.53,-122 47.53,-86 182.47,-86 182.47,-122"/>
<text text-anchor="middle" x="115" y="-99.8" font-family="Times,serif" font-size="14.00">CardUserComponent</text>
</g>
<!-- CardUserModule -->
<g id="node2" class="node">
<title>CardUserModule</title>
<polygon fill="#8dd3c7" stroke="black" points="302.69,-187 299.69,-191 278.69,-191 275.69,-187 189.31,-187 189.31,-151 302.69,-151 302.69,-187"/>
<text text-anchor="middle" x="246" y="-164.8" font-family="Times,serif" font-size="14.00">CardUserModule</text>
</g>
<!-- CardUserComponent&#45;&gt;CardUserModule -->
<g id="edge1" class="edge">
<title>CardUserComponent&#45;&gt;CardUserModule</title>
<path fill="none" stroke="black" d="M182.81,-104C191.57,-104 197.57,-104 197.57,-104 197.57,-104 197.57,-140.89 197.57,-140.89"/>
<polygon fill="black" stroke="black" points="194.07,-140.89 197.57,-150.89 201.07,-140.89 194.07,-140.89"/>
</g>
<!-- CardUserComponent  -->
<g id="node5" class="node">
<title>CardUserComponent </title>
<polygon fill="#fb8072" stroke="black" points="315.47,-252 176.53,-252 176.53,-216 315.47,-216 315.47,-252"/>
<text text-anchor="middle" x="246" y="-229.8" font-family="Times,serif" font-size="14.00">CardUserComponent </text>
</g>
<!-- CardUserModule&#45;&gt;CardUserComponent  -->
<g id="edge4" class="edge">
<title>CardUserModule&#45;&gt;CardUserComponent </title>
<path fill="none" stroke="black" stroke-dasharray="5,2" d="M246,-187.11C246,-187.11 246,-205.99 246,-205.99"/>
<polygon fill="black" stroke="black" points="242.5,-205.99 246,-215.99 249.5,-205.99 242.5,-205.99"/>
</g>
<!-- ConfirmModalModule -->
<g id="node3" class="node">
<title>ConfirmModalModule</title>
<polygon fill="#8dd3c7" stroke="black" points="447.54,-122 444.54,-126 423.54,-126 420.54,-122 304.46,-122 304.46,-86 447.54,-86 447.54,-122"/>
<text text-anchor="middle" x="376" y="-99.8" font-family="Times,serif" font-size="14.00">ConfirmModalModule</text>
</g>
<!-- ConfirmModalModule&#45;&gt;CardUserModule -->
<g id="edge2" class="edge">
<title>ConfirmModalModule&#45;&gt;CardUserModule</title>
<path fill="none" stroke="black" d="M309.73,-122.11C309.73,-141.34 309.73,-169 309.73,-169 309.73,-169 309.05,-169 309.05,-169"/>
<polygon fill="black" stroke="black" points="312.91,-165.5 302.91,-169 312.91,-172.5 312.91,-165.5"/>
</g>
<!-- RouterLink -->
<g id="node4" class="node">
<title>RouterLink</title>
<polygon fill="#8dd3c7" stroke="black" points="286.05,-122 283.05,-126 262.05,-126 259.05,-122 205.95,-122 205.95,-86 286.05,-86 286.05,-122"/>
<text text-anchor="middle" x="246" y="-99.8" font-family="Times,serif" font-size="14.00">RouterLink</text>
</g>
<!-- RouterLink&#45;&gt;CardUserModule -->
<g id="edge3" class="edge">
<title>RouterLink&#45;&gt;CardUserModule</title>
<path fill="none" stroke="black" d="M246,-122.11C246,-122.11 246,-140.99 246,-140.99"/>
<polygon fill="black" stroke="black" points="242.5,-140.99 246,-150.99 249.5,-140.99 242.5,-140.99"/>
</g>
</g>
</svg>
