<?xml version="1.0" encoding="UTF-8" standalone="no"?>
<!DOCTYPE svg PUBLIC "-//W3C//DTD SVG 1.1//EN"
 "http://www.w3.org/Graphics/SVG/1.1/DTD/svg11.dtd">
<!-- Generated by graphviz version 2.47.0 (20210316.0004)
 -->
<!-- Title: dependencies Pages: 1 -->
<svg width="504pt" height="284pt"
 viewBox="0.00 0.00 504.00 284.00" xmlns="http://www.w3.org/2000/svg" xmlns:xlink="http://www.w3.org/1999/xlink">
<g id="graph0" class="graph" transform="scale(1 1) rotate(0) translate(4 280)">
<title>dependencies</title>
<polygon fill="white" stroke="transparent" points="-4,4 -4,-280 500,-280 500,4 -4,4"/>
<text text-anchor="start" x="227.01" y="-42.4" font-family="Times-12" font-weight="bold" font-size="14.00">Legend</text>
<polygon fill="#ffffb3" stroke="transparent" points="14,-10 14,-30 34,-30 34,-10 14,-10"/>
<text text-anchor="start" x="37.63" y="-15.4" font-family="Times-12" font-size="14.00"> &#160;Declarations</text>
<polygon fill="#8dd3c7" stroke="transparent" points="127,-10 127,-30 147,-30 147,-10 127,-10"/>
<text text-anchor="start" x="150.73" y="-15.4" font-family="Times-12" font-size="14.00"> &#160;Module</text>
<polygon fill="#80b1d3" stroke="transparent" points="213,-10 213,-30 233,-30 233,-10 213,-10"/>
<text text-anchor="start" x="236.78" y="-15.4" font-family="Times-12" font-size="14.00"> &#160;Bootstrap</text>
<polygon fill="#fdb462" stroke="transparent" points="310,-10 310,-30 330,-30 330,-10 310,-10"/>
<text text-anchor="start" x="333.67" y="-15.4" font-family="Times-12" font-size="14.00"> &#160;Providers</text>
<polygon fill="#fb8072" stroke="transparent" points="406,-10 406,-30 426,-30 426,-10 406,-10"/>
<text text-anchor="start" x="429.73" y="-15.4" font-family="Times-12" font-size="14.00"> &#160;Exports</text>
<g id="clust1" class="cluster">
<title>cluster_MinichatModule</title>
<polygon fill="none" stroke="black" stroke-dasharray="1,5" points="109,-70 109,-268 387,-268 387,-70 109,-70"/>
</g>
<g id="clust2" class="cluster">
<title>cluster_MinichatModule_declarations</title>
<polygon fill="none" stroke="black" points="231,-78 231,-130 379,-130 379,-78 231,-78"/>
</g>
<g id="clust5" class="cluster">
<title>cluster_MinichatModule_exports</title>
<polygon fill="none" stroke="black" points="172,-208 172,-260 324,-260 324,-208 172,-208"/>
</g>
<g id="clust4" class="cluster">
<title>cluster_MinichatModule_imports</title>
<polygon fill="none" stroke="black" points="117,-78 117,-130 223,-130 223,-78 117,-78"/>
</g>
<!-- MinichatComponent -->
<g id="node1" class="node">
<title>MinichatComponent</title>
<polygon fill="#ffffb3" stroke="black" points="370.88,-122 239.12,-122 239.12,-86 370.88,-86 370.88,-122"/>
<text text-anchor="middle" x="305" y="-99.8" font-family="Times,serif" font-size="14.00">MinichatComponent</text>
</g>
<!-- MinichatModule -->
<g id="node2" class="node">
<title>MinichatModule</title>
<polygon fill="#8dd3c7" stroke="black" points="303.1,-187 300.1,-191 279.1,-191 276.1,-187 192.9,-187 192.9,-151 303.1,-151 303.1,-187"/>
<text text-anchor="middle" x="248" y="-164.8" font-family="Times,serif" font-size="14.00">MinichatModule</text>
</g>
<!-- MinichatComponent&#45;&gt;MinichatModule -->
<g id="edge1" class="edge">
<title>MinichatComponent&#45;&gt;MinichatModule</title>
<path fill="none" stroke="black" d="M271.05,-122.11C271.05,-122.11 271.05,-140.99 271.05,-140.99"/>
<polygon fill="black" stroke="black" points="267.55,-140.99 271.05,-150.99 274.55,-140.99 267.55,-140.99"/>
</g>
<!-- MinichatComponent  -->
<g id="node4" class="node">
<title>MinichatComponent </title>
<polygon fill="#fb8072" stroke="black" points="315.88,-252 180.12,-252 180.12,-216 315.88,-216 315.88,-252"/>
<text text-anchor="middle" x="248" y="-229.8" font-family="Times,serif" font-size="14.00">MinichatComponent </text>
</g>
<!-- MinichatModule&#45;&gt;MinichatComponent  -->
<g id="edge3" class="edge">
<title>MinichatModule&#45;&gt;MinichatComponent </title>
<path fill="none" stroke="black" stroke-dasharray="5,2" d="M248,-187.11C248,-187.11 248,-205.99 248,-205.99"/>
<polygon fill="black" stroke="black" points="244.5,-205.99 248,-215.99 251.5,-205.99 244.5,-205.99"/>
</g>
<!-- InputModule -->
<g id="node3" class="node">
<title>InputModule</title>
<polygon fill="#8dd3c7" stroke="black" points="214.6,-122 211.6,-126 190.6,-126 187.6,-122 125.4,-122 125.4,-86 214.6,-86 214.6,-122"/>
<text text-anchor="middle" x="170" y="-99.8" font-family="Times,serif" font-size="14.00">InputModule</text>
</g>
<!-- InputModule&#45;&gt;MinichatModule -->
<g id="edge2" class="edge">
<title>InputModule&#45;&gt;MinichatModule</title>
<path fill="none" stroke="black" d="M203.75,-122.11C203.75,-122.11 203.75,-140.99 203.75,-140.99"/>
<polygon fill="black" stroke="black" points="200.25,-140.99 203.75,-150.99 207.25,-140.99 200.25,-140.99"/>
</g>
</g>
</svg>
