<?xml version="1.0" encoding="UTF-8" standalone="no"?>
<!DOCTYPE svg PUBLIC "-//W3C//DTD SVG 1.1//EN"
 "http://www.w3.org/Graphics/SVG/1.1/DTD/svg11.dtd">
<!-- Generated by graphviz version 2.47.0 (20210316.0004)
 -->
<!-- Title: dependencies Pages: 1 -->
<svg width="504pt" height="284pt"
 viewBox="0.00 0.00 504.00 284.00" xmlns="http://www.w3.org/2000/svg" xmlns:xlink="http://www.w3.org/1999/xlink">
<g id="graph0" class="graph" transform="scale(1 1) rotate(0) translate(4 280)">
<title>dependencies</title>
<polygon fill="white" stroke="transparent" points="-4,4 -4,-280 500,-280 500,4 -4,4"/>
<text text-anchor="start" x="227.01" y="-42.4" font-family="Times-12" font-weight="bold" font-size="14.00">Legend</text>
<polygon fill="#ffffb3" stroke="transparent" points="14,-10 14,-30 34,-30 34,-10 14,-10"/>
<text text-anchor="start" x="37.63" y="-15.4" font-family="Times-12" font-size="14.00"> &#160;Declarations</text>
<polygon fill="#8dd3c7" stroke="transparent" points="127,-10 127,-30 147,-30 147,-10 127,-10"/>
<text text-anchor="start" x="150.73" y="-15.4" font-family="Times-12" font-size="14.00"> &#160;Module</text>
<polygon fill="#80b1d3" stroke="transparent" points="213,-10 213,-30 233,-30 233,-10 213,-10"/>
<text text-anchor="start" x="236.78" y="-15.4" font-family="Times-12" font-size="14.00"> &#160;Bootstrap</text>
<polygon fill="#fdb462" stroke="transparent" points="310,-10 310,-30 330,-30 330,-10 310,-10"/>
<text text-anchor="start" x="333.67" y="-15.4" font-family="Times-12" font-size="14.00"> &#160;Providers</text>
<polygon fill="#fb8072" stroke="transparent" points="406,-10 406,-30 426,-30 426,-10 406,-10"/>
<text text-anchor="start" x="429.73" y="-15.4" font-family="Times-12" font-size="14.00"> &#160;Exports</text>
<g id="clust1" class="cluster">
<title>cluster_EditPropertiesModule</title>
<polygon fill="none" stroke="black" stroke-dasharray="1,5" points="68,-70 68,-268 428,-268 428,-70 68,-70"/>
</g>
<g id="clust4" class="cluster">
<title>cluster_EditPropertiesModule_imports</title>
<polygon fill="none" stroke="black" points="262,-78 262,-130 420,-130 420,-78 262,-78"/>
</g>
<g id="clust5" class="cluster">
<title>cluster_EditPropertiesModule_exports</title>
<polygon fill="none" stroke="black" points="158,-208 158,-260 338,-260 338,-208 158,-208"/>
</g>
<g id="clust2" class="cluster">
<title>cluster_EditPropertiesModule_declarations</title>
<polygon fill="none" stroke="black" points="76,-78 76,-130 254,-130 254,-78 76,-78"/>
</g>
<!-- EditPropertiesComponent -->
<g id="node1" class="node">
<title>EditPropertiesComponent</title>
<polygon fill="#ffffb3" stroke="black" points="245.93,-122 84.07,-122 84.07,-86 245.93,-86 245.93,-122"/>
<text text-anchor="middle" x="165" y="-99.8" font-family="Times,serif" font-size="14.00">EditPropertiesComponent</text>
</g>
<!-- EditPropertiesModule -->
<g id="node2" class="node">
<title>EditPropertiesModule</title>
<polygon fill="#8dd3c7" stroke="black" points="317.64,-187 314.64,-191 293.64,-191 290.64,-187 178.36,-187 178.36,-151 317.64,-151 317.64,-187"/>
<text text-anchor="middle" x="248" y="-164.8" font-family="Times,serif" font-size="14.00">EditPropertiesModule</text>
</g>
<!-- EditPropertiesComponent&#45;&gt;EditPropertiesModule -->
<g id="edge1" class="edge">
<title>EditPropertiesComponent&#45;&gt;EditPropertiesModule</title>
<path fill="none" stroke="black" d="M211.95,-122.11C211.95,-122.11 211.95,-140.99 211.95,-140.99"/>
<polygon fill="black" stroke="black" points="208.45,-140.99 211.95,-150.99 215.45,-140.99 208.45,-140.99"/>
</g>
<!-- EditPropertiesComponent  -->
<g id="node4" class="node">
<title>EditPropertiesComponent </title>
<polygon fill="#fb8072" stroke="black" points="330.43,-252 165.57,-252 165.57,-216 330.43,-216 330.43,-252"/>
<text text-anchor="middle" x="248" y="-229.8" font-family="Times,serif" font-size="14.00">EditPropertiesComponent </text>
</g>
<!-- EditPropertiesModule&#45;&gt;EditPropertiesComponent  -->
<g id="edge3" class="edge">
<title>EditPropertiesModule&#45;&gt;EditPropertiesComponent </title>
<path fill="none" stroke="black" stroke-dasharray="5,2" d="M248,-187.11C248,-187.11 248,-205.99 248,-205.99"/>
<polygon fill="black" stroke="black" points="244.5,-205.99 248,-215.99 251.5,-205.99 244.5,-205.99"/>
</g>
<!-- ItemsSelectionModule -->
<g id="node3" class="node">
<title>ItemsSelectionModule</title>
<polygon fill="#8dd3c7" stroke="black" points="412.25,-122 409.25,-126 388.25,-126 385.25,-122 269.75,-122 269.75,-86 412.25,-86 412.25,-122"/>
<text text-anchor="middle" x="341" y="-99.8" font-family="Times,serif" font-size="14.00">ItemsSelectionModule</text>
</g>
<!-- ItemsSelectionModule&#45;&gt;EditPropertiesModule -->
<g id="edge2" class="edge">
<title>ItemsSelectionModule&#45;&gt;EditPropertiesModule</title>
<path fill="none" stroke="black" d="M293.72,-122.11C293.72,-122.11 293.72,-140.99 293.72,-140.99"/>
<polygon fill="black" stroke="black" points="290.22,-140.99 293.72,-150.99 297.22,-140.99 290.22,-140.99"/>
</g>
</g>
</svg>
