<?xml version="1.0" encoding="UTF-8" standalone="no"?>
<!DOCTYPE svg PUBLIC "-//W3C//DTD SVG 1.1//EN"
 "http://www.w3.org/Graphics/SVG/1.1/DTD/svg11.dtd">
<!-- Generated by graphviz version 2.47.0 (20210316.0004)
 -->
<!-- Title: dependencies Pages: 1 -->
<svg width="608pt" height="284pt"
 viewBox="0.00 0.00 608.00 284.00" xmlns="http://www.w3.org/2000/svg" xmlns:xlink="http://www.w3.org/1999/xlink">
<g id="graph0" class="graph" transform="scale(1 1) rotate(0) translate(4 280)">
<title>dependencies</title>
<polygon fill="white" stroke="transparent" points="-4,4 -4,-280 604,-280 604,4 -4,4"/>
<text text-anchor="start" x="279.01" y="-42.4" font-family="Times-12" font-weight="bold" font-size="14.00">Legend</text>
<polygon fill="#ffffb3" stroke="transparent" points="66,-10 66,-30 86,-30 86,-10 66,-10"/>
<text text-anchor="start" x="89.63" y="-15.4" font-family="Times-12" font-size="14.00"> &#160;Declarations</text>
<polygon fill="#8dd3c7" stroke="transparent" points="179,-10 179,-30 199,-30 199,-10 179,-10"/>
<text text-anchor="start" x="202.73" y="-15.4" font-family="Times-12" font-size="14.00"> &#160;Module</text>
<polygon fill="#80b1d3" stroke="transparent" points="265,-10 265,-30 285,-30 285,-10 265,-10"/>
<text text-anchor="start" x="288.78" y="-15.4" font-family="Times-12" font-size="14.00"> &#160;Bootstrap</text>
<polygon fill="#fdb462" stroke="transparent" points="362,-10 362,-30 382,-30 382,-10 362,-10"/>
<text text-anchor="start" x="385.67" y="-15.4" font-family="Times-12" font-size="14.00"> &#160;Providers</text>
<polygon fill="#fb8072" stroke="transparent" points="458,-10 458,-30 478,-30 478,-10 458,-10"/>
<text text-anchor="start" x="481.73" y="-15.4" font-family="Times-12" font-size="14.00"> &#160;Exports</text>
<g id="clust1" class="cluster">
<title>cluster_CreateGroupModule</title>
<polygon fill="none" stroke="black" stroke-dasharray="1,5" points="8,-70 8,-268 592,-268 592,-70 8,-70"/>
</g>
<g id="clust5" class="cluster">
<title>cluster_CreateGroupModule_exports</title>
<polygon fill="none" stroke="black" points="200,-208 200,-260 374,-260 374,-208 200,-208"/>
</g>
<g id="clust2" class="cluster">
<title>cluster_CreateGroupModule_declarations</title>
<polygon fill="none" stroke="black" points="414,-78 414,-130 584,-130 584,-78 414,-78"/>
</g>
<g id="clust4" class="cluster">
<title>cluster_CreateGroupModule_imports</title>
<polygon fill="none" stroke="black" points="16,-78 16,-130 406,-130 406,-78 16,-78"/>
</g>
<!-- CreateGroupComponent -->
<g id="node1" class="node">
<title>CreateGroupComponent</title>
<polygon fill="#ffffb3" stroke="black" points="575.63,-122 422.37,-122 422.37,-86 575.63,-86 575.63,-122"/>
<text text-anchor="middle" x="499" y="-99.8" font-family="Times,serif" font-size="14.00">CreateGroupComponent</text>
</g>
<!-- CreateGroupModule -->
<g id="node2" class="node">
<title>CreateGroupModule</title>
<polygon fill="#8dd3c7" stroke="black" points="352.85,-187 349.85,-191 328.85,-191 325.85,-187 221.15,-187 221.15,-151 352.85,-151 352.85,-187"/>
<text text-anchor="middle" x="287" y="-164.8" font-family="Times,serif" font-size="14.00">CreateGroupModule</text>
</g>
<!-- CreateGroupComponent&#45;&gt;CreateGroupModule -->
<g id="edge1" class="edge">
<title>CreateGroupComponent&#45;&gt;CreateGroupModule</title>
<path fill="none" stroke="black" d="M499,-122.11C499,-141.34 499,-169 499,-169 499,-169 362.92,-169 362.92,-169"/>
<polygon fill="black" stroke="black" points="362.92,-165.5 352.92,-169 362.92,-172.5 362.92,-165.5"/>
</g>
<!-- CreateGroupComponent  -->
<g id="node6" class="node">
<title>CreateGroupComponent </title>
<polygon fill="#fb8072" stroke="black" points="365.63,-252 208.37,-252 208.37,-216 365.63,-216 365.63,-252"/>
<text text-anchor="middle" x="287" y="-229.8" font-family="Times,serif" font-size="14.00">CreateGroupComponent </text>
</g>
<!-- CreateGroupModule&#45;&gt;CreateGroupComponent  -->
<g id="edge5" class="edge">
<title>CreateGroupModule&#45;&gt;CreateGroupComponent </title>
<path fill="none" stroke="black" stroke-dasharray="5,2" d="M287,-187.11C287,-187.11 287,-205.99 287,-205.99"/>
<polygon fill="black" stroke="black" points="283.5,-205.99 287,-215.99 290.5,-205.99 283.5,-205.99"/>
</g>
<!-- ButtonModule -->
<g id="node3" class="node">
<title>ButtonModule</title>
<polygon fill="#8dd3c7" stroke="black" points="397.67,-122 394.67,-126 373.67,-126 370.67,-122 300.33,-122 300.33,-86 397.67,-86 397.67,-122"/>
<text text-anchor="middle" x="349" y="-99.8" font-family="Times,serif" font-size="14.00">ButtonModule</text>
</g>
<!-- ButtonModule&#45;&gt;CreateGroupModule -->
<g id="edge2" class="edge">
<title>ButtonModule&#45;&gt;CreateGroupModule</title>
<path fill="none" stroke="black" d="M326.55,-122.11C326.55,-122.11 326.55,-140.99 326.55,-140.99"/>
<polygon fill="black" stroke="black" points="323.05,-140.99 326.55,-150.99 330.05,-140.99 323.05,-140.99"/>
</g>
<!-- CardUserModule -->
<g id="node4" class="node">
<title>CardUserModule</title>
<polygon fill="#8dd3c7" stroke="black" points="282.69,-122 279.69,-126 258.69,-126 255.69,-122 169.31,-122 169.31,-86 282.69,-86 282.69,-122"/>
<text text-anchor="middle" x="226" y="-99.8" font-family="Times,serif" font-size="14.00">CardUserModule</text>
</g>
<!-- CardUserModule&#45;&gt;CreateGroupModule -->
<g id="edge3" class="edge">
<title>CardUserModule&#45;&gt;CreateGroupModule</title>
<path fill="none" stroke="black" d="M251.83,-122.11C251.83,-122.11 251.83,-140.99 251.83,-140.99"/>
<polygon fill="black" stroke="black" points="248.33,-140.99 251.83,-150.99 255.33,-140.99 248.33,-140.99"/>
</g>
<!-- ModalWarnModule -->
<g id="node5" class="node">
<title>ModalWarnModule</title>
<polygon fill="#8dd3c7" stroke="black" points="151.69,-122 148.69,-126 127.69,-126 124.69,-122 24.31,-122 24.31,-86 151.69,-86 151.69,-122"/>
<text text-anchor="middle" x="88" y="-99.8" font-family="Times,serif" font-size="14.00">ModalWarnModule</text>
</g>
<!-- ModalWarnModule&#45;&gt;CreateGroupModule -->
<g id="edge4" class="edge">
<title>ModalWarnModule&#45;&gt;CreateGroupModule</title>
<path fill="none" stroke="black" d="M88,-122.11C88,-141.34 88,-169 88,-169 88,-169 211.01,-169 211.01,-169"/>
<polygon fill="black" stroke="black" points="211.01,-172.5 221.01,-169 211.01,-165.5 211.01,-172.5"/>
</g>
</g>
</svg>
