<?xml version="1.0" encoding="UTF-8" standalone="no"?>
<!DOCTYPE svg PUBLIC "-//W3C//DTD SVG 1.1//EN"
 "http://www.w3.org/Graphics/SVG/1.1/DTD/svg11.dtd">
<!-- Generated by graphviz version 2.47.0 (20210316.0004)
 -->
<!-- Title: dependencies Pages: 1 -->
<svg width="504pt" height="284pt"
 viewBox="0.00 0.00 504.00 284.00" xmlns="http://www.w3.org/2000/svg" xmlns:xlink="http://www.w3.org/1999/xlink">
<g id="graph0" class="graph" transform="scale(1 1) rotate(0) translate(4 280)">
<title>dependencies</title>
<polygon fill="white" stroke="transparent" points="-4,4 -4,-280 500,-280 500,4 -4,4"/>
<text text-anchor="start" x="227.01" y="-42.4" font-family="Times-12" font-weight="bold" font-size="14.00">Legend</text>
<polygon fill="#ffffb3" stroke="transparent" points="14,-10 14,-30 34,-30 34,-10 14,-10"/>
<text text-anchor="start" x="37.63" y="-15.4" font-family="Times-12" font-size="14.00"> &#160;Declarations</text>
<polygon fill="#8dd3c7" stroke="transparent" points="127,-10 127,-30 147,-30 147,-10 127,-10"/>
<text text-anchor="start" x="150.73" y="-15.4" font-family="Times-12" font-size="14.00"> &#160;Module</text>
<polygon fill="#80b1d3" stroke="transparent" points="213,-10 213,-30 233,-30 233,-10 213,-10"/>
<text text-anchor="start" x="236.78" y="-15.4" font-family="Times-12" font-size="14.00"> &#160;Bootstrap</text>
<polygon fill="#fdb462" stroke="transparent" points="310,-10 310,-30 330,-30 330,-10 310,-10"/>
<text text-anchor="start" x="333.67" y="-15.4" font-family="Times-12" font-size="14.00"> &#160;Providers</text>
<polygon fill="#fb8072" stroke="transparent" points="406,-10 406,-30 426,-30 426,-10 406,-10"/>
<text text-anchor="start" x="429.73" y="-15.4" font-family="Times-12" font-size="14.00"> &#160;Exports</text>
<g id="clust1" class="cluster">
<title>cluster_GeneralPropertiesModule</title>
<polygon fill="none" stroke="black" stroke-dasharray="1,5" points="57,-70 57,-268 439,-268 439,-70 57,-70"/>
</g>
<g id="clust2" class="cluster">
<title>cluster_GeneralPropertiesModule_declarations</title>
<polygon fill="none" stroke="black" points="233,-78 233,-130 431,-130 431,-78 233,-78"/>
</g>
<g id="clust5" class="cluster">
<title>cluster_GeneralPropertiesModule_exports</title>
<polygon fill="none" stroke="black" points="147,-208 147,-260 349,-260 349,-208 147,-208"/>
</g>
<g id="clust4" class="cluster">
<title>cluster_GeneralPropertiesModule_imports</title>
<polygon fill="none" stroke="black" points="65,-78 65,-130 225,-130 225,-78 65,-78"/>
</g>
<!-- GeneralPropertiesComponent -->
<g id="node1" class="node">
<title>GeneralPropertiesComponent</title>
<polygon fill="#ffffb3" stroke="black" points="423.39,-122 240.61,-122 240.61,-86 423.39,-86 423.39,-122"/>
<text text-anchor="middle" x="332" y="-99.8" font-family="Times,serif" font-size="14.00">GeneralPropertiesComponent</text>
</g>
<!-- GeneralPropertiesModule -->
<g id="node2" class="node">
<title>GeneralPropertiesModule</title>
<polygon fill="#8dd3c7" stroke="black" points="328.11,-187 325.11,-191 304.11,-191 301.11,-187 167.89,-187 167.89,-151 328.11,-151 328.11,-187"/>
<text text-anchor="middle" x="248" y="-164.8" font-family="Times,serif" font-size="14.00">GeneralPropertiesModule</text>
</g>
<!-- GeneralPropertiesComponent&#45;&gt;GeneralPropertiesModule -->
<g id="edge1" class="edge">
<title>GeneralPropertiesComponent&#45;&gt;GeneralPropertiesModule</title>
<path fill="none" stroke="black" d="M284.55,-122.11C284.55,-122.11 284.55,-140.99 284.55,-140.99"/>
<polygon fill="black" stroke="black" points="281.05,-140.99 284.55,-150.99 288.05,-140.99 281.05,-140.99"/>
</g>
<!-- GeneralPropertiesComponent  -->
<g id="node4" class="node">
<title>GeneralPropertiesComponent </title>
<polygon fill="#fb8072" stroke="black" points="340.89,-252 155.11,-252 155.11,-216 340.89,-216 340.89,-252"/>
<text text-anchor="middle" x="248" y="-229.8" font-family="Times,serif" font-size="14.00">GeneralPropertiesComponent </text>
</g>
<!-- GeneralPropertiesModule&#45;&gt;GeneralPropertiesComponent  -->
<g id="edge3" class="edge">
<title>GeneralPropertiesModule&#45;&gt;GeneralPropertiesComponent </title>
<path fill="none" stroke="black" stroke-dasharray="5,2" d="M248,-187.11C248,-187.11 248,-205.99 248,-205.99"/>
<polygon fill="black" stroke="black" points="244.5,-205.99 248,-215.99 251.5,-205.99 244.5,-205.99"/>
</g>
<!-- ConfirmModalModule -->
<g id="node3" class="node">
<title>ConfirmModalModule</title>
<polygon fill="#8dd3c7" stroke="black" points="216.54,-122 213.54,-126 192.54,-126 189.54,-122 73.46,-122 73.46,-86 216.54,-86 216.54,-122"/>
<text text-anchor="middle" x="145" y="-99.8" font-family="Times,serif" font-size="14.00">ConfirmModalModule</text>
</g>
<!-- ConfirmModalModule&#45;&gt;GeneralPropertiesModule -->
<g id="edge2" class="edge">
<title>ConfirmModalModule&#45;&gt;GeneralPropertiesModule</title>
<path fill="none" stroke="black" d="M192.23,-122.11C192.23,-122.11 192.23,-140.99 192.23,-140.99"/>
<polygon fill="black" stroke="black" points="188.73,-140.99 192.23,-150.99 195.73,-140.99 188.73,-140.99"/>
</g>
</g>
</svg>
