<?xml version="1.0" encoding="UTF-8" standalone="no"?>
<!DOCTYPE svg PUBLIC "-//W3C//DTD SVG 1.1//EN"
 "http://www.w3.org/Graphics/SVG/1.1/DTD/svg11.dtd">
<!-- Generated by graphviz version 2.47.0 (20210316.0004)
 -->
<!-- Title: dependencies Pages: 1 -->
<svg width="644pt" height="284pt"
 viewBox="0.00 0.00 644.00 284.00" xmlns="http://www.w3.org/2000/svg" xmlns:xlink="http://www.w3.org/1999/xlink">
<g id="graph0" class="graph" transform="scale(1 1) rotate(0) translate(4 280)">
<title>dependencies</title>
<polygon fill="white" stroke="transparent" points="-4,4 -4,-280 640,-280 640,4 -4,4"/>
<text text-anchor="start" x="297.01" y="-42.4" font-family="Times-12" font-weight="bold" font-size="14.00">Legend</text>
<polygon fill="#ffffb3" stroke="transparent" points="84,-10 84,-30 104,-30 104,-10 84,-10"/>
<text text-anchor="start" x="107.63" y="-15.4" font-family="Times-12" font-size="14.00"> &#160;Declarations</text>
<polygon fill="#8dd3c7" stroke="transparent" points="197,-10 197,-30 217,-30 217,-10 197,-10"/>
<text text-anchor="start" x="220.73" y="-15.4" font-family="Times-12" font-size="14.00"> &#160;Module</text>
<polygon fill="#80b1d3" stroke="transparent" points="283,-10 283,-30 303,-30 303,-10 283,-10"/>
<text text-anchor="start" x="306.78" y="-15.4" font-family="Times-12" font-size="14.00"> &#160;Bootstrap</text>
<polygon fill="#fdb462" stroke="transparent" points="380,-10 380,-30 400,-30 400,-10 380,-10"/>
<text text-anchor="start" x="403.67" y="-15.4" font-family="Times-12" font-size="14.00"> &#160;Providers</text>
<polygon fill="#fb8072" stroke="transparent" points="476,-10 476,-30 496,-30 496,-10 476,-10"/>
<text text-anchor="start" x="499.73" y="-15.4" font-family="Times-12" font-size="14.00"> &#160;Exports</text>
<g id="clust1" class="cluster">
<title>cluster_CreateTeamProjectModule</title>
<polygon fill="none" stroke="black" stroke-dasharray="1,5" points="8,-70 8,-268 628,-268 628,-70 8,-70"/>
</g>
<g id="clust4" class="cluster">
<title>cluster_CreateTeamProjectModule_imports</title>
<polygon fill="none" stroke="black" points="230,-78 230,-130 620,-130 620,-78 230,-78"/>
</g>
<g id="clust5" class="cluster">
<title>cluster_CreateTeamProjectModule_exports</title>
<polygon fill="none" stroke="black" points="267,-208 267,-260 475,-260 475,-208 267,-208"/>
</g>
<g id="clust2" class="cluster">
<title>cluster_CreateTeamProjectModule_declarations</title>
<polygon fill="none" stroke="black" points="16,-78 16,-130 222,-130 222,-78 16,-78"/>
</g>
<!-- CreateTeamProjectComponent -->
<g id="node1" class="node">
<title>CreateTeamProjectComponent</title>
<polygon fill="#ffffb3" stroke="black" points="213.89,-122 24.11,-122 24.11,-86 213.89,-86 213.89,-122"/>
<text text-anchor="middle" x="119" y="-99.8" font-family="Times,serif" font-size="14.00">CreateTeamProjectComponent</text>
</g>
<!-- CreateTeamProjectModule -->
<g id="node2" class="node">
<title>CreateTeamProjectModule</title>
<polygon fill="#8dd3c7" stroke="black" points="454.61,-187 451.61,-191 430.61,-191 427.61,-187 287.39,-187 287.39,-151 454.61,-151 454.61,-187"/>
<text text-anchor="middle" x="371" y="-164.8" font-family="Times,serif" font-size="14.00">CreateTeamProjectModule</text>
</g>
<!-- CreateTeamProjectComponent&#45;&gt;CreateTeamProjectModule -->
<g id="edge1" class="edge">
<title>CreateTeamProjectComponent&#45;&gt;CreateTeamProjectModule</title>
<path fill="none" stroke="black" d="M119,-122.11C119,-141.34 119,-169 119,-169 119,-169 277.09,-169 277.09,-169"/>
<polygon fill="black" stroke="black" points="277.09,-172.5 287.09,-169 277.09,-165.5 277.09,-172.5"/>
</g>
<!-- CreateTeamProjectComponent  -->
<g id="node6" class="node">
<title>CreateTeamProjectComponent </title>
<polygon fill="#fb8072" stroke="black" points="467.39,-252 274.61,-252 274.61,-216 467.39,-216 467.39,-252"/>
<text text-anchor="middle" x="371" y="-229.8" font-family="Times,serif" font-size="14.00">CreateTeamProjectComponent </text>
</g>
<!-- CreateTeamProjectModule&#45;&gt;CreateTeamProjectComponent  -->
<g id="edge5" class="edge">
<title>CreateTeamProjectModule&#45;&gt;CreateTeamProjectComponent </title>
<path fill="none" stroke="black" stroke-dasharray="5,2" d="M371,-187.11C371,-187.11 371,-205.99 371,-205.99"/>
<polygon fill="black" stroke="black" points="367.5,-205.99 371,-215.99 374.5,-205.99 367.5,-205.99"/>
</g>
<!-- ButtonModule -->
<g id="node3" class="node">
<title>ButtonModule</title>
<polygon fill="#8dd3c7" stroke="black" points="611.67,-122 608.67,-126 587.67,-126 584.67,-122 514.33,-122 514.33,-86 611.67,-86 611.67,-122"/>
<text text-anchor="middle" x="563" y="-99.8" font-family="Times,serif" font-size="14.00">ButtonModule</text>
</g>
<!-- ButtonModule&#45;&gt;CreateTeamProjectModule -->
<g id="edge2" class="edge">
<title>ButtonModule&#45;&gt;CreateTeamProjectModule</title>
<path fill="none" stroke="black" d="M563,-122.11C563,-141.34 563,-169 563,-169 563,-169 464.66,-169 464.66,-169"/>
<polygon fill="black" stroke="black" points="464.66,-165.5 454.66,-169 464.66,-172.5 464.66,-165.5"/>
</g>
<!-- CardUserModule -->
<g id="node4" class="node">
<title>CardUserModule</title>
<polygon fill="#8dd3c7" stroke="black" points="496.69,-122 493.69,-126 472.69,-126 469.69,-122 383.31,-122 383.31,-86 496.69,-86 496.69,-122"/>
<text text-anchor="middle" x="440" y="-99.8" font-family="Times,serif" font-size="14.00">CardUserModule</text>
</g>
<!-- CardUserModule&#45;&gt;CreateTeamProjectModule -->
<g id="edge3" class="edge">
<title>CardUserModule&#45;&gt;CreateTeamProjectModule</title>
<path fill="none" stroke="black" d="M419.1,-122.11C419.1,-122.11 419.1,-140.99 419.1,-140.99"/>
<polygon fill="black" stroke="black" points="415.6,-140.99 419.1,-150.99 422.6,-140.99 415.6,-140.99"/>
</g>
<!-- ModalWarnModule -->
<g id="node5" class="node">
<title>ModalWarnModule</title>
<polygon fill="#8dd3c7" stroke="black" points="365.69,-122 362.69,-126 341.69,-126 338.69,-122 238.31,-122 238.31,-86 365.69,-86 365.69,-122"/>
<text text-anchor="middle" x="302" y="-99.8" font-family="Times,serif" font-size="14.00">ModalWarnModule</text>
</g>
<!-- ModalWarnModule&#45;&gt;CreateTeamProjectModule -->
<g id="edge4" class="edge">
<title>ModalWarnModule&#45;&gt;CreateTeamProjectModule</title>
<path fill="none" stroke="black" d="M326.4,-122.11C326.4,-122.11 326.4,-140.99 326.4,-140.99"/>
<polygon fill="black" stroke="black" points="322.9,-140.99 326.4,-150.99 329.9,-140.99 322.9,-140.99"/>
</g>
</g>
</svg>
