<?xml version="1.0" encoding="UTF-8" standalone="no"?>
<!DOCTYPE svg PUBLIC "-//W3C//DTD SVG 1.1//EN"
 "http://www.w3.org/Graphics/SVG/1.1/DTD/svg11.dtd">
<!-- Generated by graphviz version 2.47.0 (20210316.0004)
 -->
<!-- Title: dependencies Pages: 1 -->
<svg width="1215pt" height="284pt"
 viewBox="0.00 0.00 1215.00 284.00" xmlns="http://www.w3.org/2000/svg" xmlns:xlink="http://www.w3.org/1999/xlink">
<g id="graph0" class="graph" transform="scale(1 1) rotate(0) translate(4 280)">
<title>dependencies</title>
<polygon fill="white" stroke="transparent" points="-4,4 -4,-280 1211,-280 1211,4 -4,4"/>
<text text-anchor="start" x="582.51" y="-42.4" font-family="Times-12" font-weight="bold" font-size="14.00">Legend</text>
<polygon fill="#ffffb3" stroke="transparent" points="369.5,-10 369.5,-30 389.5,-30 389.5,-10 369.5,-10"/>
<text text-anchor="start" x="393.13" y="-15.4" font-family="Times-12" font-size="14.00"> &#160;Declarations</text>
<polygon fill="#8dd3c7" stroke="transparent" points="482.5,-10 482.5,-30 502.5,-30 502.5,-10 482.5,-10"/>
<text text-anchor="start" x="506.23" y="-15.4" font-family="Times-12" font-size="14.00"> &#160;Module</text>
<polygon fill="#80b1d3" stroke="transparent" points="568.5,-10 568.5,-30 588.5,-30 588.5,-10 568.5,-10"/>
<text text-anchor="start" x="592.28" y="-15.4" font-family="Times-12" font-size="14.00"> &#160;Bootstrap</text>
<polygon fill="#fdb462" stroke="transparent" points="665.5,-10 665.5,-30 685.5,-30 685.5,-10 665.5,-10"/>
<text text-anchor="start" x="689.17" y="-15.4" font-family="Times-12" font-size="14.00"> &#160;Providers</text>
<polygon fill="#fb8072" stroke="transparent" points="761.5,-10 761.5,-30 781.5,-30 781.5,-10 761.5,-10"/>
<text text-anchor="start" x="785.23" y="-15.4" font-family="Times-12" font-size="14.00"> &#160;Exports</text>
<g id="clust1" class="cluster">
<title>cluster_UserSettingsModule</title>
<polygon fill="none" stroke="black" stroke-dasharray="1,5" points="8,-70 8,-268 1199,-268 1199,-70 8,-70"/>
</g>
<g id="clust6" class="cluster">
<title>cluster_UserSettingsModule_imports</title>
<polygon fill="none" stroke="black" points="531,-78 531,-130 1191,-130 1191,-78 531,-78"/>
</g>
<g id="clust7" class="cluster">
<title>cluster_UserSettingsModule_exports</title>
<polygon fill="none" stroke="black" points="595,-208 595,-260 767,-260 767,-208 595,-208"/>
</g>
<g id="clust2" class="cluster">
<title>cluster_UserSettingsModule_declarations</title>
<polygon fill="none" stroke="black" points="16,-78 16,-130 523,-130 523,-78 16,-78"/>
</g>
<!-- AppearanceComponent -->
<g id="node1" class="node">
<title>AppearanceComponent</title>
<polygon fill="#ffffb3" stroke="black" points="515.17,-122 366.83,-122 366.83,-86 515.17,-86 515.17,-122"/>
<text text-anchor="middle" x="441" y="-99.8" font-family="Times,serif" font-size="14.00">AppearanceComponent</text>
</g>
<!-- UserSettingsModule -->
<g id="node4" class="node">
<title>UserSettingsModule</title>
<polygon fill="#8dd3c7" stroke="black" points="746.59,-187 743.59,-191 722.59,-191 719.59,-187 615.41,-187 615.41,-151 746.59,-151 746.59,-187"/>
<text text-anchor="middle" x="681" y="-164.8" font-family="Times,serif" font-size="14.00">UserSettingsModule</text>
</g>
<!-- AppearanceComponent&#45;&gt;UserSettingsModule -->
<g id="edge1" class="edge">
<title>AppearanceComponent&#45;&gt;UserSettingsModule</title>
<path fill="none" stroke="black" d="M441,-122.03C441,-138.4 441,-160 441,-160 441,-160 605.42,-160 605.42,-160"/>
<polygon fill="black" stroke="black" points="605.42,-163.5 615.42,-160 605.42,-156.5 605.42,-163.5"/>
</g>
<!-- NotificationsComponent -->
<g id="node2" class="node">
<title>NotificationsComponent</title>
<polygon fill="#ffffb3" stroke="black" points="349.43,-122 194.57,-122 194.57,-86 349.43,-86 349.43,-122"/>
<text text-anchor="middle" x="272" y="-99.8" font-family="Times,serif" font-size="14.00">NotificationsComponent</text>
</g>
<!-- NotificationsComponent&#45;&gt;UserSettingsModule -->
<g id="edge2" class="edge">
<title>NotificationsComponent&#45;&gt;UserSettingsModule</title>
<path fill="none" stroke="black" d="M272,-122.11C272,-141.34 272,-169 272,-169 272,-169 605.29,-169 605.29,-169"/>
<polygon fill="black" stroke="black" points="605.29,-172.5 615.29,-169 605.29,-165.5 605.29,-172.5"/>
</g>
<!-- UserSettingsComponent -->
<g id="node3" class="node">
<title>UserSettingsComponent</title>
<polygon fill="#ffffb3" stroke="black" points="176.37,-122 23.63,-122 23.63,-86 176.37,-86 176.37,-122"/>
<text text-anchor="middle" x="100" y="-99.8" font-family="Times,serif" font-size="14.00">UserSettingsComponent</text>
</g>
<!-- UserSettingsComponent&#45;&gt;UserSettingsModule -->
<g id="edge3" class="edge">
<title>UserSettingsComponent&#45;&gt;UserSettingsModule</title>
<path fill="none" stroke="black" d="M100,-122.29C100,-144.21 100,-178 100,-178 100,-178 605.2,-178 605.2,-178"/>
<polygon fill="black" stroke="black" points="605.2,-181.5 615.2,-178 605.2,-174.5 605.2,-181.5"/>
</g>
<!-- UserSettingsComponent  -->
<g id="node10" class="node">
<title>UserSettingsComponent </title>
<polygon fill="#fb8072" stroke="black" points="759.37,-252 602.63,-252 602.63,-216 759.37,-216 759.37,-252"/>
<text text-anchor="middle" x="681" y="-229.8" font-family="Times,serif" font-size="14.00">UserSettingsComponent </text>
</g>
<!-- UserSettingsModule&#45;&gt;UserSettingsComponent  -->
<g id="edge9" class="edge">
<title>UserSettingsModule&#45;&gt;UserSettingsComponent </title>
<path fill="none" stroke="black" stroke-dasharray="5,2" d="M681,-187.11C681,-187.11 681,-205.99 681,-205.99"/>
<polygon fill="black" stroke="black" points="677.5,-205.99 681,-215.99 684.5,-205.99 677.5,-205.99"/>
</g>
<!-- AppRoutingModule -->
<g id="node5" class="node">
<title>AppRoutingModule</title>
<polygon fill="#8dd3c7" stroke="black" points="1183.27,-122 1180.27,-126 1159.27,-126 1156.27,-122 1054.73,-122 1054.73,-86 1183.27,-86 1183.27,-122"/>
<text text-anchor="middle" x="1119" y="-99.8" font-family="Times,serif" font-size="14.00">AppRoutingModule</text>
</g>
<!-- AppRoutingModule&#45;&gt;UserSettingsModule -->
<g id="edge4" class="edge">
<title>AppRoutingModule&#45;&gt;UserSettingsModule</title>
<path fill="none" stroke="black" d="M1119,-122.29C1119,-144.21 1119,-178 1119,-178 1119,-178 756.57,-178 756.57,-178"/>
<polygon fill="black" stroke="black" points="756.57,-174.5 746.57,-178 756.57,-181.5 756.57,-174.5"/>
</g>
<!-- ButtonModule -->
<g id="node6" class="node">
<title>ButtonModule</title>
<polygon fill="#8dd3c7" stroke="black" points="1036.67,-122 1033.67,-126 1012.67,-126 1009.67,-122 939.33,-122 939.33,-86 1036.67,-86 1036.67,-122"/>
<text text-anchor="middle" x="988" y="-99.8" font-family="Times,serif" font-size="14.00">ButtonModule</text>
</g>
<!-- ButtonModule&#45;&gt;UserSettingsModule -->
<g id="edge5" class="edge">
<title>ButtonModule&#45;&gt;UserSettingsModule</title>
<path fill="none" stroke="black" d="M988,-122.11C988,-141.34 988,-169 988,-169 988,-169 756.86,-169 756.86,-169"/>
<polygon fill="black" stroke="black" points="756.86,-165.5 746.86,-169 756.86,-172.5 756.86,-165.5"/>
</g>
<!-- ProfileModule -->
<g id="node7" class="node">
<title>ProfileModule</title>
<polygon fill="#8dd3c7" stroke="black" points="920.65,-122 917.65,-126 896.65,-126 893.65,-122 823.35,-122 823.35,-86 920.65,-86 920.65,-122"/>
<text text-anchor="middle" x="872" y="-99.8" font-family="Times,serif" font-size="14.00">ProfileModule</text>
</g>
<!-- ProfileModule&#45;&gt;UserSettingsModule -->
<g id="edge6" class="edge">
<title>ProfileModule&#45;&gt;UserSettingsModule</title>
<path fill="none" stroke="black" d="M872,-122.03C872,-138.4 872,-160 872,-160 872,-160 756.73,-160 756.73,-160"/>
<polygon fill="black" stroke="black" points="756.73,-156.5 746.73,-160 756.73,-163.5 756.73,-156.5"/>
</g>
<!-- SecurityModule -->
<g id="node8" class="node">
<title>SecurityModule</title>
<polygon fill="#8dd3c7" stroke="black" points="805.2,-122 802.2,-126 781.2,-126 778.2,-122 698.8,-122 698.8,-86 805.2,-86 805.2,-122"/>
<text text-anchor="middle" x="752" y="-99.8" font-family="Times,serif" font-size="14.00">SecurityModule</text>
</g>
<!-- SecurityModule&#45;&gt;UserSettingsModule -->
<g id="edge7" class="edge">
<title>SecurityModule&#45;&gt;UserSettingsModule</title>
<path fill="none" stroke="black" d="M722.72,-122.11C722.72,-122.11 722.72,-140.99 722.72,-140.99"/>
<polygon fill="black" stroke="black" points="719.22,-140.99 722.72,-150.99 726.22,-140.99 719.22,-140.99"/>
</g>
<!-- TeamsSettingsModule -->
<g id="node9" class="node">
<title>TeamsSettingsModule</title>
<polygon fill="#8dd3c7" stroke="black" points="680.98,-122 677.98,-126 656.98,-126 653.98,-122 539.02,-122 539.02,-86 680.98,-86 680.98,-122"/>
<text text-anchor="middle" x="610" y="-99.8" font-family="Times,serif" font-size="14.00">TeamsSettingsModule</text>
</g>
<!-- TeamsSettingsModule&#45;&gt;UserSettingsModule -->
<g id="edge8" class="edge">
<title>TeamsSettingsModule&#45;&gt;UserSettingsModule</title>
<path fill="none" stroke="black" d="M648.22,-122.11C648.22,-122.11 648.22,-140.99 648.22,-140.99"/>
<polygon fill="black" stroke="black" points="644.72,-140.99 648.22,-150.99 651.72,-140.99 644.72,-140.99"/>
</g>
</g>
</svg>
