<?xml version="1.0" encoding="UTF-8" standalone="no"?>
<!DOCTYPE svg PUBLIC "-//W3C//DTD SVG 1.1//EN"
 "http://www.w3.org/Graphics/SVG/1.1/DTD/svg11.dtd">
<!-- Generated by graphviz version 2.47.0 (20210316.0004)
 -->
<!-- Title: dependencies Pages: 1 -->
<svg width="1272pt" height="284pt"
 viewBox="0.00 0.00 1272.00 284.00" xmlns="http://www.w3.org/2000/svg" xmlns:xlink="http://www.w3.org/1999/xlink">
<g id="graph0" class="graph" transform="scale(1 1) rotate(0) translate(4 280)">
<title>dependencies</title>
<polygon fill="white" stroke="transparent" points="-4,4 -4,-280 1268,-280 1268,4 -4,4"/>
<text text-anchor="start" x="611.01" y="-42.4" font-family="Times-12" font-weight="bold" font-size="14.00">Legend</text>
<polygon fill="#ffffb3" stroke="transparent" points="398,-10 398,-30 418,-30 418,-10 398,-10"/>
<text text-anchor="start" x="421.63" y="-15.4" font-family="Times-12" font-size="14.00"> &#160;Declarations</text>
<polygon fill="#8dd3c7" stroke="transparent" points="511,-10 511,-30 531,-30 531,-10 511,-10"/>
<text text-anchor="start" x="534.73" y="-15.4" font-family="Times-12" font-size="14.00"> &#160;Module</text>
<polygon fill="#80b1d3" stroke="transparent" points="597,-10 597,-30 617,-30 617,-10 597,-10"/>
<text text-anchor="start" x="620.78" y="-15.4" font-family="Times-12" font-size="14.00"> &#160;Bootstrap</text>
<polygon fill="#fdb462" stroke="transparent" points="694,-10 694,-30 714,-30 714,-10 694,-10"/>
<text text-anchor="start" x="717.67" y="-15.4" font-family="Times-12" font-size="14.00"> &#160;Providers</text>
<polygon fill="#fb8072" stroke="transparent" points="790,-10 790,-30 810,-30 810,-10 790,-10"/>
<text text-anchor="start" x="813.73" y="-15.4" font-family="Times-12" font-size="14.00"> &#160;Exports</text>
<g id="clust1" class="cluster">
<title>cluster_TaskModule</title>
<polygon fill="none" stroke="black" stroke-dasharray="1,5" points="8,-70 8,-268 1256,-268 1256,-70 8,-70"/>
</g>
<g id="clust2" class="cluster">
<title>cluster_TaskModule_declarations</title>
<polygon fill="none" stroke="black" points="482,-78 482,-130 1248,-130 1248,-78 482,-78"/>
</g>
<g id="clust9" class="cluster">
<title>cluster_TaskModule_exports</title>
<polygon fill="none" stroke="black" points="542,-208 542,-260 670,-260 670,-208 542,-208"/>
</g>
<g id="clust8" class="cluster">
<title>cluster_TaskModule_imports</title>
<polygon fill="none" stroke="black" points="16,-78 16,-130 474,-130 474,-78 16,-78"/>
</g>
<!-- AttachmentItemComponent -->
<g id="node1" class="node">
<title>AttachmentItemComponent</title>
<polygon fill="#ffffb3" stroke="black" points="1240.3,-122 1067.7,-122 1067.7,-86 1240.3,-86 1240.3,-122"/>
<text text-anchor="middle" x="1154" y="-99.8" font-family="Times,serif" font-size="14.00">AttachmentItemComponent</text>
</g>
<!-- TaskModule -->
<g id="node6" class="node">
<title>TaskModule</title>
<polygon fill="#8dd3c7" stroke="black" points="649.26,-187 646.26,-191 625.26,-191 622.26,-187 562.74,-187 562.74,-151 649.26,-151 649.26,-187"/>
<text text-anchor="middle" x="606" y="-164.8" font-family="Times,serif" font-size="14.00">TaskModule</text>
</g>
<!-- AttachmentItemComponent&#45;&gt;TaskModule -->
<g id="edge1" class="edge">
<title>AttachmentItemComponent&#45;&gt;TaskModule</title>
<path fill="none" stroke="black" d="M1154,-122.29C1154,-144.21 1154,-178 1154,-178 1154,-178 659.46,-178 659.46,-178"/>
<polygon fill="black" stroke="black" points="659.46,-174.5 649.46,-178 659.46,-181.5 659.46,-174.5"/>
</g>
<!-- AttachmentsComponent -->
<g id="node2" class="node">
<title>AttachmentsComponent</title>
<polygon fill="#ffffb3" stroke="black" points="1050.09,-122 897.91,-122 897.91,-86 1050.09,-86 1050.09,-122"/>
<text text-anchor="middle" x="974" y="-99.8" font-family="Times,serif" font-size="14.00">AttachmentsComponent</text>
</g>
<!-- AttachmentsComponent&#45;&gt;TaskModule -->
<g id="edge2" class="edge">
<title>AttachmentsComponent&#45;&gt;TaskModule</title>
<path fill="none" stroke="black" d="M974,-122.11C974,-141.34 974,-169 974,-169 974,-169 659.3,-169 659.3,-169"/>
<polygon fill="black" stroke="black" points="659.3,-165.5 649.3,-169 659.3,-172.5 659.3,-165.5"/>
</g>
<!-- CommentsComponent -->
<g id="node3" class="node">
<title>CommentsComponent</title>
<polygon fill="#ffffb3" stroke="black" points="880,-122 738,-122 738,-86 880,-86 880,-122"/>
<text text-anchor="middle" x="809" y="-99.8" font-family="Times,serif" font-size="14.00">CommentsComponent</text>
</g>
<!-- CommentsComponent&#45;&gt;TaskModule -->
<g id="edge3" class="edge">
<title>CommentsComponent&#45;&gt;TaskModule</title>
<path fill="none" stroke="black" d="M809,-122.03C809,-138.4 809,-160 809,-160 809,-160 659.55,-160 659.55,-160"/>
<polygon fill="black" stroke="black" points="659.55,-156.5 649.55,-160 659.55,-163.5 659.55,-156.5"/>
</g>
<!-- LogComponent -->
<g id="node4" class="node">
<title>LogComponent</title>
<polygon fill="#ffffb3" stroke="black" points="719.89,-122 616.11,-122 616.11,-86 719.89,-86 719.89,-122"/>
<text text-anchor="middle" x="668" y="-99.8" font-family="Times,serif" font-size="14.00">LogComponent</text>
</g>
<!-- LogComponent&#45;&gt;TaskModule -->
<g id="edge4" class="edge">
<title>LogComponent&#45;&gt;TaskModule</title>
<path fill="none" stroke="black" d="M632.72,-122.11C632.72,-122.11 632.72,-140.99 632.72,-140.99"/>
<polygon fill="black" stroke="black" points="629.22,-140.99 632.72,-150.99 636.22,-140.99 629.22,-140.99"/>
</g>
<!-- TaskComponent -->
<g id="node5" class="node">
<title>TaskComponent</title>
<polygon fill="#ffffb3" stroke="black" points="598.05,-122 489.95,-122 489.95,-86 598.05,-86 598.05,-122"/>
<text text-anchor="middle" x="544" y="-99.8" font-family="Times,serif" font-size="14.00">TaskComponent</text>
</g>
<!-- TaskComponent&#45;&gt;TaskModule -->
<g id="edge5" class="edge">
<title>TaskComponent&#45;&gt;TaskModule</title>
<path fill="none" stroke="black" d="M580.45,-122.11C580.45,-122.11 580.45,-140.99 580.45,-140.99"/>
<polygon fill="black" stroke="black" points="576.95,-140.99 580.45,-150.99 583.95,-140.99 576.95,-140.99"/>
</g>
<!-- TaskComponent  -->
<g id="node10" class="node">
<title>TaskComponent </title>
<polygon fill="#fb8072" stroke="black" points="662.04,-252 549.96,-252 549.96,-216 662.04,-216 662.04,-252"/>
<text text-anchor="middle" x="606" y="-229.8" font-family="Times,serif" font-size="14.00">TaskComponent </text>
</g>
<!-- TaskModule&#45;&gt;TaskComponent  -->
<g id="edge9" class="edge">
<title>TaskModule&#45;&gt;TaskComponent </title>
<path fill="none" stroke="black" stroke-dasharray="5,2" d="M606,-187.11C606,-187.11 606,-205.99 606,-205.99"/>
<polygon fill="black" stroke="black" points="602.5,-205.99 606,-215.99 609.5,-205.99 602.5,-205.99"/>
</g>
<!-- ConfirmModalModule -->
<g id="node7" class="node">
<title>ConfirmModalModule</title>
<polygon fill="#8dd3c7" stroke="black" points="465.54,-122 462.54,-126 441.54,-126 438.54,-122 322.46,-122 322.46,-86 465.54,-86 465.54,-122"/>
<text text-anchor="middle" x="394" y="-99.8" font-family="Times,serif" font-size="14.00">ConfirmModalModule</text>
</g>
<!-- ConfirmModalModule&#45;&gt;TaskModule -->
<g id="edge6" class="edge">
<title>ConfirmModalModule&#45;&gt;TaskModule</title>
<path fill="none" stroke="black" d="M394,-122.03C394,-138.4 394,-160 394,-160 394,-160 552.59,-160 552.59,-160"/>
<polygon fill="black" stroke="black" points="552.59,-163.5 562.59,-160 552.59,-156.5 552.59,-163.5"/>
</g>
<!-- MinichatTASKModule -->
<g id="node8" class="node">
<title>MinichatTASKModule</title>
<polygon fill="#8dd3c7" stroke="black" points="304.14,-122 301.14,-126 280.14,-126 277.14,-122 157.86,-122 157.86,-86 304.14,-86 304.14,-122"/>
<text text-anchor="middle" x="231" y="-99.8" font-family="Times,serif" font-size="14.00">MinichatTASKModule</text>
</g>
<!-- MinichatTASKModule&#45;&gt;TaskModule -->
<g id="edge7" class="edge">
<title>MinichatTASKModule&#45;&gt;TaskModule</title>
<path fill="none" stroke="black" d="M231,-122.11C231,-141.34 231,-169 231,-169 231,-169 552.62,-169 552.62,-169"/>
<polygon fill="black" stroke="black" points="552.62,-172.5 562.62,-169 552.62,-165.5 552.62,-172.5"/>
</g>
<!-- PropertiesModule -->
<g id="node9" class="node">
<title>PropertiesModule</title>
<polygon fill="#8dd3c7" stroke="black" points="140.31,-122 137.31,-126 116.31,-126 113.31,-122 23.69,-122 23.69,-86 140.31,-86 140.31,-122"/>
<text text-anchor="middle" x="82" y="-99.8" font-family="Times,serif" font-size="14.00">PropertiesModule</text>
</g>
<!-- PropertiesModule&#45;&gt;TaskModule -->
<g id="edge8" class="edge">
<title>PropertiesModule&#45;&gt;TaskModule</title>
<path fill="none" stroke="black" d="M82,-122.29C82,-144.21 82,-178 82,-178 82,-178 552.67,-178 552.67,-178"/>
<polygon fill="black" stroke="black" points="552.67,-181.5 562.67,-178 552.67,-174.5 552.67,-181.5"/>
</g>
</g>
</svg>
