<?xml version="1.0" encoding="UTF-8" standalone="no"?>
<!DOCTYPE svg PUBLIC "-//W3C//DTD SVG 1.1//EN"
 "http://www.w3.org/Graphics/SVG/1.1/DTD/svg11.dtd">
<!-- Generated by graphviz version 2.47.0 (20210316.0004)
 -->
<!-- Title: dependencies Pages: 1 -->
<svg width="504pt" height="284pt"
 viewBox="0.00 0.00 504.00 284.00" xmlns="http://www.w3.org/2000/svg" xmlns:xlink="http://www.w3.org/1999/xlink">
<g id="graph0" class="graph" transform="scale(1 1) rotate(0) translate(4 280)">
<title>dependencies</title>
<polygon fill="white" stroke="transparent" points="-4,4 -4,-280 500,-280 500,4 -4,4"/>
<text text-anchor="start" x="227.01" y="-42.4" font-family="Times-12" font-weight="bold" font-size="14.00">Legend</text>
<polygon fill="#ffffb3" stroke="transparent" points="14,-10 14,-30 34,-30 34,-10 14,-10"/>
<text text-anchor="start" x="37.63" y="-15.4" font-family="Times-12" font-size="14.00"> &#160;Declarations</text>
<polygon fill="#8dd3c7" stroke="transparent" points="127,-10 127,-30 147,-30 147,-10 127,-10"/>
<text text-anchor="start" x="150.73" y="-15.4" font-family="Times-12" font-size="14.00"> &#160;Module</text>
<polygon fill="#80b1d3" stroke="transparent" points="213,-10 213,-30 233,-30 233,-10 213,-10"/>
<text text-anchor="start" x="236.78" y="-15.4" font-family="Times-12" font-size="14.00"> &#160;Bootstrap</text>
<polygon fill="#fdb462" stroke="transparent" points="310,-10 310,-30 330,-30 330,-10 310,-10"/>
<text text-anchor="start" x="333.67" y="-15.4" font-family="Times-12" font-size="14.00"> &#160;Providers</text>
<polygon fill="#fb8072" stroke="transparent" points="406,-10 406,-30 426,-30 426,-10 406,-10"/>
<text text-anchor="start" x="429.73" y="-15.4" font-family="Times-12" font-size="14.00"> &#160;Exports</text>
<g id="clust1" class="cluster">
<title>cluster_KanbanModule</title>
<polygon fill="none" stroke="black" stroke-dasharray="1,5" points="34,-70 34,-268 462,-268 462,-70 34,-70"/>
</g>
<g id="clust2" class="cluster">
<title>cluster_KanbanModule_declarations</title>
<polygon fill="none" stroke="black" points="314,-78 314,-130 454,-130 454,-78 314,-78"/>
</g>
<g id="clust4" class="cluster">
<title>cluster_KanbanModule_imports</title>
<polygon fill="none" stroke="black" points="42,-78 42,-130 306,-130 306,-78 42,-78"/>
</g>
<g id="clust5" class="cluster">
<title>cluster_KanbanModule_exports</title>
<polygon fill="none" stroke="black" points="183,-208 183,-260 327,-260 327,-208 183,-208"/>
</g>
<!-- KanbanComponent -->
<g id="node1" class="node">
<title>KanbanComponent</title>
<polygon fill="#ffffb3" stroke="black" points="446.37,-122 321.63,-122 321.63,-86 446.37,-86 446.37,-122"/>
<text text-anchor="middle" x="384" y="-99.8" font-family="Times,serif" font-size="14.00">KanbanComponent</text>
</g>
<!-- KanbanModule -->
<g id="node2" class="node">
<title>KanbanModule</title>
<polygon fill="#8dd3c7" stroke="black" points="306.59,-187 303.59,-191 282.59,-191 279.59,-187 203.41,-187 203.41,-151 306.59,-151 306.59,-187"/>
<text text-anchor="middle" x="255" y="-164.8" font-family="Times,serif" font-size="14.00">KanbanModule</text>
</g>
<!-- KanbanComponent&#45;&gt;KanbanModule -->
<g id="edge1" class="edge">
<title>KanbanComponent&#45;&gt;KanbanModule</title>
<path fill="none" stroke="black" d="M321.37,-104C310.42,-104 302.46,-104 302.46,-104 302.46,-104 302.46,-140.89 302.46,-140.89"/>
<polygon fill="black" stroke="black" points="298.96,-140.89 302.46,-150.89 305.96,-140.89 298.96,-140.89"/>
</g>
<!-- KanbanComponent  -->
<g id="node5" class="node">
<title>KanbanComponent </title>
<polygon fill="#fb8072" stroke="black" points="319.37,-252 190.63,-252 190.63,-216 319.37,-216 319.37,-252"/>
<text text-anchor="middle" x="255" y="-229.8" font-family="Times,serif" font-size="14.00">KanbanComponent </text>
</g>
<!-- KanbanModule&#45;&gt;KanbanComponent  -->
<g id="edge4" class="edge">
<title>KanbanModule&#45;&gt;KanbanComponent </title>
<path fill="none" stroke="black" stroke-dasharray="5,2" d="M255,-187.11C255,-187.11 255,-205.99 255,-205.99"/>
<polygon fill="black" stroke="black" points="251.5,-205.99 255,-215.99 258.5,-205.99 251.5,-205.99"/>
</g>
<!-- CardModule -->
<g id="node3" class="node">
<title>CardModule</title>
<polygon fill="#8dd3c7" stroke="black" points="298.26,-122 295.26,-126 274.26,-126 271.26,-122 211.74,-122 211.74,-86 298.26,-86 298.26,-122"/>
<text text-anchor="middle" x="255" y="-99.8" font-family="Times,serif" font-size="14.00">CardModule</text>
</g>
<!-- CardModule&#45;&gt;KanbanModule -->
<g id="edge2" class="edge">
<title>CardModule&#45;&gt;KanbanModule</title>
<path fill="none" stroke="black" d="M255,-122.11C255,-122.11 255,-140.99 255,-140.99"/>
<polygon fill="black" stroke="black" points="251.5,-140.99 255,-150.99 258.5,-140.99 251.5,-140.99"/>
</g>
<!-- ConfirmModalModule -->
<g id="node4" class="node">
<title>ConfirmModalModule</title>
<polygon fill="#8dd3c7" stroke="black" points="193.54,-122 190.54,-126 169.54,-126 166.54,-122 50.46,-122 50.46,-86 193.54,-86 193.54,-122"/>
<text text-anchor="middle" x="122" y="-99.8" font-family="Times,serif" font-size="14.00">ConfirmModalModule</text>
</g>
<!-- ConfirmModalModule&#45;&gt;KanbanModule -->
<g id="edge3" class="edge">
<title>ConfirmModalModule&#45;&gt;KanbanModule</title>
<path fill="none" stroke="black" d="M193.8,-104C202.02,-104 207.54,-104 207.54,-104 207.54,-104 207.54,-140.89 207.54,-140.89"/>
<polygon fill="black" stroke="black" points="204.04,-140.89 207.54,-150.89 211.04,-140.89 204.04,-140.89"/>
</g>
</g>
</svg>
