<?xml version="1.0" encoding="UTF-8" standalone="no"?>
<!DOCTYPE svg PUBLIC "-//W3C//DTD SVG 1.1//EN"
 "http://www.w3.org/Graphics/SVG/1.1/DTD/svg11.dtd">
<!-- Generated by graphviz version 2.47.0 (20210316.0004)
 -->
<!-- Title: dependencies Pages: 1 -->
<svg width="844pt" height="284pt"
 viewBox="0.00 0.00 844.00 284.00" xmlns="http://www.w3.org/2000/svg" xmlns:xlink="http://www.w3.org/1999/xlink">
<g id="graph0" class="graph" transform="scale(1 1) rotate(0) translate(4 280)">
<title>dependencies</title>
<polygon fill="white" stroke="transparent" points="-4,4 -4,-280 840,-280 840,4 -4,4"/>
<text text-anchor="start" x="397.01" y="-42.4" font-family="Times-12" font-weight="bold" font-size="14.00">Legend</text>
<polygon fill="#ffffb3" stroke="transparent" points="184,-10 184,-30 204,-30 204,-10 184,-10"/>
<text text-anchor="start" x="207.63" y="-15.4" font-family="Times-12" font-size="14.00"> &#160;Declarations</text>
<polygon fill="#8dd3c7" stroke="transparent" points="297,-10 297,-30 317,-30 317,-10 297,-10"/>
<text text-anchor="start" x="320.73" y="-15.4" font-family="Times-12" font-size="14.00"> &#160;Module</text>
<polygon fill="#80b1d3" stroke="transparent" points="383,-10 383,-30 403,-30 403,-10 383,-10"/>
<text text-anchor="start" x="406.78" y="-15.4" font-family="Times-12" font-size="14.00"> &#160;Bootstrap</text>
<polygon fill="#fdb462" stroke="transparent" points="480,-10 480,-30 500,-30 500,-10 480,-10"/>
<text text-anchor="start" x="503.67" y="-15.4" font-family="Times-12" font-size="14.00"> &#160;Providers</text>
<polygon fill="#fb8072" stroke="transparent" points="576,-10 576,-30 596,-30 596,-10 576,-10"/>
<text text-anchor="start" x="599.73" y="-15.4" font-family="Times-12" font-size="14.00"> &#160;Exports</text>
<g id="clust1" class="cluster">
<title>cluster_HomeModule</title>
<polygon fill="none" stroke="black" stroke-dasharray="1,5" points="8,-70 8,-268 828,-268 828,-70 8,-70"/>
</g>
<g id="clust2" class="cluster">
<title>cluster_HomeModule_declarations</title>
<polygon fill="none" stroke="black" points="688,-78 688,-130 820,-130 820,-78 688,-78"/>
</g>
<g id="clust4" class="cluster">
<title>cluster_HomeModule_imports</title>
<polygon fill="none" stroke="black" points="16,-78 16,-130 680,-130 680,-78 16,-78"/>
</g>
<g id="clust5" class="cluster">
<title>cluster_HomeModule_exports</title>
<polygon fill="none" stroke="black" points="323,-208 323,-260 459,-260 459,-208 323,-208"/>
</g>
<!-- HomeComponent -->
<g id="node1" class="node">
<title>HomeComponent</title>
<polygon fill="#ffffb3" stroke="black" points="811.55,-122 696.45,-122 696.45,-86 811.55,-86 811.55,-122"/>
<text text-anchor="middle" x="754" y="-99.8" font-family="Times,serif" font-size="14.00">HomeComponent</text>
</g>
<!-- HomeModule -->
<g id="node2" class="node">
<title>HomeModule</title>
<polygon fill="#8dd3c7" stroke="black" points="437.76,-187 434.76,-191 413.76,-191 410.76,-187 344.24,-187 344.24,-151 437.76,-151 437.76,-187"/>
<text text-anchor="middle" x="391" y="-164.8" font-family="Times,serif" font-size="14.00">HomeModule</text>
</g>
<!-- HomeComponent&#45;&gt;HomeModule -->
<g id="edge1" class="edge">
<title>HomeComponent&#45;&gt;HomeModule</title>
<path fill="none" stroke="black" d="M754,-122.28C754,-143.32 754,-175 754,-175 754,-175 448.08,-175 448.08,-175"/>
<polygon fill="black" stroke="black" points="448.08,-171.5 438.08,-175 448.08,-178.5 448.08,-171.5"/>
</g>
<!-- HomeComponent  -->
<g id="node8" class="node">
<title>HomeComponent </title>
<polygon fill="#fb8072" stroke="black" points="450.54,-252 331.46,-252 331.46,-216 450.54,-216 450.54,-252"/>
<text text-anchor="middle" x="391" y="-229.8" font-family="Times,serif" font-size="14.00">HomeComponent </text>
</g>
<!-- HomeModule&#45;&gt;HomeComponent  -->
<g id="edge7" class="edge">
<title>HomeModule&#45;&gt;HomeComponent </title>
<path fill="none" stroke="black" stroke-dasharray="5,2" d="M391,-187.11C391,-187.11 391,-205.99 391,-205.99"/>
<polygon fill="black" stroke="black" points="387.5,-205.99 391,-215.99 394.5,-205.99 387.5,-205.99"/>
</g>
<!-- CardListModule -->
<g id="node3" class="node">
<title>CardListModule</title>
<polygon fill="#8dd3c7" stroke="black" points="672.04,-122 669.04,-126 648.04,-126 645.04,-122 563.96,-122 563.96,-86 672.04,-86 672.04,-122"/>
<text text-anchor="middle" x="618" y="-99.8" font-family="Times,serif" font-size="14.00">CardListModule</text>
</g>
<!-- CardListModule&#45;&gt;HomeModule -->
<g id="edge2" class="edge">
<title>CardListModule&#45;&gt;HomeModule</title>
<path fill="none" stroke="black" d="M618,-122.02C618,-139.37 618,-163 618,-163 618,-163 448.03,-163 448.03,-163"/>
<polygon fill="black" stroke="black" points="448.03,-159.5 438.03,-163 448.03,-166.5 448.03,-159.5"/>
</g>
<!-- CreateTeamProjectModule -->
<g id="node4" class="node">
<title>CreateTeamProjectModule</title>
<polygon fill="#8dd3c7" stroke="black" points="545.61,-122 542.61,-126 521.61,-126 518.61,-122 378.39,-122 378.39,-86 545.61,-86 545.61,-122"/>
<text text-anchor="middle" x="462" y="-99.8" font-family="Times,serif" font-size="14.00">CreateTeamProjectModule</text>
</g>
<!-- CreateTeamProjectModule&#45;&gt;HomeModule -->
<g id="edge3" class="edge">
<title>CreateTeamProjectModule&#45;&gt;HomeModule</title>
<path fill="none" stroke="black" d="M408.04,-122.11C408.04,-122.11 408.04,-140.99 408.04,-140.99"/>
<polygon fill="black" stroke="black" points="404.54,-140.99 408.04,-150.99 411.54,-140.99 404.54,-140.99"/>
</g>
<!-- ListModule -->
<g id="node5" class="node">
<title>ListModule</title>
<polygon fill="#8dd3c7" stroke="black" points="360.83,-122 357.83,-126 336.83,-126 333.83,-122 279.17,-122 279.17,-86 360.83,-86 360.83,-122"/>
<text text-anchor="middle" x="320" y="-99.8" font-family="Times,serif" font-size="14.00">ListModule</text>
</g>
<!-- ListModule&#45;&gt;HomeModule -->
<g id="edge4" class="edge">
<title>ListModule&#45;&gt;HomeModule</title>
<path fill="none" stroke="black" d="M352.39,-122.11C352.39,-122.11 352.39,-140.99 352.39,-140.99"/>
<polygon fill="black" stroke="black" points="348.89,-140.99 352.39,-150.99 355.89,-140.99 348.89,-140.99"/>
</g>
<!-- QuickAccessModule -->
<g id="node6" class="node">
<title>QuickAccessModule</title>
<polygon fill="#8dd3c7" stroke="black" points="261.9,-122 258.9,-126 237.9,-126 234.9,-122 128.1,-122 128.1,-86 261.9,-86 261.9,-122"/>
<text text-anchor="middle" x="195" y="-99.8" font-family="Times,serif" font-size="14.00">QuickAccessModule</text>
</g>
<!-- QuickAccessModule&#45;&gt;HomeModule -->
<g id="edge5" class="edge">
<title>QuickAccessModule&#45;&gt;HomeModule</title>
<path fill="none" stroke="black" d="M195,-122.02C195,-139.37 195,-163 195,-163 195,-163 334.05,-163 334.05,-163"/>
<polygon fill="black" stroke="black" points="334.05,-166.5 344.05,-163 334.05,-159.5 334.05,-166.5"/>
</g>
<!-- TaskModule -->
<g id="node7" class="node">
<title>TaskModule</title>
<polygon fill="#8dd3c7" stroke="black" points="110.26,-122 107.26,-126 86.26,-126 83.26,-122 23.74,-122 23.74,-86 110.26,-86 110.26,-122"/>
<text text-anchor="middle" x="67" y="-99.8" font-family="Times,serif" font-size="14.00">TaskModule</text>
</g>
<!-- TaskModule&#45;&gt;HomeModule -->
<g id="edge6" class="edge">
<title>TaskModule&#45;&gt;HomeModule</title>
<path fill="none" stroke="black" d="M67,-122.28C67,-143.32 67,-175 67,-175 67,-175 334.23,-175 334.23,-175"/>
<polygon fill="black" stroke="black" points="334.23,-178.5 344.23,-175 334.23,-171.5 334.23,-178.5"/>
</g>
</g>
</svg>
