<?xml version="1.0" encoding="UTF-8" standalone="no"?>
<!DOCTYPE svg PUBLIC "-//W3C//DTD SVG 1.1//EN"
 "http://www.w3.org/Graphics/SVG/1.1/DTD/svg11.dtd">
<!-- Generated by graphviz version 2.47.0 (20210316.0004)
 -->
<!-- Title: dependencies Pages: 1 -->
<svg width="4173pt" height="284pt"
 viewBox="0.00 0.00 4173.00 284.00" xmlns="http://www.w3.org/2000/svg" xmlns:xlink="http://www.w3.org/1999/xlink">
<g id="graph0" class="graph" transform="scale(1 1) rotate(0) translate(4 280)">
<title>dependencies</title>
<polygon fill="white" stroke="transparent" points="-4,4 -4,-280 4169,-280 4169,4 -4,4"/>
<text text-anchor="start" x="2061.51" y="-42.4" font-family="Times-12" font-weight="bold" font-size="14.00">Legend</text>
<polygon fill="#ffffb3" stroke="transparent" points="1848.5,-10 1848.5,-30 1868.5,-30 1868.5,-10 1848.5,-10"/>
<text text-anchor="start" x="1872.13" y="-15.4" font-family="Times-12" font-size="14.00"> &#160;Declarations</text>
<polygon fill="#8dd3c7" stroke="transparent" points="1961.5,-10 1961.5,-30 1981.5,-30 1981.5,-10 1961.5,-10"/>
<text text-anchor="start" x="1985.23" y="-15.4" font-family="Times-12" font-size="14.00"> &#160;Module</text>
<polygon fill="#80b1d3" stroke="transparent" points="2047.5,-10 2047.5,-30 2067.5,-30 2067.5,-10 2047.5,-10"/>
<text text-anchor="start" x="2071.28" y="-15.4" font-family="Times-12" font-size="14.00"> &#160;Bootstrap</text>
<polygon fill="#fdb462" stroke="transparent" points="2144.5,-10 2144.5,-30 2164.5,-30 2164.5,-10 2144.5,-10"/>
<text text-anchor="start" x="2168.17" y="-15.4" font-family="Times-12" font-size="14.00"> &#160;Providers</text>
<polygon fill="#fb8072" stroke="transparent" points="2240.5,-10 2240.5,-30 2260.5,-30 2260.5,-10 2240.5,-10"/>
<text text-anchor="start" x="2264.23" y="-15.4" font-family="Times-12" font-size="14.00"> &#160;Exports</text>
<g id="clust1" class="cluster">
<title>cluster_AppModule</title>
<polygon fill="none" stroke="black" stroke-dasharray="1,5" points="8,-70 8,-268 4157,-268 4157,-70 8,-70"/>
</g>
<g id="clust9" class="cluster">
<title>cluster_AppModule_imports</title>
<polygon fill="none" stroke="black" points="1524,-78 1524,-130 4149,-130 4149,-78 1524,-78"/>
</g>
<g id="clust2" class="cluster">
<title>cluster_AppModule_declarations</title>
<polygon fill="none" stroke="black" points="566,-78 566,-130 1516,-130 1516,-78 566,-78"/>
</g>
<g id="clust12" class="cluster">
<title>cluster_AppModule_providers</title>
<polygon fill="none" stroke="black" points="16,-78 16,-130 558,-130 558,-78 16,-78"/>
</g>
<g id="clust11" class="cluster">
<title>cluster_AppModule_bootstrap</title>
<polygon fill="none" stroke="black" points="2244,-208 2244,-260 2368,-260 2368,-208 2244,-208"/>
</g>
<!-- AppComponent -->
<g id="node1" class="node">
<title>AppComponent</title>
<polygon fill="#ffffb3" stroke="black" points="1507.94,-122 1402.06,-122 1402.06,-86 1507.94,-86 1507.94,-122"/>
<text text-anchor="middle" x="1455" y="-99.8" font-family="Times,serif" font-size="14.00">AppComponent</text>
</g>
<!-- AppModule -->
<g id="node7" class="node">
<title>AppModule</title>
<polygon fill="#8dd3c7" stroke="black" points="2347.66,-187 2344.66,-191 2323.66,-191 2320.66,-187 2264.34,-187 2264.34,-151 2347.66,-151 2347.66,-187"/>
<text text-anchor="middle" x="2306" y="-164.8" font-family="Times,serif" font-size="14.00">AppModule</text>
</g>
<!-- AppComponent&#45;&gt;AppModule -->
<g id="edge1" class="edge">
<title>AppComponent&#45;&gt;AppModule</title>
<path fill="none" stroke="black" d="M1455,-122.27C1455,-140.56 1455,-166 1455,-166 1455,-166 2254.09,-166 2254.09,-166"/>
<polygon fill="black" stroke="black" points="2254.09,-169.5 2264.09,-166 2254.09,-162.5 2254.09,-169.5"/>
</g>
<!-- DeniedAccessComponent -->
<g id="node2" class="node">
<title>DeniedAccessComponent</title>
<polygon fill="#ffffb3" stroke="black" points="1384.9,-122 1223.1,-122 1223.1,-86 1384.9,-86 1384.9,-122"/>
<text text-anchor="middle" x="1304" y="-99.8" font-family="Times,serif" font-size="14.00">DeniedAccessComponent</text>
</g>
<!-- DeniedAccessComponent&#45;&gt;AppModule -->
<g id="edge2" class="edge">
<title>DeniedAccessComponent&#45;&gt;AppModule</title>
<path fill="none" stroke="black" d="M1304,-122.17C1304,-141.09 1304,-168 1304,-168 1304,-168 2254.22,-168 2254.22,-168"/>
<polygon fill="black" stroke="black" points="2254.22,-171.5 2264.22,-168 2254.22,-164.5 2254.22,-171.5"/>
</g>
<!-- InvitationPageComponent -->
<g id="node3" class="node">
<title>InvitationPageComponent</title>
<polygon fill="#ffffb3" stroke="black" points="1205.48,-122 1042.52,-122 1042.52,-86 1205.48,-86 1205.48,-122"/>
<text text-anchor="middle" x="1124" y="-99.8" font-family="Times,serif" font-size="14.00">InvitationPageComponent</text>
</g>
<!-- InvitationPageComponent&#45;&gt;AppModule -->
<g id="edge3" class="edge">
<title>InvitationPageComponent&#45;&gt;AppModule</title>
<path fill="none" stroke="black" d="M1124,-122.31C1124,-142.15 1124,-171 1124,-171 1124,-171 2254.28,-171 2254.28,-171"/>
<polygon fill="black" stroke="black" points="2254.28,-174.5 2264.28,-171 2254.28,-167.5 2254.28,-174.5"/>
</g>
<!-- LoadingComponent -->
<g id="node4" class="node">
<title>LoadingComponent</title>
<polygon fill="#ffffb3" stroke="black" points="1024.99,-122 897.01,-122 897.01,-86 1024.99,-86 1024.99,-122"/>
<text text-anchor="middle" x="961" y="-99.8" font-family="Times,serif" font-size="14.00">LoadingComponent</text>
</g>
<!-- LoadingComponent&#45;&gt;AppModule -->
<g id="edge4" class="edge">
<title>LoadingComponent&#45;&gt;AppModule</title>
<path fill="none" stroke="black" d="M961,-122.13C961,-142.57 961,-173 961,-173 961,-173 2254.27,-173 2254.27,-173"/>
<polygon fill="black" stroke="black" points="2254.27,-176.5 2264.27,-173 2254.27,-169.5 2254.27,-176.5"/>
</g>
<!-- MobileSidebarComponent -->
<g id="node5" class="node">
<title>MobileSidebarComponent</title>
<polygon fill="#ffffb3" stroke="black" points="879.04,-122 714.96,-122 714.96,-86 879.04,-86 879.04,-122"/>
<text text-anchor="middle" x="797" y="-99.8" font-family="Times,serif" font-size="14.00">MobileSidebarComponent</text>
</g>
<!-- MobileSidebarComponent&#45;&gt;AppModule -->
<g id="edge5" class="edge">
<title>MobileSidebarComponent&#45;&gt;AppModule</title>
<path fill="none" stroke="black" d="M797,-122.28C797,-143.32 797,-175 797,-175 797,-175 2254.07,-175 2254.07,-175"/>
<polygon fill="black" stroke="black" points="2254.07,-178.5 2264.07,-175 2254.07,-171.5 2254.07,-178.5"/>
</g>
<!-- VlibrasComponent -->
<g id="node6" class="node">
<title>VlibrasComponent</title>
<polygon fill="#ffffb3" stroke="black" points="696.04,-122 573.96,-122 573.96,-86 696.04,-86 696.04,-122"/>
<text text-anchor="middle" x="635" y="-99.8" font-family="Times,serif" font-size="14.00">VlibrasComponent</text>
</g>
<!-- VlibrasComponent&#45;&gt;AppModule -->
<g id="edge6" class="edge">
<title>VlibrasComponent&#45;&gt;AppModule</title>
<path fill="none" stroke="black" d="M635,-122.29C635,-144.21 635,-178 635,-178 635,-178 2254.28,-178 2254.28,-178"/>
<polygon fill="black" stroke="black" points="2254.28,-181.5 2264.28,-178 2254.28,-174.5 2254.28,-181.5"/>
</g>
<!-- AppComponent  -->
<g id="node28" class="node">
<title>AppComponent </title>
<polygon fill="#80b1d3" stroke="black" points="2360.44,-252 2251.56,-252 2251.56,-216 2360.44,-216 2360.44,-252"/>
<text text-anchor="middle" x="2306" y="-229.8" font-family="Times,serif" font-size="14.00">AppComponent </text>
</g>
<!-- AppModule&#45;&gt;AppComponent  -->
<g id="edge27" class="edge">
<title>AppModule&#45;&gt;AppComponent </title>
<path fill="none" stroke="black" stroke-dasharray="1,5" d="M2306,-187.11C2306,-187.11 2306,-205.99 2306,-205.99"/>
<polygon fill="black" stroke="black" points="2302.5,-205.99 2306,-215.99 2309.5,-205.99 2302.5,-205.99"/>
</g>
<!-- AppRoutingModule -->
<g id="node8" class="node">
<title>AppRoutingModule</title>
<polygon fill="#8dd3c7" stroke="black" points="4141.27,-122 4138.27,-126 4117.27,-126 4114.27,-122 4012.73,-122 4012.73,-86 4141.27,-86 4141.27,-122"/>
<text text-anchor="middle" x="4077" y="-99.8" font-family="Times,serif" font-size="14.00">AppRoutingModule</text>
</g>
<!-- AppRoutingModule&#45;&gt;AppModule -->
<g id="edge7" class="edge">
<title>AppRoutingModule&#45;&gt;AppModule</title>
<path fill="none" stroke="black" d="M4077,-122.38C4077,-146.28 4077,-185 4077,-185 4077,-185 2358.03,-185 2358.03,-185"/>
<polygon fill="black" stroke="black" points="2358.03,-181.5 2348.03,-185 2358.03,-188.5 2358.03,-181.5"/>
</g>
<!-- ButtonModule -->
<g id="node9" class="node">
<title>ButtonModule</title>
<polygon fill="#8dd3c7" stroke="black" points="3994.67,-122 3991.67,-126 3970.67,-126 3967.67,-122 3897.33,-122 3897.33,-86 3994.67,-86 3994.67,-122"/>
<text text-anchor="middle" x="3946" y="-99.8" font-family="Times,serif" font-size="14.00">ButtonModule</text>
</g>
<!-- ButtonModule&#45;&gt;AppModule -->
<g id="edge8" class="edge">
<title>ButtonModule&#45;&gt;AppModule</title>
<path fill="none" stroke="black" d="M3946,-122.32C3946,-145.66 3946,-183 3946,-183 3946,-183 2357.77,-183 2357.77,-183"/>
<polygon fill="black" stroke="black" points="2357.77,-179.5 2347.77,-183 2357.77,-186.5 2357.77,-179.5"/>
</g>
<!-- ChatModule -->
<g id="node10" class="node">
<title>ChatModule</title>
<polygon fill="#8dd3c7" stroke="black" points="3878.99,-122 3875.99,-126 3854.99,-126 3851.99,-122 3793.01,-122 3793.01,-86 3878.99,-86 3878.99,-122"/>
<text text-anchor="middle" x="3836" y="-99.8" font-family="Times,serif" font-size="14.00">ChatModule</text>
</g>
<!-- ChatModule&#45;&gt;AppModule -->
<g id="edge9" class="edge">
<title>ChatModule&#45;&gt;AppModule</title>
<path fill="none" stroke="black" d="M3836,-122.01C3836,-144.49 3836,-180 3836,-180 3836,-180 2357.72,-180 2357.72,-180"/>
<polygon fill="black" stroke="black" points="2357.72,-176.5 2347.72,-180 2357.72,-183.5 2357.72,-176.5"/>
</g>
<!-- GroupsSelectModule -->
<g id="node11" class="node">
<title>GroupsSelectModule</title>
<polygon fill="#8dd3c7" stroke="black" points="3775.47,-122 3772.47,-126 3751.47,-126 3748.47,-122 3640.53,-122 3640.53,-86 3775.47,-86 3775.47,-122"/>
<text text-anchor="middle" x="3708" y="-99.8" font-family="Times,serif" font-size="14.00">GroupsSelectModule</text>
</g>
<!-- GroupsSelectModule&#45;&gt;AppModule -->
<g id="edge10" class="edge">
<title>GroupsSelectModule&#45;&gt;AppModule</title>
<path fill="none" stroke="black" d="M3708,-122.29C3708,-144.21 3708,-178 3708,-178 3708,-178 2357.96,-178 2357.96,-178"/>
<polygon fill="black" stroke="black" points="2357.96,-174.5 2347.96,-178 2357.96,-181.5 2357.96,-174.5"/>
</g>
<!-- HeaderModule -->
<g id="node12" class="node">
<title>HeaderModule</title>
<polygon fill="#8dd3c7" stroke="black" points="3622.96,-122 3619.96,-126 3598.96,-126 3595.96,-122 3523.04,-122 3523.04,-86 3622.96,-86 3622.96,-122"/>
<text text-anchor="middle" x="3573" y="-99.8" font-family="Times,serif" font-size="14.00">HeaderModule</text>
</g>
<!-- HeaderModule&#45;&gt;AppModule -->
<g id="edge11" class="edge">
<title>HeaderModule&#45;&gt;AppModule</title>
<path fill="none" stroke="black" d="M3573,-122.28C3573,-143.32 3573,-175 3573,-175 3573,-175 2357.79,-175 2357.79,-175"/>
<polygon fill="black" stroke="black" points="2357.79,-171.5 2347.79,-175 2357.79,-178.5 2357.79,-171.5"/>
</g>
<!-- HomeModule -->
<g id="node13" class="node">
<title>HomeModule</title>
<polygon fill="#8dd3c7" stroke="black" points="3504.76,-122 3501.76,-126 3480.76,-126 3477.76,-122 3411.24,-122 3411.24,-86 3504.76,-86 3504.76,-122"/>
<text text-anchor="middle" x="3458" y="-99.8" font-family="Times,serif" font-size="14.00">HomeModule</text>
</g>
<!-- HomeModule&#45;&gt;AppModule -->
<g id="edge12" class="edge">
<title>HomeModule&#45;&gt;AppModule</title>
<path fill="none" stroke="black" d="M3458,-122.13C3458,-142.57 3458,-173 3458,-173 3458,-173 2357.68,-173 2357.68,-173"/>
<polygon fill="black" stroke="black" points="2357.68,-169.5 2347.68,-173 2357.68,-176.5 2357.68,-169.5"/>
</g>
<!-- InputModule -->
<g id="node14" class="node">
<title>InputModule</title>
<polygon fill="#8dd3c7" stroke="black" points="3393.6,-122 3390.6,-126 3369.6,-126 3366.6,-122 3304.4,-122 3304.4,-86 3393.6,-86 3393.6,-122"/>
<text text-anchor="middle" x="3349" y="-99.8" font-family="Times,serif" font-size="14.00">InputModule</text>
</g>
<!-- InputModule&#45;&gt;AppModule -->
<g id="edge13" class="edge">
<title>InputModule&#45;&gt;AppModule</title>
<path fill="none" stroke="black" d="M3349,-122.31C3349,-142.15 3349,-171 3349,-171 3349,-171 2357.85,-171 2357.85,-171"/>
<polygon fill="black" stroke="black" points="2357.85,-167.5 2347.85,-171 2357.85,-174.5 2357.85,-167.5"/>
</g>
<!-- LoginModule -->
<g id="node15" class="node">
<title>LoginModule</title>
<polygon fill="#8dd3c7" stroke="black" points="3286.49,-122 3283.49,-126 3262.49,-126 3259.49,-122 3193.51,-122 3193.51,-86 3286.49,-86 3286.49,-122"/>
<text text-anchor="middle" x="3240" y="-99.8" font-family="Times,serif" font-size="14.00">LoginModule</text>
</g>
<!-- LoginModule&#45;&gt;AppModule -->
<g id="edge14" class="edge">
<title>LoginModule&#45;&gt;AppModule</title>
<path fill="none" stroke="black" d="M3240,-122.17C3240,-141.09 3240,-168 3240,-168 3240,-168 2357.95,-168 2357.95,-168"/>
<polygon fill="black" stroke="black" points="2357.95,-164.5 2347.95,-168 2357.95,-171.5 2357.95,-164.5"/>
</g>
<!-- MinichatModule -->
<g id="node16" class="node">
<title>MinichatModule</title>
<polygon fill="#8dd3c7" stroke="black" points="3175.1,-122 3172.1,-126 3151.1,-126 3148.1,-122 3064.9,-122 3064.9,-86 3175.1,-86 3175.1,-122"/>
<text text-anchor="middle" x="3120" y="-99.8" font-family="Times,serif" font-size="14.00">MinichatModule</text>
</g>
<!-- MinichatModule&#45;&gt;AppModule -->
<g id="edge15" class="edge">
<title>MinichatModule&#45;&gt;AppModule</title>
<path fill="none" stroke="black" d="M3120,-122.27C3120,-140.56 3120,-166 3120,-166 3120,-166 2357.77,-166 2357.77,-166"/>
<polygon fill="black" stroke="black" points="2357.77,-162.5 2347.77,-166 2357.77,-169.5 2357.77,-162.5"/>
</g>
<!-- MinichatTASKModule -->
<g id="node17" class="node">
<title>MinichatTASKModule</title>
<polygon fill="#8dd3c7" stroke="black" points="3047.14,-122 3044.14,-126 3023.14,-126 3020.14,-122 2900.86,-122 2900.86,-86 3047.14,-86 3047.14,-122"/>
<text text-anchor="middle" x="2974" y="-99.8" font-family="Times,serif" font-size="14.00">MinichatTASKModule</text>
</g>
<!-- MinichatTASKModule&#45;&gt;AppModule -->
<g id="edge16" class="edge">
<title>MinichatTASKModule&#45;&gt;AppModule</title>
<path fill="none" stroke="black" d="M2974,-122.02C2974,-139.37 2974,-163 2974,-163 2974,-163 2357.79,-163 2357.79,-163"/>
<polygon fill="black" stroke="black" points="2357.79,-159.5 2347.79,-163 2357.79,-166.5 2357.79,-159.5"/>
</g>
<!-- NotificationModule -->
<g id="node18" class="node">
<title>NotificationModule</title>
<polygon fill="#8dd3c7" stroke="black" points="2882.7,-122 2879.7,-126 2858.7,-126 2855.7,-122 2755.3,-122 2755.3,-86 2882.7,-86 2882.7,-122"/>
<text text-anchor="middle" x="2819" y="-99.8" font-family="Times,serif" font-size="14.00">NotificationModule</text>
</g>
<!-- NotificationModule&#45;&gt;AppModule -->
<g id="edge17" class="edge">
<title>NotificationModule&#45;&gt;AppModule</title>
<path fill="none" stroke="black" d="M2819,-122.04C2819,-138.73 2819,-161 2819,-161 2819,-161 2357.98,-161 2357.98,-161"/>
<polygon fill="black" stroke="black" points="2357.98,-157.5 2347.98,-161 2357.98,-164.5 2357.98,-157.5"/>
</g>
<!-- ProjectsModule -->
<g id="node19" class="node">
<title>ProjectsModule</title>
<polygon fill="#8dd3c7" stroke="black" points="2737.15,-122 2734.15,-126 2713.15,-126 2710.15,-122 2632.85,-122 2632.85,-86 2737.15,-86 2737.15,-122"/>
<text text-anchor="middle" x="2685" y="-99.8" font-family="Times,serif" font-size="14.00">ProjectsModule</text>
</g>
<!-- ProjectsModule&#45;&gt;AppModule -->
<g id="edge18" class="edge">
<title>ProjectsModule&#45;&gt;AppModule</title>
<path fill="none" stroke="black" d="M2685,-122.01C2685,-138.05 2685,-159 2685,-159 2685,-159 2358.01,-159 2358.01,-159"/>
<polygon fill="black" stroke="black" points="2358.01,-155.5 2348.01,-159 2358.01,-162.5 2358.01,-155.5"/>
</g>
<!-- RegisterModule -->
<g id="node20" class="node">
<title>RegisterModule</title>
<polygon fill="#8dd3c7" stroke="black" points="2615.2,-122 2612.2,-126 2591.2,-126 2588.2,-122 2508.8,-122 2508.8,-86 2615.2,-86 2615.2,-122"/>
<text text-anchor="middle" x="2562" y="-99.8" font-family="Times,serif" font-size="14.00">RegisterModule</text>
</g>
<!-- RegisterModule&#45;&gt;AppModule -->
<g id="edge19" class="edge">
<title>RegisterModule&#45;&gt;AppModule</title>
<path fill="none" stroke="black" d="M2562,-122.19C2562,-137.18 2562,-156 2562,-156 2562,-156 2357.7,-156 2357.7,-156"/>
<polygon fill="black" stroke="black" points="2357.7,-152.5 2347.7,-156 2357.7,-159.5 2357.7,-152.5"/>
</g>
<!-- SearchAllModule -->
<g id="node21" class="node">
<title>SearchAllModule</title>
<polygon fill="#8dd3c7" stroke="black" points="2490.53,-122 2487.53,-126 2466.53,-126 2463.53,-122 2375.47,-122 2375.47,-86 2490.53,-86 2490.53,-122"/>
<text text-anchor="middle" x="2433" y="-99.8" font-family="Times,serif" font-size="14.00">SearchAllModule</text>
</g>
<!-- SearchAllModule&#45;&gt;AppModule -->
<g id="edge20" class="edge">
<title>SearchAllModule&#45;&gt;AppModule</title>
<path fill="none" stroke="black" d="M2433,-122.05C2433,-136.37 2433,-154 2433,-154 2433,-154 2357.94,-154 2357.94,-154"/>
<polygon fill="black" stroke="black" points="2357.94,-150.5 2347.94,-154 2357.94,-157.5 2357.94,-150.5"/>
</g>
<!-- SidebarModule -->
<g id="node22" class="node">
<title>SidebarModule</title>
<polygon fill="#8dd3c7" stroke="black" points="2357.31,-122 2354.31,-126 2333.31,-126 2330.31,-122 2254.69,-122 2254.69,-86 2357.31,-86 2357.31,-122"/>
<text text-anchor="middle" x="2306" y="-99.8" font-family="Times,serif" font-size="14.00">SidebarModule</text>
</g>
<!-- SidebarModule&#45;&gt;AppModule -->
<g id="edge21" class="edge">
<title>SidebarModule&#45;&gt;AppModule</title>
<path fill="none" stroke="black" d="M2306,-122.11C2306,-122.11 2306,-140.99 2306,-140.99"/>
<polygon fill="black" stroke="black" points="2302.5,-140.99 2306,-150.99 2309.5,-140.99 2302.5,-140.99"/>
</g>
<!-- TaskModule -->
<g id="node23" class="node">
<title>TaskModule</title>
<polygon fill="#8dd3c7" stroke="black" points="2236.26,-122 2233.26,-126 2212.26,-126 2209.26,-122 2149.74,-122 2149.74,-86 2236.26,-86 2236.26,-122"/>
<text text-anchor="middle" x="2193" y="-99.8" font-family="Times,serif" font-size="14.00">TaskModule</text>
</g>
<!-- TaskModule&#45;&gt;AppModule -->
<g id="edge22" class="edge">
<title>TaskModule&#45;&gt;AppModule</title>
<path fill="none" stroke="black" d="M2193,-122.05C2193,-136.37 2193,-154 2193,-154 2193,-154 2254.24,-154 2254.24,-154"/>
<polygon fill="black" stroke="black" points="2254.24,-157.5 2264.24,-154 2254.24,-150.5 2254.24,-157.5"/>
</g>
<!-- TasksModule -->
<g id="node24" class="node">
<title>TasksModule</title>
<polygon fill="#8dd3c7" stroke="black" points="2132.21,-122 2129.21,-126 2108.21,-126 2105.21,-122 2039.79,-122 2039.79,-86 2132.21,-86 2132.21,-122"/>
<text text-anchor="middle" x="2086" y="-99.8" font-family="Times,serif" font-size="14.00">TasksModule</text>
</g>
<!-- TasksModule&#45;&gt;AppModule -->
<g id="edge23" class="edge">
<title>TasksModule&#45;&gt;AppModule</title>
<path fill="none" stroke="black" d="M2086,-122.19C2086,-137.18 2086,-156 2086,-156 2086,-156 2254.1,-156 2254.1,-156"/>
<polygon fill="black" stroke="black" points="2254.1,-159.5 2264.1,-156 2254.1,-152.5 2254.1,-159.5"/>
</g>
<!-- TeamInformationsModule -->
<g id="node25" class="node">
<title>TeamInformationsModule</title>
<polygon fill="#8dd3c7" stroke="black" points="2021.74,-122 2018.74,-126 1997.74,-126 1994.74,-122 1858.26,-122 1858.26,-86 2021.74,-86 2021.74,-122"/>
<text text-anchor="middle" x="1940" y="-99.8" font-family="Times,serif" font-size="14.00">TeamInformationsModule</text>
</g>
<!-- TeamInformationsModule&#45;&gt;AppModule -->
<g id="edge24" class="edge">
<title>TeamInformationsModule&#45;&gt;AppModule</title>
<path fill="none" stroke="black" d="M1940,-122.01C1940,-138.05 1940,-159 1940,-159 1940,-159 2254.02,-159 2254.02,-159"/>
<polygon fill="black" stroke="black" points="2254.02,-162.5 2264.02,-159 2254.02,-155.5 2254.02,-162.5"/>
</g>
<!-- UserInformationsModule -->
<g id="node26" class="node">
<title>UserInformationsModule</title>
<polygon fill="#8dd3c7" stroke="black" points="1840.29,-122 1837.29,-126 1816.29,-126 1813.29,-122 1681.71,-122 1681.71,-86 1840.29,-86 1840.29,-122"/>
<text text-anchor="middle" x="1761" y="-99.8" font-family="Times,serif" font-size="14.00">UserInformationsModule</text>
</g>
<!-- UserInformationsModule&#45;&gt;AppModule -->
<g id="edge25" class="edge">
<title>UserInformationsModule&#45;&gt;AppModule</title>
<path fill="none" stroke="black" d="M1761,-122.04C1761,-138.73 1761,-161 1761,-161 1761,-161 2254.14,-161 2254.14,-161"/>
<polygon fill="black" stroke="black" points="2254.14,-164.5 2264.14,-161 2254.14,-157.5 2254.14,-164.5"/>
</g>
<!-- UserSettingsModule -->
<g id="node27" class="node">
<title>UserSettingsModule</title>
<polygon fill="#8dd3c7" stroke="black" points="1663.59,-122 1660.59,-126 1639.59,-126 1636.59,-122 1532.41,-122 1532.41,-86 1663.59,-86 1663.59,-122"/>
<text text-anchor="middle" x="1598" y="-99.8" font-family="Times,serif" font-size="14.00">UserSettingsModule</text>
</g>
<!-- UserSettingsModule&#45;&gt;AppModule -->
<g id="edge26" class="edge">
<title>UserSettingsModule&#45;&gt;AppModule</title>
<path fill="none" stroke="black" d="M1598,-122.02C1598,-139.37 1598,-163 1598,-163 1598,-163 2254.09,-163 2254.09,-163"/>
<polygon fill="black" stroke="black" points="2254.09,-166.5 2264.09,-163 2254.09,-159.5 2254.09,-166.5"/>
</g>
<!-- AlertService -->
<g id="node29" class="node">
<title>AlertService</title>
<ellipse fill="#fdb462" stroke="black" cx="490" cy="-104" rx="59.66" ry="18"/>
<text text-anchor="middle" x="490" y="-99.8" font-family="Times,serif" font-size="14.00">AlertService</text>
</g>
<!-- AlertService&#45;&gt;AppModule -->
<g id="edge28" class="edge">
<title>AlertService&#45;&gt;AppModule</title>
<path fill="none" stroke="black" d="M490,-122.01C490,-144.49 490,-180 490,-180 490,-180 2254.22,-180 2254.22,-180"/>
<polygon fill="black" stroke="black" points="2254.22,-183.5 2264.22,-180 2254.22,-176.5 2254.22,-183.5"/>
</g>
<!-- LoadingInterceptor -->
<g id="node30" class="node">
<title>LoadingInterceptor</title>
<ellipse fill="#fdb462" stroke="black" cx="327" cy="-104" rx="85.66" ry="18"/>
<text text-anchor="middle" x="327" y="-99.8" font-family="Times,serif" font-size="14.00">LoadingInterceptor</text>
</g>
<!-- LoadingInterceptor&#45;&gt;AppModule -->
<g id="edge29" class="edge">
<title>LoadingInterceptor&#45;&gt;AppModule</title>
<path fill="none" stroke="black" d="M327,-122.32C327,-145.66 327,-183 327,-183 327,-183 2254.21,-183 2254.21,-183"/>
<polygon fill="black" stroke="black" points="2254.21,-186.5 2264.21,-183 2254.21,-179.5 2254.21,-186.5"/>
</g>
<!-- PersonalizationService -->
<g id="node31" class="node">
<title>PersonalizationService</title>
<ellipse fill="#fdb462" stroke="black" cx="124" cy="-104" rx="99.55" ry="18"/>
<text text-anchor="middle" x="124" y="-99.8" font-family="Times,serif" font-size="14.00">PersonalizationService</text>
</g>
<!-- PersonalizationService&#45;&gt;AppModule -->
<g id="edge30" class="edge">
<title>PersonalizationService&#45;&gt;AppModule</title>
<path fill="none" stroke="black" d="M124,-122.38C124,-146.28 124,-185 124,-185 124,-185 2253.88,-185 2253.88,-185"/>
<polygon fill="black" stroke="black" points="2253.88,-188.5 2263.88,-185 2253.88,-181.5 2253.88,-188.5"/>
</g>
</g>
</svg>
