<?xml version="1.0" encoding="UTF-8" standalone="no"?>
<!DOCTYPE svg PUBLIC "-//W3C//DTD SVG 1.1//EN"
 "http://www.w3.org/Graphics/SVG/1.1/DTD/svg11.dtd">
<!-- Generated by graphviz version 2.47.0 (20210316.0004)
 -->
<!-- Title: dependencies Pages: 1 -->
<svg width="1121pt" height="284pt"
 viewBox="0.00 0.00 1121.00 284.00" xmlns="http://www.w3.org/2000/svg" xmlns:xlink="http://www.w3.org/1999/xlink">
<g id="graph0" class="graph" transform="scale(1 1) rotate(0) translate(4 280)">
<title>dependencies</title>
<polygon fill="white" stroke="transparent" points="-4,4 -4,-280 1117,-280 1117,4 -4,4"/>
<text text-anchor="start" x="535.51" y="-42.4" font-family="Times-12" font-weight="bold" font-size="14.00">Legend</text>
<polygon fill="#ffffb3" stroke="transparent" points="322.5,-10 322.5,-30 342.5,-30 342.5,-10 322.5,-10"/>
<text text-anchor="start" x="346.13" y="-15.4" font-family="Times-12" font-size="14.00"> &#160;Declarations</text>
<polygon fill="#8dd3c7" stroke="transparent" points="435.5,-10 435.5,-30 455.5,-30 455.5,-10 435.5,-10"/>
<text text-anchor="start" x="459.23" y="-15.4" font-family="Times-12" font-size="14.00"> &#160;Module</text>
<polygon fill="#80b1d3" stroke="transparent" points="521.5,-10 521.5,-30 541.5,-30 541.5,-10 521.5,-10"/>
<text text-anchor="start" x="545.28" y="-15.4" font-family="Times-12" font-size="14.00"> &#160;Bootstrap</text>
<polygon fill="#fdb462" stroke="transparent" points="618.5,-10 618.5,-30 638.5,-30 638.5,-10 618.5,-10"/>
<text text-anchor="start" x="642.17" y="-15.4" font-family="Times-12" font-size="14.00"> &#160;Providers</text>
<polygon fill="#fb8072" stroke="transparent" points="714.5,-10 714.5,-30 734.5,-30 734.5,-10 714.5,-10"/>
<text text-anchor="start" x="738.23" y="-15.4" font-family="Times-12" font-size="14.00"> &#160;Exports</text>
<g id="clust1" class="cluster">
<title>cluster_ModalPropertiesModule</title>
<polygon fill="none" stroke="black" stroke-dasharray="1,5" points="8,-70 8,-268 1105,-268 1105,-70 8,-70"/>
</g>
<g id="clust2" class="cluster">
<title>cluster_ModalPropertiesModule_declarations</title>
<polygon fill="none" stroke="black" points="907,-78 907,-130 1097,-130 1097,-78 907,-78"/>
</g>
<g id="clust4" class="cluster">
<title>cluster_ModalPropertiesModule_imports</title>
<polygon fill="none" stroke="black" points="16,-78 16,-130 899,-130 899,-78 16,-78"/>
</g>
<g id="clust5" class="cluster">
<title>cluster_ModalPropertiesModule_exports</title>
<polygon fill="none" stroke="black" points="448,-208 448,-260 642,-260 642,-208 448,-208"/>
</g>
<!-- ModalPropertiesComponent -->
<g id="node1" class="node">
<title>ModalPropertiesComponent</title>
<polygon fill="#ffffb3" stroke="black" points="1089.14,-122 914.86,-122 914.86,-86 1089.14,-86 1089.14,-122"/>
<text text-anchor="middle" x="1002" y="-99.8" font-family="Times,serif" font-size="14.00">ModalPropertiesComponent</text>
</g>
<!-- ModalPropertiesModule -->
<g id="node2" class="node">
<title>ModalPropertiesModule</title>
<polygon fill="#8dd3c7" stroke="black" points="621.36,-187 618.36,-191 597.36,-191 594.36,-187 468.64,-187 468.64,-151 621.36,-151 621.36,-187"/>
<text text-anchor="middle" x="545" y="-164.8" font-family="Times,serif" font-size="14.00">ModalPropertiesModule</text>
</g>
<!-- ModalPropertiesComponent&#45;&gt;ModalPropertiesModule -->
<g id="edge1" class="edge">
<title>ModalPropertiesComponent&#45;&gt;ModalPropertiesModule</title>
<path fill="none" stroke="black" d="M1002,-122.29C1002,-144.21 1002,-178 1002,-178 1002,-178 631.49,-178 631.49,-178"/>
<polygon fill="black" stroke="black" points="631.49,-174.5 621.49,-178 631.49,-181.5 631.49,-174.5"/>
</g>
<!-- ModalPropertiesComponent  -->
<g id="node9" class="node">
<title>ModalPropertiesComponent </title>
<polygon fill="#fb8072" stroke="black" points="634.14,-252 455.86,-252 455.86,-216 634.14,-216 634.14,-252"/>
<text text-anchor="middle" x="545" y="-229.8" font-family="Times,serif" font-size="14.00">ModalPropertiesComponent </text>
</g>
<!-- ModalPropertiesModule&#45;&gt;ModalPropertiesComponent  -->
<g id="edge8" class="edge">
<title>ModalPropertiesModule&#45;&gt;ModalPropertiesComponent </title>
<path fill="none" stroke="black" stroke-dasharray="5,2" d="M545,-187.11C545,-187.11 545,-205.99 545,-205.99"/>
<polygon fill="black" stroke="black" points="541.5,-205.99 545,-215.99 548.5,-205.99 541.5,-205.99"/>
</g>
<!-- ColorsModule -->
<g id="node3" class="node">
<title>ColorsModule</title>
<polygon fill="#8dd3c7" stroke="black" points="891.38,-122 888.38,-126 867.38,-126 864.38,-122 794.62,-122 794.62,-86 891.38,-86 891.38,-122"/>
<text text-anchor="middle" x="843" y="-99.8" font-family="Times,serif" font-size="14.00">ColorsModule</text>
</g>
<!-- ColorsModule&#45;&gt;ModalPropertiesModule -->
<g id="edge2" class="edge">
<title>ColorsModule&#45;&gt;ModalPropertiesModule</title>
<path fill="none" stroke="black" d="M843,-122.11C843,-141.34 843,-169 843,-169 843,-169 631.74,-169 631.74,-169"/>
<polygon fill="black" stroke="black" points="631.74,-165.5 621.74,-169 631.74,-172.5 631.74,-165.5"/>
</g>
<!-- ConfirmModalModule -->
<g id="node4" class="node">
<title>ConfirmModalModule</title>
<polygon fill="#8dd3c7" stroke="black" points="776.54,-122 773.54,-126 752.54,-126 749.54,-122 633.46,-122 633.46,-86 776.54,-86 776.54,-122"/>
<text text-anchor="middle" x="705" y="-99.8" font-family="Times,serif" font-size="14.00">ConfirmModalModule</text>
</g>
<!-- ConfirmModalModule&#45;&gt;ModalPropertiesModule -->
<g id="edge3" class="edge">
<title>ConfirmModalModule&#45;&gt;ModalPropertiesModule</title>
<path fill="none" stroke="black" d="M705.42,-122.03C705.42,-138.4 705.42,-160 705.42,-160 705.42,-160 631.45,-160 631.45,-160"/>
<polygon fill="black" stroke="black" points="631.45,-156.5 621.45,-160 631.45,-163.5 631.45,-156.5"/>
</g>
<!-- EditPropertiesModule -->
<g id="node5" class="node">
<title>EditPropertiesModule</title>
<polygon fill="#8dd3c7" stroke="black" points="614.64,-122 611.64,-126 590.64,-126 587.64,-122 475.36,-122 475.36,-86 614.64,-86 614.64,-122"/>
<text text-anchor="middle" x="545" y="-99.8" font-family="Times,serif" font-size="14.00">EditPropertiesModule</text>
</g>
<!-- EditPropertiesModule&#45;&gt;ModalPropertiesModule -->
<g id="edge4" class="edge">
<title>EditPropertiesModule&#45;&gt;ModalPropertiesModule</title>
<path fill="none" stroke="black" d="M545,-122.11C545,-122.11 545,-140.99 545,-140.99"/>
<polygon fill="black" stroke="black" points="541.5,-140.99 545,-150.99 548.5,-140.99 541.5,-140.99"/>
</g>
<!-- GeneralPropertiesModule -->
<g id="node6" class="node">
<title>GeneralPropertiesModule</title>
<polygon fill="#8dd3c7" stroke="black" points="457.11,-122 454.11,-126 433.11,-126 430.11,-122 296.89,-122 296.89,-86 457.11,-86 457.11,-122"/>
<text text-anchor="middle" x="377" y="-99.8" font-family="Times,serif" font-size="14.00">GeneralPropertiesModule</text>
</g>
<!-- GeneralPropertiesModule&#45;&gt;ModalPropertiesModule -->
<g id="edge5" class="edge">
<title>GeneralPropertiesModule&#45;&gt;ModalPropertiesModule</title>
<path fill="none" stroke="black" d="M376.31,-122.03C376.31,-138.4 376.31,-160 376.31,-160 376.31,-160 458.55,-160 458.55,-160"/>
<polygon fill="black" stroke="black" points="458.55,-163.5 468.55,-160 458.55,-156.5 458.55,-163.5"/>
</g>
<!-- ItemsSelectionModule -->
<g id="node7" class="node">
<title>ItemsSelectionModule</title>
<polygon fill="#8dd3c7" stroke="black" points="278.25,-122 275.25,-126 254.25,-126 251.25,-122 135.75,-122 135.75,-86 278.25,-86 278.25,-122"/>
<text text-anchor="middle" x="207" y="-99.8" font-family="Times,serif" font-size="14.00">ItemsSelectionModule</text>
</g>
<!-- ItemsSelectionModule&#45;&gt;ModalPropertiesModule -->
<g id="edge6" class="edge">
<title>ItemsSelectionModule&#45;&gt;ModalPropertiesModule</title>
<path fill="none" stroke="black" d="M207,-122.11C207,-141.34 207,-169 207,-169 207,-169 458.3,-169 458.3,-169"/>
<polygon fill="black" stroke="black" points="458.3,-172.5 468.3,-169 458.3,-165.5 458.3,-172.5"/>
</g>
<!-- StatusModule -->
<g id="node8" class="node">
<title>StatusModule</title>
<polygon fill="#8dd3c7" stroke="black" points="117.77,-122 114.77,-126 93.77,-126 90.77,-122 24.23,-122 24.23,-86 117.77,-86 117.77,-122"/>
<text text-anchor="middle" x="71" y="-99.8" font-family="Times,serif" font-size="14.00">StatusModule</text>
</g>
<!-- StatusModule&#45;&gt;ModalPropertiesModule -->
<g id="edge7" class="edge">
<title>StatusModule&#45;&gt;ModalPropertiesModule</title>
<path fill="none" stroke="black" d="M71,-122.29C71,-144.21 71,-178 71,-178 71,-178 458.58,-178 458.58,-178"/>
<polygon fill="black" stroke="black" points="458.58,-181.5 468.58,-178 458.58,-174.5 458.58,-181.5"/>
</g>
</g>
</svg>
