<?xml version="1.0" encoding="UTF-8" standalone="no"?>
<!DOCTYPE svg PUBLIC "-//W3C//DTD SVG 1.1//EN"
 "http://www.w3.org/Graphics/SVG/1.1/DTD/svg11.dtd">
<!-- Generated by graphviz version 2.47.0 (20210316.0004)
 -->
<!-- Title: dependencies Pages: 1 -->
<svg width="504pt" height="284pt"
 viewBox="0.00 0.00 504.00 284.00" xmlns="http://www.w3.org/2000/svg" xmlns:xlink="http://www.w3.org/1999/xlink">
<g id="graph0" class="graph" transform="scale(1 1) rotate(0) translate(4 280)">
<title>dependencies</title>
<polygon fill="white" stroke="transparent" points="-4,4 -4,-280 500,-280 500,4 -4,4"/>
<text text-anchor="start" x="227.01" y="-42.4" font-family="Times-12" font-weight="bold" font-size="14.00">Legend</text>
<polygon fill="#ffffb3" stroke="transparent" points="14,-10 14,-30 34,-30 34,-10 14,-10"/>
<text text-anchor="start" x="37.63" y="-15.4" font-family="Times-12" font-size="14.00"> &#160;Declarations</text>
<polygon fill="#8dd3c7" stroke="transparent" points="127,-10 127,-30 147,-30 147,-10 127,-10"/>
<text text-anchor="start" x="150.73" y="-15.4" font-family="Times-12" font-size="14.00"> &#160;Module</text>
<polygon fill="#80b1d3" stroke="transparent" points="213,-10 213,-30 233,-30 233,-10 213,-10"/>
<text text-anchor="start" x="236.78" y="-15.4" font-family="Times-12" font-size="14.00"> &#160;Bootstrap</text>
<polygon fill="#fdb462" stroke="transparent" points="310,-10 310,-30 330,-30 330,-10 310,-10"/>
<text text-anchor="start" x="333.67" y="-15.4" font-family="Times-12" font-size="14.00"> &#160;Providers</text>
<polygon fill="#fb8072" stroke="transparent" points="406,-10 406,-30 426,-30 426,-10 406,-10"/>
<text text-anchor="start" x="429.73" y="-15.4" font-family="Times-12" font-size="14.00"> &#160;Exports</text>
<g id="clust1" class="cluster">
<title>cluster_ItemsSelectionModule</title>
<polygon fill="none" stroke="black" stroke-dasharray="1,5" points="66,-70 66,-268 430,-268 430,-70 66,-70"/>
</g>
<g id="clust5" class="cluster">
<title>cluster_ItemsSelectionModule_exports</title>
<polygon fill="none" stroke="black" points="156,-208 156,-260 340,-260 340,-208 156,-208"/>
</g>
<g id="clust4" class="cluster">
<title>cluster_ItemsSelectionModule_imports</title>
<polygon fill="none" stroke="black" points="262,-78 262,-130 422,-130 422,-78 262,-78"/>
</g>
<g id="clust2" class="cluster">
<title>cluster_ItemsSelectionModule_declarations</title>
<polygon fill="none" stroke="black" points="74,-78 74,-130 254,-130 254,-78 74,-78"/>
</g>
<!-- ItemsSelectionComponent -->
<g id="node1" class="node">
<title>ItemsSelectionComponent</title>
<polygon fill="#ffffb3" stroke="black" points="246.03,-122 81.97,-122 81.97,-86 246.03,-86 246.03,-122"/>
<text text-anchor="middle" x="164" y="-99.8" font-family="Times,serif" font-size="14.00">ItemsSelectionComponent</text>
</g>
<!-- ItemsSelectionModule -->
<g id="node2" class="node">
<title>ItemsSelectionModule</title>
<polygon fill="#8dd3c7" stroke="black" points="319.25,-187 316.25,-191 295.25,-191 292.25,-187 176.75,-187 176.75,-151 319.25,-151 319.25,-187"/>
<text text-anchor="middle" x="248" y="-164.8" font-family="Times,serif" font-size="14.00">ItemsSelectionModule</text>
</g>
<!-- ItemsSelectionComponent&#45;&gt;ItemsSelectionModule -->
<g id="edge1" class="edge">
<title>ItemsSelectionComponent&#45;&gt;ItemsSelectionModule</title>
<path fill="none" stroke="black" d="M211.45,-122.11C211.45,-122.11 211.45,-140.99 211.45,-140.99"/>
<polygon fill="black" stroke="black" points="207.95,-140.99 211.45,-150.99 214.95,-140.99 207.95,-140.99"/>
</g>
<!-- ItemsSelectionComponent  -->
<g id="node4" class="node">
<title>ItemsSelectionComponent </title>
<polygon fill="#fb8072" stroke="black" points="332.03,-252 163.97,-252 163.97,-216 332.03,-216 332.03,-252"/>
<text text-anchor="middle" x="248" y="-229.8" font-family="Times,serif" font-size="14.00">ItemsSelectionComponent </text>
</g>
<!-- ItemsSelectionModule&#45;&gt;ItemsSelectionComponent  -->
<g id="edge3" class="edge">
<title>ItemsSelectionModule&#45;&gt;ItemsSelectionComponent </title>
<path fill="none" stroke="black" stroke-dasharray="5,2" d="M248,-187.11C248,-187.11 248,-205.99 248,-205.99"/>
<polygon fill="black" stroke="black" points="244.5,-205.99 248,-215.99 251.5,-205.99 244.5,-205.99"/>
</g>
<!-- ConfirmModalModule -->
<g id="node3" class="node">
<title>ConfirmModalModule</title>
<polygon fill="#8dd3c7" stroke="black" points="413.54,-122 410.54,-126 389.54,-126 386.54,-122 270.46,-122 270.46,-86 413.54,-86 413.54,-122"/>
<text text-anchor="middle" x="342" y="-99.8" font-family="Times,serif" font-size="14.00">ConfirmModalModule</text>
</g>
<!-- ConfirmModalModule&#45;&gt;ItemsSelectionModule -->
<g id="edge2" class="edge">
<title>ConfirmModalModule&#45;&gt;ItemsSelectionModule</title>
<path fill="none" stroke="black" d="M294.8,-122.11C294.8,-122.11 294.8,-140.99 294.8,-140.99"/>
<polygon fill="black" stroke="black" points="291.3,-140.99 294.8,-150.99 298.3,-140.99 291.3,-140.99"/>
</g>
</g>
</svg>
