<?xml version="1.0" encoding="UTF-8" standalone="no"?>
<!DOCTYPE svg PUBLIC "-//W3C//DTD SVG 1.1//EN"
 "http://www.w3.org/Graphics/SVG/1.1/DTD/svg11.dtd">
<!-- Generated by graphviz version 2.47.0 (20210316.0004)
 -->
<!-- Title: dependencies Pages: 1 -->
<svg width="504pt" height="284pt"
 viewBox="0.00 0.00 504.00 284.00" xmlns="http://www.w3.org/2000/svg" xmlns:xlink="http://www.w3.org/1999/xlink">
<g id="graph0" class="graph" transform="scale(1 1) rotate(0) translate(4 280)">
<title>dependencies</title>
<polygon fill="white" stroke="transparent" points="-4,4 -4,-280 500,-280 500,4 -4,4"/>
<text text-anchor="start" x="227.01" y="-42.4" font-family="Times-12" font-weight="bold" font-size="14.00">Legend</text>
<polygon fill="#ffffb3" stroke="transparent" points="14,-10 14,-30 34,-30 34,-10 14,-10"/>
<text text-anchor="start" x="37.63" y="-15.4" font-family="Times-12" font-size="14.00"> &#160;Declarations</text>
<polygon fill="#8dd3c7" stroke="transparent" points="127,-10 127,-30 147,-30 147,-10 127,-10"/>
<text text-anchor="start" x="150.73" y="-15.4" font-family="Times-12" font-size="14.00"> &#160;Module</text>
<polygon fill="#80b1d3" stroke="transparent" points="213,-10 213,-30 233,-30 233,-10 213,-10"/>
<text text-anchor="start" x="236.78" y="-15.4" font-family="Times-12" font-size="14.00"> &#160;Bootstrap</text>
<polygon fill="#fdb462" stroke="transparent" points="310,-10 310,-30 330,-30 330,-10 310,-10"/>
<text text-anchor="start" x="333.67" y="-15.4" font-family="Times-12" font-size="14.00"> &#160;Providers</text>
<polygon fill="#fb8072" stroke="transparent" points="406,-10 406,-30 426,-30 426,-10 406,-10"/>
<text text-anchor="start" x="429.73" y="-15.4" font-family="Times-12" font-size="14.00"> &#160;Exports</text>
<g id="clust1" class="cluster">
<title>cluster_ConfirmModalModule</title>
<polygon fill="none" stroke="black" stroke-dasharray="1,5" points="85,-70 85,-268 411,-268 411,-70 85,-70"/>
</g>
<g id="clust2" class="cluster">
<title>cluster_ConfirmModalModule_declarations</title>
<polygon fill="none" stroke="black" points="221,-78 221,-130 403,-130 403,-78 221,-78"/>
</g>
<g id="clust5" class="cluster">
<title>cluster_ConfirmModalModule_exports</title>
<polygon fill="none" stroke="black" points="156,-208 156,-260 340,-260 340,-208 156,-208"/>
</g>
<g id="clust4" class="cluster">
<title>cluster_ConfirmModalModule_imports</title>
<polygon fill="none" stroke="black" points="93,-78 93,-130 213,-130 213,-78 93,-78"/>
</g>
<!-- ConfirmModalComponent -->
<g id="node1" class="node">
<title>ConfirmModalComponent</title>
<polygon fill="#ffffb3" stroke="black" points="394.82,-122 229.18,-122 229.18,-86 394.82,-86 394.82,-122"/>
<text text-anchor="middle" x="312" y="-99.8" font-family="Times,serif" font-size="14.00">ConfirmModalComponent</text>
</g>
<!-- ConfirmModalModule -->
<g id="node2" class="node">
<title>ConfirmModalModule</title>
<polygon fill="#8dd3c7" stroke="black" points="319.54,-187 316.54,-191 295.54,-191 292.54,-187 176.46,-187 176.46,-151 319.54,-151 319.54,-187"/>
<text text-anchor="middle" x="248" y="-164.8" font-family="Times,serif" font-size="14.00">ConfirmModalModule</text>
</g>
<!-- ConfirmModalComponent&#45;&gt;ConfirmModalModule -->
<g id="edge1" class="edge">
<title>ConfirmModalComponent&#45;&gt;ConfirmModalModule</title>
<path fill="none" stroke="black" d="M274.55,-122.11C274.55,-122.11 274.55,-140.99 274.55,-140.99"/>
<polygon fill="black" stroke="black" points="271.05,-140.99 274.55,-150.99 278.05,-140.99 271.05,-140.99"/>
</g>
<!-- ConfirmModalComponent  -->
<g id="node4" class="node">
<title>ConfirmModalComponent </title>
<polygon fill="#fb8072" stroke="black" points="332.32,-252 163.68,-252 163.68,-216 332.32,-216 332.32,-252"/>
<text text-anchor="middle" x="248" y="-229.8" font-family="Times,serif" font-size="14.00">ConfirmModalComponent </text>
</g>
<!-- ConfirmModalModule&#45;&gt;ConfirmModalComponent  -->
<g id="edge3" class="edge">
<title>ConfirmModalModule&#45;&gt;ConfirmModalComponent </title>
<path fill="none" stroke="black" stroke-dasharray="5,2" d="M248,-187.11C248,-187.11 248,-205.99 248,-205.99"/>
<polygon fill="black" stroke="black" points="244.5,-205.99 248,-215.99 251.5,-205.99 244.5,-205.99"/>
</g>
<!-- DeletedModule -->
<g id="node3" class="node">
<title>DeletedModule</title>
<polygon fill="#8dd3c7" stroke="black" points="204.58,-122 201.58,-126 180.58,-126 177.58,-122 101.42,-122 101.42,-86 204.58,-86 204.58,-122"/>
<text text-anchor="middle" x="153" y="-99.8" font-family="Times,serif" font-size="14.00">DeletedModule</text>
</g>
<!-- DeletedModule&#45;&gt;ConfirmModalModule -->
<g id="edge2" class="edge">
<title>DeletedModule&#45;&gt;ConfirmModalModule</title>
<path fill="none" stroke="black" d="M190.39,-122.11C190.39,-122.11 190.39,-140.99 190.39,-140.99"/>
<polygon fill="black" stroke="black" points="186.89,-140.99 190.39,-150.99 193.89,-140.99 186.89,-140.99"/>
</g>
</g>
</svg>
