<svg width="367" height="381" viewBox="0 0 367 381" fill="none" xmlns="http://www.w3.org/2000/svg">
<mask id="path-1-outside-1_2487_1767" maskUnits="userSpaceOnUse" x="-1" y="-1" width="368" height="382" fill="black">
<rect fill="white" x="-1" y="-1" width="368" height="382"/>
<path d="M182.991 345.489C179.787 351.221 172.543 353.27 166.811 350.065C161.079 346.861 159.03 339.617 162.234 333.885L298.49 90.1452C301.695 84.4133 308.939 82.3642 314.671 85.5685C320.402 88.7727 322.452 96.0169 319.247 101.749L182.991 345.489Z"/>
<path d="M151.192 326.631C147.988 332.363 140.744 334.412 135.012 331.208C129.28 328.004 127.231 320.76 130.435 315.028L268.604 67.8673C271.808 62.1355 279.052 60.0864 284.784 63.2906C290.516 66.4949 292.565 73.739 289.361 79.4709L151.192 326.631Z"/>
<path d="M213.734 364.487C210.53 370.219 203.286 372.268 197.554 369.064C191.822 365.86 189.773 358.616 192.978 352.884L332.272 103.708C335.476 97.9766 342.72 95.9275 348.452 99.1318C354.184 102.336 356.233 109.58 353.029 115.312L213.734 364.487Z"/>
<path d="M336.408 129.832C331.043 134.102 323.232 133.214 318.962 127.848L262.579 57.0011C258.309 51.6357 259.197 43.8247 264.563 39.5547C269.928 35.2848 277.739 36.1728 282.009 41.5382L338.392 112.386C342.661 117.751 341.773 125.562 336.408 129.832Z"/>
<path d="M105.211 298.031C106.835 303.521 103.701 309.288 98.2103 310.913C92.7201 312.537 86.9527 309.403 85.3285 303.912L11.7614 55.2265C10.1373 49.7362 13.2714 43.9688 18.7616 42.3447C24.2519 40.7205 30.0193 43.8547 31.6434 49.3449L105.211 298.031Z"/>
<path d="M207.019 350.787C212.019 353.577 213.81 359.892 211.02 364.892C208.23 369.891 201.915 371.682 196.916 368.892L92.6503 310.707C87.6507 307.917 85.8595 301.603 88.6495 296.603C91.4396 291.603 97.7544 289.812 102.754 292.602L207.019 350.787Z"/>
<path d="M157.949 208.998C158.87 211.597 157.51 214.451 154.912 215.372C152.313 216.293 149.459 214.934 148.538 212.335L119.57 130.622C118.649 128.023 120.008 125.169 122.607 124.248C125.206 123.327 128.06 124.686 128.981 127.285L157.949 208.998Z"/>
<path d="M126.517 127.363C128.638 129.124 128.93 132.272 127.169 134.393C125.408 136.514 122.26 136.806 120.139 135.045L25.5164 56.483C23.395 54.7217 23.1031 51.574 24.8645 49.4526C26.6258 47.3311 29.7735 47.0393 31.8949 48.8006L126.517 127.363Z"/>
<path d="M199.047 118.17C201.796 117.949 204.202 119.999 204.423 122.747C204.643 125.496 202.593 127.903 199.845 128.123L126.831 133.976C124.083 134.196 121.676 132.147 121.456 129.398C121.235 126.65 123.285 124.243 126.033 124.023L199.047 118.17Z"/>
<path d="M122.416 302.359C119.608 307.349 113.287 309.118 108.298 306.31C103.308 303.502 101.539 297.181 104.347 292.191L258.798 17.7264C261.605 12.7367 267.927 10.968 272.916 13.7759C277.906 16.5837 279.675 22.9049 276.867 27.8945L122.416 302.359Z"/>
<path d="M353.767 101.806C357.516 106.133 357.047 112.681 352.719 116.429C348.392 120.178 341.844 119.709 338.096 115.382L262.3 27.8882C258.551 23.5607 259.02 17.0136 263.348 13.2647C267.675 9.51584 274.222 9.98488 277.971 14.3123L353.767 101.806Z"/>
<path d="M267.418 10.0623C271.444 9.53834 275.133 12.3776 275.657 16.4039C276.181 20.4303 273.341 24.119 269.315 24.643L18.3013 57.3076C14.275 57.8315 10.5862 54.9923 10.0623 50.9659C9.53834 46.9396 12.3776 43.2508 16.4039 42.7269L267.418 10.0623Z"/>
<path d="M127.518 126.409C119.272 127.2 111.946 121.156 111.156 112.909C110.366 104.663 116.41 97.3373 124.656 96.5469L203.101 89.0281C211.348 88.2377 218.673 94.282 219.464 102.528C220.254 110.775 214.21 118.1 205.963 118.891L127.518 126.409Z"/>
<path d="M54.7094 68.0885C46.8185 68.8039 39.8417 62.9869 39.1264 55.0959C38.411 47.205 44.228 40.2282 52.119 39.5129L248.351 21.7242C256.242 21.0089 263.218 26.8259 263.934 34.7168C264.649 42.6078 258.832 49.5845 250.941 50.2998L54.7094 68.0885Z"/>
<path d="M68.8909 84.9963C61 85.7116 54.0232 79.8946 53.3079 72.0037C52.5926 64.1127 58.4096 57.1359 66.3005 56.4206L225.208 42.0155C233.098 41.3001 240.075 47.1171 240.791 55.0081C241.506 62.899 235.689 69.8758 227.798 70.5911L68.8909 84.9963Z"/>
<path d="M89.9683 98.7335C82.0773 99.4488 75.1006 93.6319 74.3853 85.7409C73.6699 77.85 79.4869 70.8732 87.3779 70.1579L220.955 58.0489C228.846 57.3336 235.822 63.1506 236.538 71.0415C237.253 78.9325 231.436 85.9092 223.545 86.6246L89.9683 98.7335Z"/>
<path d="M109.349 116.838C101.098 117.586 93.8039 111.504 93.0559 103.253L92.4082 96.1083C91.6603 87.8578 97.7423 80.5632 105.993 79.8153L209.942 70.3921C218.193 69.6442 225.487 75.7262 226.235 83.9766L226.883 91.1216C227.631 99.372 221.549 106.667 213.299 107.415L109.349 116.838Z"/>
</mask>
<path d="M182.991 345.489C179.787 351.221 172.543 353.27 166.811 350.065C161.079 346.861 159.03 339.617 162.234 333.885L298.49 90.1452C301.695 84.4133 308.939 82.3642 314.671 85.5685C320.402 88.7727 322.452 96.0169 319.247 101.749L182.991 345.489Z" fill="#F3F3F3"/>
<path d="M151.192 326.631C147.988 332.363 140.744 334.412 135.012 331.208C129.28 328.004 127.231 320.76 130.435 315.028L268.604 67.8673C271.808 62.1355 279.052 60.0864 284.784 63.2906C290.516 66.4949 292.565 73.739 289.361 79.4709L151.192 326.631Z" fill="#F3F3F3"/>
<path d="M213.734 364.487C210.53 370.219 203.286 372.268 197.554 369.064C191.822 365.86 189.773 358.616 192.978 352.884L332.272 103.708C335.476 97.9766 342.72 95.9275 348.452 99.1318C354.184 102.336 356.233 109.58 353.029 115.312L213.734 364.487Z" fill="#F3F3F3"/>
<path d="M336.408 129.832C331.043 134.102 323.232 133.214 318.962 127.848L262.579 57.0011C258.309 51.6357 259.197 43.8247 264.563 39.5547C269.928 35.2848 277.739 36.1728 282.009 41.5382L338.392 112.386C342.661 117.751 341.773 125.562 336.408 129.832Z" fill="#F3F3F3"/>
<path d="M105.211 298.031C106.835 303.521 103.701 309.288 98.2103 310.913C92.7201 312.537 86.9527 309.403 85.3285 303.912L11.7614 55.2265C10.1373 49.7362 13.2714 43.9688 18.7616 42.3447C24.2519 40.7205 30.0193 43.8547 31.6434 49.3449L105.211 298.031Z" fill="#F3F3F3"/>
<path d="M207.019 350.787C212.019 353.577 213.81 359.892 211.02 364.892C208.23 369.891 201.915 371.682 196.916 368.892L92.6503 310.707C87.6507 307.917 85.8595 301.603 88.6495 296.603C91.4396 291.603 97.7544 289.812 102.754 292.602L207.019 350.787Z" fill="#F3F3F3"/>
<path d="M157.949 208.998C158.87 211.597 157.51 214.451 154.912 215.372C152.313 216.293 149.459 214.934 148.538 212.335L119.57 130.622C118.649 128.023 120.008 125.169 122.607 124.248C125.206 123.327 128.06 124.686 128.981 127.285L157.949 208.998Z" fill="#F3F3F3"/>
<path d="M126.517 127.363C128.638 129.124 128.93 132.272 127.169 134.393C125.408 136.514 122.26 136.806 120.139 135.045L25.5164 56.483C23.395 54.7217 23.1031 51.574 24.8645 49.4526C26.6258 47.3311 29.7735 47.0393 31.8949 48.8006L126.517 127.363Z" fill="#F3F3F3"/>
<path d="M199.047 118.17C201.796 117.949 204.202 119.999 204.423 122.747C204.643 125.496 202.593 127.903 199.845 128.123L126.831 133.976C124.083 134.196 121.676 132.147 121.456 129.398C121.235 126.65 123.285 124.243 126.033 124.023L199.047 118.17Z" fill="#F3F3F3"/>
<path d="M122.416 302.359C119.608 307.349 113.287 309.118 108.298 306.31C103.308 303.502 101.539 297.181 104.347 292.191L258.798 17.7264C261.605 12.7367 267.927 10.968 272.916 13.7759C277.906 16.5837 279.675 22.9049 276.867 27.8945L122.416 302.359Z" fill="#F3F3F3"/>
<path d="M353.767 101.806C357.516 106.133 357.047 112.681 352.719 116.429C348.392 120.178 341.844 119.709 338.096 115.382L262.3 27.8882C258.551 23.5607 259.02 17.0136 263.348 13.2647C267.675 9.51584 274.222 9.98488 277.971 14.3123L353.767 101.806Z" fill="#F3F3F3"/>
<path d="M267.418 10.0623C271.444 9.53834 275.133 12.3776 275.657 16.4039C276.181 20.4303 273.341 24.119 269.315 24.643L18.3013 57.3076C14.275 57.8315 10.5862 54.9923 10.0623 50.9659C9.53834 46.9396 12.3776 43.2508 16.4039 42.7269L267.418 10.0623Z" fill="#F3F3F3"/>
<path d="M127.518 126.409C119.272 127.2 111.946 121.156 111.156 112.909C110.366 104.663 116.41 97.3373 124.656 96.5469L203.101 89.0281C211.348 88.2377 218.673 94.282 219.464 102.528C220.254 110.775 214.21 118.1 205.963 118.891L127.518 126.409Z" fill="#F3F3F3"/>
<path d="M54.7094 68.0885C46.8185 68.8039 39.8417 62.9869 39.1264 55.0959C38.411 47.205 44.228 40.2282 52.119 39.5129L248.351 21.7242C256.242 21.0089 263.218 26.8259 263.934 34.7168C264.649 42.6078 258.832 49.5845 250.941 50.2998L54.7094 68.0885Z" fill="#F3F3F3"/>
<path d="M68.8909 84.9963C61 85.7116 54.0232 79.8946 53.3079 72.0037C52.5926 64.1127 58.4096 57.1359 66.3005 56.4206L225.208 42.0155C233.098 41.3001 240.075 47.1171 240.791 55.0081C241.506 62.899 235.689 69.8758 227.798 70.5911L68.8909 84.9963Z" fill="#F3F3F3"/>
<path d="M89.9683 98.7335C82.0773 99.4488 75.1006 93.6319 74.3853 85.7409C73.6699 77.85 79.4869 70.8732 87.3779 70.1579L220.955 58.0489C228.846 57.3336 235.822 63.1506 236.538 71.0415C237.253 78.9325 231.436 85.9092 223.545 86.6246L89.9683 98.7335Z" fill="#F3F3F3"/>
<path d="M109.349 116.838C101.098 117.586 93.8039 111.504 93.0559 103.253L92.4082 96.1083C91.6603 87.8578 97.7423 80.5632 105.993 79.8153L209.942 70.3921C218.193 69.6442 225.487 75.7262 226.235 83.9766L226.883 91.1216C227.631 99.372 221.549 106.667 213.299 107.415L109.349 116.838Z" fill="#F3F3F3"/>
<path d="M182.991 345.489C179.787 351.221 172.543 353.27 166.811 350.065C161.079 346.861 159.03 339.617 162.234 333.885L298.49 90.1452C301.695 84.4133 308.939 82.3642 314.671 85.5685C320.402 88.7727 322.452 96.0169 319.247 101.749L182.991 345.489Z" stroke="#092C4C" stroke-width="20" mask="url(#path-1-outside-1_2487_1767)"/>
<path d="M182.991 345.489C179.787 351.221 172.543 353.27 166.811 350.065C161.079 346.861 159.03 339.617 162.234 333.885L298.49 90.1452C301.695 84.4133 308.939 82.3642 314.671 85.5685C320.402 88.7727 322.452 96.0169 319.247 101.749L182.991 345.489Z" stroke="#092C4C" stroke-width="20" mask="url(#path-1-outside-1_2487_1767)"/>
<path d="M182.991 345.489C179.787 351.221 172.543 353.27 166.811 350.065C161.079 346.861 159.03 339.617 162.234 333.885L298.49 90.1452C301.695 84.4133 308.939 82.3642 314.671 85.5685C320.402 88.7727 322.452 96.0169 319.247 101.749L182.991 345.489Z" stroke="#092C4C" stroke-width="20" mask="url(#path-1-outside-1_2487_1767)"/>
<path d="M151.192 326.631C147.988 332.363 140.744 334.412 135.012 331.208C129.28 328.004 127.231 320.76 130.435 315.028L268.604 67.8673C271.808 62.1355 279.052 60.0864 284.784 63.2906C290.516 66.4949 292.565 73.739 289.361 79.4709L151.192 326.631Z" stroke="#092C4C" stroke-width="20" mask="url(#path-1-outside-1_2487_1767)"/>
<path d="M151.192 326.631C147.988 332.363 140.744 334.412 135.012 331.208C129.28 328.004 127.231 320.76 130.435 315.028L268.604 67.8673C271.808 62.1355 279.052 60.0864 284.784 63.2906C290.516 66.4949 292.565 73.739 289.361 79.4709L151.192 326.631Z" stroke="#092C4C" stroke-width="20" mask="url(#path-1-outside-1_2487_1767)"/>
<path d="M151.192 326.631C147.988 332.363 140.744 334.412 135.012 331.208C129.28 328.004 127.231 320.76 130.435 315.028L268.604 67.8673C271.808 62.1355 279.052 60.0864 284.784 63.2906C290.516 66.4949 292.565 73.739 289.361 79.4709L151.192 326.631Z" stroke="#092C4C" stroke-width="20" mask="url(#path-1-outside-1_2487_1767)"/>
<path d="M213.734 364.487C210.53 370.219 203.286 372.268 197.554 369.064C191.822 365.86 189.773 358.616 192.978 352.884L332.272 103.708C335.476 97.9766 342.72 95.9275 348.452 99.1318C354.184 102.336 356.233 109.58 353.029 115.312L213.734 364.487Z" stroke="#092C4C" stroke-width="20" mask="url(#path-1-outside-1_2487_1767)"/>
<path d="M213.734 364.487C210.53 370.219 203.286 372.268 197.554 369.064C191.822 365.86 189.773 358.616 192.978 352.884L332.272 103.708C335.476 97.9766 342.72 95.9275 348.452 99.1318C354.184 102.336 356.233 109.58 353.029 115.312L213.734 364.487Z" stroke="#092C4C" stroke-width="20" mask="url(#path-1-outside-1_2487_1767)"/>
<path d="M213.734 364.487C210.53 370.219 203.286 372.268 197.554 369.064C191.822 365.86 189.773 358.616 192.978 352.884L332.272 103.708C335.476 97.9766 342.72 95.9275 348.452 99.1318C354.184 102.336 356.233 109.58 353.029 115.312L213.734 364.487Z" stroke="#092C4C" stroke-width="20" mask="url(#path-1-outside-1_2487_1767)"/>
<path d="M336.408 129.832C331.043 134.102 323.232 133.214 318.962 127.848L262.579 57.0011C258.309 51.6357 259.197 43.8247 264.563 39.5547C269.928 35.2848 277.739 36.1728 282.009 41.5382L338.392 112.386C342.661 117.751 341.773 125.562 336.408 129.832Z" stroke="#092C4C" stroke-width="20" mask="url(#path-1-outside-1_2487_1767)"/>
<path d="M336.408 129.832C331.043 134.102 323.232 133.214 318.962 127.848L262.579 57.0011C258.309 51.6357 259.197 43.8247 264.563 39.5547C269.928 35.2848 277.739 36.1728 282.009 41.5382L338.392 112.386C342.661 117.751 341.773 125.562 336.408 129.832Z" stroke="#092C4C" stroke-width="20" mask="url(#path-1-outside-1_2487_1767)"/>
<path d="M336.408 129.832C331.043 134.102 323.232 133.214 318.962 127.848L262.579 57.0011C258.309 51.6357 259.197 43.8247 264.563 39.5547C269.928 35.2848 277.739 36.1728 282.009 41.5382L338.392 112.386C342.661 117.751 341.773 125.562 336.408 129.832Z" stroke="#092C4C" stroke-width="20" mask="url(#path-1-outside-1_2487_1767)"/>
<path d="M105.211 298.031C106.835 303.521 103.701 309.288 98.2103 310.913C92.7201 312.537 86.9527 309.403 85.3285 303.912L11.7614 55.2265C10.1373 49.7362 13.2714 43.9688 18.7616 42.3447C24.2519 40.7205 30.0193 43.8547 31.6434 49.3449L105.211 298.031Z" stroke="#092C4C" stroke-width="20" mask="url(#path-1-outside-1_2487_1767)"/>
<path d="M105.211 298.031C106.835 303.521 103.701 309.288 98.2103 310.913C92.7201 312.537 86.9527 309.403 85.3285 303.912L11.7614 55.2265C10.1373 49.7362 13.2714 43.9688 18.7616 42.3447C24.2519 40.7205 30.0193 43.8547 31.6434 49.3449L105.211 298.031Z" stroke="#092C4C" stroke-width="20" mask="url(#path-1-outside-1_2487_1767)"/>
<path d="M105.211 298.031C106.835 303.521 103.701 309.288 98.2103 310.913C92.7201 312.537 86.9527 309.403 85.3285 303.912L11.7614 55.2265C10.1373 49.7362 13.2714 43.9688 18.7616 42.3447C24.2519 40.7205 30.0193 43.8547 31.6434 49.3449L105.211 298.031Z" stroke="#092C4C" stroke-width="20" mask="url(#path-1-outside-1_2487_1767)"/>
<path d="M207.019 350.787C212.019 353.577 213.81 359.892 211.02 364.892C208.23 369.891 201.915 371.682 196.916 368.892L92.6503 310.707C87.6507 307.917 85.8595 301.603 88.6495 296.603C91.4396 291.603 97.7544 289.812 102.754 292.602L207.019 350.787Z" stroke="#092C4C" stroke-width="20" mask="url(#path-1-outside-1_2487_1767)"/>
<path d="M207.019 350.787C212.019 353.577 213.81 359.892 211.02 364.892C208.23 369.891 201.915 371.682 196.916 368.892L92.6503 310.707C87.6507 307.917 85.8595 301.603 88.6495 296.603C91.4396 291.603 97.7544 289.812 102.754 292.602L207.019 350.787Z" stroke="#092C4C" stroke-width="20" mask="url(#path-1-outside-1_2487_1767)"/>
<path d="M207.019 350.787C212.019 353.577 213.81 359.892 211.02 364.892C208.23 369.891 201.915 371.682 196.916 368.892L92.6503 310.707C87.6507 307.917 85.8595 301.603 88.6495 296.603C91.4396 291.603 97.7544 289.812 102.754 292.602L207.019 350.787Z" stroke="#092C4C" stroke-width="20" mask="url(#path-1-outside-1_2487_1767)"/>
<path d="M157.949 208.998C158.87 211.597 157.51 214.451 154.912 215.372C152.313 216.293 149.459 214.934 148.538 212.335L119.57 130.622C118.649 128.023 120.008 125.169 122.607 124.248C125.206 123.327 128.06 124.686 128.981 127.285L157.949 208.998Z" stroke="#092C4C" stroke-width="20" mask="url(#path-1-outside-1_2487_1767)"/>
<path d="M157.949 208.998C158.87 211.597 157.51 214.451 154.912 215.372C152.313 216.293 149.459 214.934 148.538 212.335L119.57 130.622C118.649 128.023 120.008 125.169 122.607 124.248C125.206 123.327 128.06 124.686 128.981 127.285L157.949 208.998Z" stroke="#092C4C" stroke-width="20" mask="url(#path-1-outside-1_2487_1767)"/>
<path d="M157.949 208.998C158.87 211.597 157.51 214.451 154.912 215.372C152.313 216.293 149.459 214.934 148.538 212.335L119.57 130.622C118.649 128.023 120.008 125.169 122.607 124.248C125.206 123.327 128.06 124.686 128.981 127.285L157.949 208.998Z" stroke="#092C4C" stroke-width="20" mask="url(#path-1-outside-1_2487_1767)"/>
<path d="M126.517 127.363C128.638 129.124 128.93 132.272 127.169 134.393C125.408 136.514 122.26 136.806 120.139 135.045L25.5164 56.483C23.395 54.7217 23.1031 51.574 24.8645 49.4526C26.6258 47.3311 29.7735 47.0393 31.8949 48.8006L126.517 127.363Z" stroke="#092C4C" stroke-width="20" mask="url(#path-1-outside-1_2487_1767)"/>
<path d="M126.517 127.363C128.638 129.124 128.93 132.272 127.169 134.393C125.408 136.514 122.26 136.806 120.139 135.045L25.5164 56.483C23.395 54.7217 23.1031 51.574 24.8645 49.4526C26.6258 47.3311 29.7735 47.0393 31.8949 48.8006L126.517 127.363Z" stroke="#092C4C" stroke-width="20" mask="url(#path-1-outside-1_2487_1767)"/>
<path d="M126.517 127.363C128.638 129.124 128.93 132.272 127.169 134.393C125.408 136.514 122.26 136.806 120.139 135.045L25.5164 56.483C23.395 54.7217 23.1031 51.574 24.8645 49.4526C26.6258 47.3311 29.7735 47.0393 31.8949 48.8006L126.517 127.363Z" stroke="#092C4C" stroke-width="20" mask="url(#path-1-outside-1_2487_1767)"/>
<path d="M199.047 118.17C201.796 117.949 204.202 119.999 204.423 122.747C204.643 125.496 202.593 127.903 199.845 128.123L126.831 133.976C124.083 134.196 121.676 132.147 121.456 129.398C121.235 126.65 123.285 124.243 126.033 124.023L199.047 118.17Z" stroke="#092C4C" stroke-width="20" mask="url(#path-1-outside-1_2487_1767)"/>
<path d="M199.047 118.17C201.796 117.949 204.202 119.999 204.423 122.747C204.643 125.496 202.593 127.903 199.845 128.123L126.831 133.976C124.083 134.196 121.676 132.147 121.456 129.398C121.235 126.65 123.285 124.243 126.033 124.023L199.047 118.17Z" stroke="#092C4C" stroke-width="20" mask="url(#path-1-outside-1_2487_1767)"/>
<path d="M199.047 118.17C201.796 117.949 204.202 119.999 204.423 122.747C204.643 125.496 202.593 127.903 199.845 128.123L126.831 133.976C124.083 134.196 121.676 132.147 121.456 129.398C121.235 126.65 123.285 124.243 126.033 124.023L199.047 118.17Z" stroke="#092C4C" stroke-width="20" mask="url(#path-1-outside-1_2487_1767)"/>
<path d="M122.416 302.359C119.608 307.349 113.287 309.118 108.298 306.31C103.308 303.502 101.539 297.181 104.347 292.191L258.798 17.7264C261.605 12.7367 267.927 10.968 272.916 13.7759C277.906 16.5837 279.675 22.9049 276.867 27.8945L122.416 302.359Z" stroke="#092C4C" stroke-width="20" mask="url(#path-1-outside-1_2487_1767)"/>
<path d="M122.416 302.359C119.608 307.349 113.287 309.118 108.298 306.31C103.308 303.502 101.539 297.181 104.347 292.191L258.798 17.7264C261.605 12.7367 267.927 10.968 272.916 13.7759C277.906 16.5837 279.675 22.9049 276.867 27.8945L122.416 302.359Z" stroke="#092C4C" stroke-width="20" mask="url(#path-1-outside-1_2487_1767)"/>
<path d="M122.416 302.359C119.608 307.349 113.287 309.118 108.298 306.31C103.308 303.502 101.539 297.181 104.347 292.191L258.798 17.7264C261.605 12.7367 267.927 10.968 272.916 13.7759C277.906 16.5837 279.675 22.9049 276.867 27.8945L122.416 302.359Z" stroke="#092C4C" stroke-width="20" mask="url(#path-1-outside-1_2487_1767)"/>
<path d="M353.767 101.806C357.516 106.133 357.047 112.681 352.719 116.429C348.392 120.178 341.844 119.709 338.096 115.382L262.3 27.8882C258.551 23.5607 259.02 17.0136 263.348 13.2647C267.675 9.51584 274.222 9.98488 277.971 14.3123L353.767 101.806Z" stroke="#092C4C" stroke-width="20" mask="url(#path-1-outside-1_2487_1767)"/>
<path d="M353.767 101.806C357.516 106.133 357.047 112.681 352.719 116.429C348.392 120.178 341.844 119.709 338.096 115.382L262.3 27.8882C258.551 23.5607 259.02 17.0136 263.348 13.2647C267.675 9.51584 274.222 9.98488 277.971 14.3123L353.767 101.806Z" stroke="#092C4C" stroke-width="20" mask="url(#path-1-outside-1_2487_1767)"/>
<path d="M353.767 101.806C357.516 106.133 357.047 112.681 352.719 116.429C348.392 120.178 341.844 119.709 338.096 115.382L262.3 27.8882C258.551 23.5607 259.02 17.0136 263.348 13.2647C267.675 9.51584 274.222 9.98488 277.971 14.3123L353.767 101.806Z" stroke="#092C4C" stroke-width="20" mask="url(#path-1-outside-1_2487_1767)"/>
<path d="M267.418 10.0623C271.444 9.53834 275.133 12.3776 275.657 16.4039C276.181 20.4303 273.341 24.119 269.315 24.643L18.3013 57.3076C14.275 57.8315 10.5862 54.9923 10.0623 50.9659C9.53834 46.9396 12.3776 43.2508 16.4039 42.7269L267.418 10.0623Z" stroke="#092C4C" stroke-width="20" mask="url(#path-1-outside-1_2487_1767)"/>
<path d="M267.418 10.0623C271.444 9.53834 275.133 12.3776 275.657 16.4039C276.181 20.4303 273.341 24.119 269.315 24.643L18.3013 57.3076C14.275 57.8315 10.5862 54.9923 10.0623 50.9659C9.53834 46.9396 12.3776 43.2508 16.4039 42.7269L267.418 10.0623Z" stroke="#092C4C" stroke-width="20" mask="url(#path-1-outside-1_2487_1767)"/>
<path d="M267.418 10.0623C271.444 9.53834 275.133 12.3776 275.657 16.4039C276.181 20.4303 273.341 24.119 269.315 24.643L18.3013 57.3076C14.275 57.8315 10.5862 54.9923 10.0623 50.9659C9.53834 46.9396 12.3776 43.2508 16.4039 42.7269L267.418 10.0623Z" stroke="#092C4C" stroke-width="20" mask="url(#path-1-outside-1_2487_1767)"/>
<path d="M127.518 126.409C119.272 127.2 111.946 121.156 111.156 112.909C110.366 104.663 116.41 97.3373 124.656 96.5469L203.101 89.0281C211.348 88.2377 218.673 94.282 219.464 102.528C220.254 110.775 214.21 118.1 205.963 118.891L127.518 126.409Z" stroke="#092C4C" stroke-width="20" mask="url(#path-1-outside-1_2487_1767)"/>
<path d="M127.518 126.409C119.272 127.2 111.946 121.156 111.156 112.909C110.366 104.663 116.41 97.3373 124.656 96.5469L203.101 89.0281C211.348 88.2377 218.673 94.282 219.464 102.528C220.254 110.775 214.21 118.1 205.963 118.891L127.518 126.409Z" stroke="#092C4C" stroke-width="20" mask="url(#path-1-outside-1_2487_1767)"/>
<path d="M127.518 126.409C119.272 127.2 111.946 121.156 111.156 112.909C110.366 104.663 116.41 97.3373 124.656 96.5469L203.101 89.0281C211.348 88.2377 218.673 94.282 219.464 102.528C220.254 110.775 214.21 118.1 205.963 118.891L127.518 126.409Z" stroke="#092C4C" stroke-width="20" mask="url(#path-1-outside-1_2487_1767)"/>
<path d="M54.7094 68.0885C46.8185 68.8039 39.8417 62.9869 39.1264 55.0959C38.411 47.205 44.228 40.2282 52.119 39.5129L248.351 21.7242C256.242 21.0089 263.218 26.8259 263.934 34.7168C264.649 42.6078 258.832 49.5845 250.941 50.2998L54.7094 68.0885Z" stroke="#092C4C" stroke-width="20" mask="url(#path-1-outside-1_2487_1767)"/>
<path d="M54.7094 68.0885C46.8185 68.8039 39.8417 62.9869 39.1264 55.0959C38.411 47.205 44.228 40.2282 52.119 39.5129L248.351 21.7242C256.242 21.0089 263.218 26.8259 263.934 34.7168C264.649 42.6078 258.832 49.5845 250.941 50.2998L54.7094 68.0885Z" stroke="#092C4C" stroke-width="20" mask="url(#path-1-outside-1_2487_1767)"/>
<path d="M54.7094 68.0885C46.8185 68.8039 39.8417 62.9869 39.1264 55.0959C38.411 47.205 44.228 40.2282 52.119 39.5129L248.351 21.7242C256.242 21.0089 263.218 26.8259 263.934 34.7168C264.649 42.6078 258.832 49.5845 250.941 50.2998L54.7094 68.0885Z" stroke="#092C4C" stroke-width="20" mask="url(#path-1-outside-1_2487_1767)"/>
<path d="M68.8909 84.9963C61 85.7116 54.0232 79.8946 53.3079 72.0037C52.5926 64.1127 58.4096 57.1359 66.3005 56.4206L225.208 42.0155C233.098 41.3001 240.075 47.1171 240.791 55.0081C241.506 62.899 235.689 69.8758 227.798 70.5911L68.8909 84.9963Z" stroke="#092C4C" stroke-width="20" mask="url(#path-1-outside-1_2487_1767)"/>
<path d="M68.8909 84.9963C61 85.7116 54.0232 79.8946 53.3079 72.0037C52.5926 64.1127 58.4096 57.1359 66.3005 56.4206L225.208 42.0155C233.098 41.3001 240.075 47.1171 240.791 55.0081C241.506 62.899 235.689 69.8758 227.798 70.5911L68.8909 84.9963Z" stroke="#092C4C" stroke-width="20" mask="url(#path-1-outside-1_2487_1767)"/>
<path d="M68.8909 84.9963C61 85.7116 54.0232 79.8946 53.3079 72.0037C52.5926 64.1127 58.4096 57.1359 66.3005 56.4206L225.208 42.0155C233.098 41.3001 240.075 47.1171 240.791 55.0081C241.506 62.899 235.689 69.8758 227.798 70.5911L68.8909 84.9963Z" stroke="#092C4C" stroke-width="20" mask="url(#path-1-outside-1_2487_1767)"/>
<path d="M89.9683 98.7335C82.0773 99.4488 75.1006 93.6319 74.3853 85.7409C73.6699 77.85 79.4869 70.8732 87.3779 70.1579L220.955 58.0489C228.846 57.3336 235.822 63.1506 236.538 71.0415C237.253 78.9325 231.436 85.9092 223.545 86.6246L89.9683 98.7335Z" stroke="#092C4C" stroke-width="20" mask="url(#path-1-outside-1_2487_1767)"/>
<path d="M89.9683 98.7335C82.0773 99.4488 75.1006 93.6319 74.3853 85.7409C73.6699 77.85 79.4869 70.8732 87.3779 70.1579L220.955 58.0489C228.846 57.3336 235.822 63.1506 236.538 71.0415C237.253 78.9325 231.436 85.9092 223.545 86.6246L89.9683 98.7335Z" stroke="#092C4C" stroke-width="20" mask="url(#path-1-outside-1_2487_1767)"/>
<path d="M89.9683 98.7335C82.0773 99.4488 75.1006 93.6319 74.3853 85.7409C73.6699 77.85 79.4869 70.8732 87.3779 70.1579L220.955 58.0489C228.846 57.3336 235.822 63.1506 236.538 71.0415C237.253 78.9325 231.436 85.9092 223.545 86.6246L89.9683 98.7335Z" stroke="#092C4C" stroke-width="20" mask="url(#path-1-outside-1_2487_1767)"/>
<path d="M109.349 116.838C101.098 117.586 93.8039 111.504 93.0559 103.253L92.4082 96.1083C91.6603 87.8578 97.7423 80.5632 105.993 79.8153L209.942 70.3921C218.193 69.6442 225.487 75.7262 226.235 83.9766L226.883 91.1216C227.631 99.372 221.549 106.667 213.299 107.415L109.349 116.838Z" stroke="#092C4C" stroke-width="20" mask="url(#path-1-outside-1_2487_1767)"/>
<path d="M109.349 116.838C101.098 117.586 93.8039 111.504 93.0559 103.253L92.4082 96.1083C91.6603 87.8578 97.7423 80.5632 105.993 79.8153L209.942 70.3921C218.193 69.6442 225.487 75.7262 226.235 83.9766L226.883 91.1216C227.631 99.372 221.549 106.667 213.299 107.415L109.349 116.838Z" stroke="#092C4C" stroke-width="20" mask="url(#path-1-outside-1_2487_1767)"/>
<path d="M109.349 116.838C101.098 117.586 93.8039 111.504 93.0559 103.253L92.4082 96.1083C91.6603 87.8578 97.7423 80.5632 105.993 79.8153L209.942 70.3921C218.193 69.6442 225.487 75.7262 226.235 83.9766L226.883 91.1216C227.631 99.372 221.549 106.667 213.299 107.415L109.349 116.838Z" stroke="#092C4C" stroke-width="20" mask="url(#path-1-outside-1_2487_1767)"/>
</svg>
