<?xml version="1.0" encoding="UTF-8" standalone="no"?>
<!DOCTYPE svg PUBLIC "-//W3C//DTD SVG 1.1//EN"
 "http://www.w3.org/Graphics/SVG/1.1/DTD/svg11.dtd">
<!-- Generated by graphviz version 2.47.0 (20210316.0004)
 -->
<!-- Title: dependencies Pages: 1 -->
<svg width="648pt" height="284pt"
 viewBox="0.00 0.00 648.00 284.00" xmlns="http://www.w3.org/2000/svg" xmlns:xlink="http://www.w3.org/1999/xlink">
<g id="graph0" class="graph" transform="scale(1 1) rotate(0) translate(4 280)">
<title>dependencies</title>
<polygon fill="white" stroke="transparent" points="-4,4 -4,-280 644,-280 644,4 -4,4"/>
<text text-anchor="start" x="299.01" y="-42.4" font-family="Times-12" font-weight="bold" font-size="14.00">Legend</text>
<polygon fill="#ffffb3" stroke="transparent" points="86,-10 86,-30 106,-30 106,-10 86,-10"/>
<text text-anchor="start" x="109.63" y="-15.4" font-family="Times-12" font-size="14.00"> &#160;Declarations</text>
<polygon fill="#8dd3c7" stroke="transparent" points="199,-10 199,-30 219,-30 219,-10 199,-10"/>
<text text-anchor="start" x="222.73" y="-15.4" font-family="Times-12" font-size="14.00"> &#160;Module</text>
<polygon fill="#80b1d3" stroke="transparent" points="285,-10 285,-30 305,-30 305,-10 285,-10"/>
<text text-anchor="start" x="308.78" y="-15.4" font-family="Times-12" font-size="14.00"> &#160;Bootstrap</text>
<polygon fill="#fdb462" stroke="transparent" points="382,-10 382,-30 402,-30 402,-10 382,-10"/>
<text text-anchor="start" x="405.67" y="-15.4" font-family="Times-12" font-size="14.00"> &#160;Providers</text>
<polygon fill="#fb8072" stroke="transparent" points="478,-10 478,-30 498,-30 498,-10 478,-10"/>
<text text-anchor="start" x="501.73" y="-15.4" font-family="Times-12" font-size="14.00"> &#160;Exports</text>
<g id="clust1" class="cluster">
<title>cluster_CalendarScreenModule</title>
<polygon fill="none" stroke="black" stroke-dasharray="1,5" points="8,-70 8,-268 632,-268 632,-70 8,-70"/>
</g>
<g id="clust6" class="cluster">
<title>cluster_CalendarScreenModule_exports</title>
<polygon fill="none" stroke="black" points="295,-208 295,-260 447,-260 447,-208 295,-208"/>
</g>
<g id="clust5" class="cluster">
<title>cluster_CalendarScreenModule_imports</title>
<polygon fill="none" stroke="black" points="376,-78 376,-130 624,-130 624,-78 376,-78"/>
</g>
<g id="clust2" class="cluster">
<title>cluster_CalendarScreenModule_declarations</title>
<polygon fill="none" stroke="black" points="16,-78 16,-130 368,-130 368,-78 16,-78"/>
</g>
<!-- CalendarComponent -->
<g id="node1" class="node">
<title>CalendarComponent</title>
<polygon fill="#ffffb3" stroke="black" points="359.86,-122 228.14,-122 228.14,-86 359.86,-86 359.86,-122"/>
<text text-anchor="middle" x="294" y="-99.8" font-family="Times,serif" font-size="14.00">CalendarComponent</text>
</g>
<!-- CalendarScreenModule -->
<g id="node3" class="node">
<title>CalendarScreenModule</title>
<polygon fill="#8dd3c7" stroke="black" points="445.17,-187 442.17,-191 421.17,-191 418.17,-187 296.83,-187 296.83,-151 445.17,-151 445.17,-187"/>
<text text-anchor="middle" x="371" y="-164.8" font-family="Times,serif" font-size="14.00">CalendarScreenModule</text>
</g>
<!-- CalendarComponent&#45;&gt;CalendarScreenModule -->
<g id="edge1" class="edge">
<title>CalendarComponent&#45;&gt;CalendarScreenModule</title>
<path fill="none" stroke="black" d="M328.42,-122.11C328.42,-122.11 328.42,-140.99 328.42,-140.99"/>
<polygon fill="black" stroke="black" points="324.92,-140.99 328.42,-150.99 331.92,-140.99 324.92,-140.99"/>
</g>
<!-- CalendarRowCardComponent -->
<g id="node2" class="node">
<title>CalendarRowCardComponent</title>
<polygon fill="#ffffb3" stroke="black" points="209.52,-122 24.48,-122 24.48,-86 209.52,-86 209.52,-122"/>
<text text-anchor="middle" x="117" y="-99.8" font-family="Times,serif" font-size="14.00">CalendarRowCardComponent</text>
</g>
<!-- CalendarRowCardComponent&#45;&gt;CalendarScreenModule -->
<g id="edge2" class="edge">
<title>CalendarRowCardComponent&#45;&gt;CalendarScreenModule</title>
<path fill="none" stroke="black" d="M117,-122.11C117,-141.34 117,-169 117,-169 117,-169 286.85,-169 286.85,-169"/>
<polygon fill="black" stroke="black" points="286.85,-172.5 296.85,-169 286.85,-165.5 286.85,-172.5"/>
</g>
<!-- CalendarComponent  -->
<g id="node6" class="node">
<title>CalendarComponent </title>
<polygon fill="#fb8072" stroke="black" points="438.86,-252 303.14,-252 303.14,-216 438.86,-216 438.86,-252"/>
<text text-anchor="middle" x="371" y="-229.8" font-family="Times,serif" font-size="14.00">CalendarComponent </text>
</g>
<!-- CalendarScreenModule&#45;&gt;CalendarComponent  -->
<g id="edge5" class="edge">
<title>CalendarScreenModule&#45;&gt;CalendarComponent </title>
<path fill="none" stroke="black" stroke-dasharray="5,2" d="M371,-187.11C371,-187.11 371,-205.99 371,-205.99"/>
<polygon fill="black" stroke="black" points="367.5,-205.99 371,-215.99 374.5,-205.99 367.5,-205.99"/>
</g>
<!-- CardModule -->
<g id="node4" class="node">
<title>CardModule</title>
<polygon fill="#8dd3c7" stroke="black" points="616.26,-122 613.26,-126 592.26,-126 589.26,-122 529.74,-122 529.74,-86 616.26,-86 616.26,-122"/>
<text text-anchor="middle" x="573" y="-99.8" font-family="Times,serif" font-size="14.00">CardModule</text>
</g>
<!-- CardModule&#45;&gt;CalendarScreenModule -->
<g id="edge3" class="edge">
<title>CardModule&#45;&gt;CalendarScreenModule</title>
<path fill="none" stroke="black" d="M573,-122.11C573,-141.34 573,-169 573,-169 573,-169 455.36,-169 455.36,-169"/>
<polygon fill="black" stroke="black" points="455.36,-165.5 445.36,-169 455.36,-172.5 455.36,-165.5"/>
</g>
<!-- ModalWarnModule -->
<g id="node5" class="node">
<title>ModalWarnModule</title>
<polygon fill="#8dd3c7" stroke="black" points="511.69,-122 508.69,-126 487.69,-126 484.69,-122 384.31,-122 384.31,-86 511.69,-86 511.69,-122"/>
<text text-anchor="middle" x="448" y="-99.8" font-family="Times,serif" font-size="14.00">ModalWarnModule</text>
</g>
<!-- ModalWarnModule&#45;&gt;CalendarScreenModule -->
<g id="edge4" class="edge">
<title>ModalWarnModule&#45;&gt;CalendarScreenModule</title>
<path fill="none" stroke="black" d="M414.74,-122.11C414.74,-122.11 414.74,-140.99 414.74,-140.99"/>
<polygon fill="black" stroke="black" points="411.24,-140.99 414.74,-150.99 418.24,-140.99 411.24,-140.99"/>
</g>
</g>
</svg>
