<?xml version="1.0" encoding="UTF-8" standalone="no"?>
<!DOCTYPE svg PUBLIC "-//W3C//DTD SVG 1.1//EN"
 "http://www.w3.org/Graphics/SVG/1.1/DTD/svg11.dtd">
<!-- Generated by graphviz version 2.47.0 (20210316.0004)
 -->
<!-- Title: dependencies Pages: 1 -->
<svg width="504pt" height="284pt"
 viewBox="0.00 0.00 504.00 284.00" xmlns="http://www.w3.org/2000/svg" xmlns:xlink="http://www.w3.org/1999/xlink">
<g id="graph0" class="graph" transform="scale(1 1) rotate(0) translate(4 280)">
<title>dependencies</title>
<polygon fill="white" stroke="transparent" points="-4,4 -4,-280 500,-280 500,4 -4,4"/>
<text text-anchor="start" x="227.01" y="-42.4" font-family="Times-12" font-weight="bold" font-size="14.00">Legend</text>
<polygon fill="#ffffb3" stroke="transparent" points="14,-10 14,-30 34,-30 34,-10 14,-10"/>
<text text-anchor="start" x="37.63" y="-15.4" font-family="Times-12" font-size="14.00"> &#160;Declarations</text>
<polygon fill="#8dd3c7" stroke="transparent" points="127,-10 127,-30 147,-30 147,-10 127,-10"/>
<text text-anchor="start" x="150.73" y="-15.4" font-family="Times-12" font-size="14.00"> &#160;Module</text>
<polygon fill="#80b1d3" stroke="transparent" points="213,-10 213,-30 233,-30 233,-10 213,-10"/>
<text text-anchor="start" x="236.78" y="-15.4" font-family="Times-12" font-size="14.00"> &#160;Bootstrap</text>
<polygon fill="#fdb462" stroke="transparent" points="310,-10 310,-30 330,-30 330,-10 310,-10"/>
<text text-anchor="start" x="333.67" y="-15.4" font-family="Times-12" font-size="14.00"> &#160;Providers</text>
<polygon fill="#fb8072" stroke="transparent" points="406,-10 406,-30 426,-30 426,-10 406,-10"/>
<text text-anchor="start" x="429.73" y="-15.4" font-family="Times-12" font-size="14.00"> &#160;Exports</text>
<g id="clust1" class="cluster">
<title>cluster_PropertiesModule</title>
<polygon fill="none" stroke="black" stroke-dasharray="1,5" points="66,-70 66,-268 430,-268 430,-70 66,-70"/>
</g>
<g id="clust5" class="cluster">
<title>cluster_PropertiesModule_exports</title>
<polygon fill="none" stroke="black" points="162,-208 162,-260 320,-260 320,-208 162,-208"/>
</g>
<g id="clust4" class="cluster">
<title>cluster_PropertiesModule_imports</title>
<polygon fill="none" stroke="black" points="236,-78 236,-130 422,-130 422,-78 236,-78"/>
</g>
<g id="clust2" class="cluster">
<title>cluster_PropertiesModule_declarations</title>
<polygon fill="none" stroke="black" points="74,-78 74,-130 228,-130 228,-78 74,-78"/>
</g>
<!-- PropertiesComponent -->
<g id="node1" class="node">
<title>PropertiesComponent</title>
<polygon fill="#ffffb3" stroke="black" points="220.09,-122 81.91,-122 81.91,-86 220.09,-86 220.09,-122"/>
<text text-anchor="middle" x="151" y="-99.8" font-family="Times,serif" font-size="14.00">PropertiesComponent</text>
</g>
<!-- PropertiesModule -->
<g id="node2" class="node">
<title>PropertiesModule</title>
<polygon fill="#8dd3c7" stroke="black" points="299.31,-187 296.31,-191 275.31,-191 272.31,-187 182.69,-187 182.69,-151 299.31,-151 299.31,-187"/>
<text text-anchor="middle" x="241" y="-164.8" font-family="Times,serif" font-size="14.00">PropertiesModule</text>
</g>
<!-- PropertiesComponent&#45;&gt;PropertiesModule -->
<g id="edge1" class="edge">
<title>PropertiesComponent&#45;&gt;PropertiesModule</title>
<path fill="none" stroke="black" d="M201.45,-122.11C201.45,-122.11 201.45,-140.99 201.45,-140.99"/>
<polygon fill="black" stroke="black" points="197.95,-140.99 201.45,-150.99 204.95,-140.99 197.95,-140.99"/>
</g>
<!-- PropertiesComponent  -->
<g id="node4" class="node">
<title>PropertiesComponent </title>
<polygon fill="#fb8072" stroke="black" points="311.59,-252 170.41,-252 170.41,-216 311.59,-216 311.59,-252"/>
<text text-anchor="middle" x="241" y="-229.8" font-family="Times,serif" font-size="14.00">PropertiesComponent </text>
</g>
<!-- PropertiesModule&#45;&gt;PropertiesComponent  -->
<g id="edge3" class="edge">
<title>PropertiesModule&#45;&gt;PropertiesComponent </title>
<path fill="none" stroke="black" stroke-dasharray="5,2" d="M241,-187.11C241,-187.11 241,-205.99 241,-205.99"/>
<polygon fill="black" stroke="black" points="237.5,-205.99 241,-215.99 244.5,-205.99 237.5,-205.99"/>
</g>
<!-- InputValuePropertyModule -->
<g id="node3" class="node">
<title>InputValuePropertyModule</title>
<polygon fill="#8dd3c7" stroke="black" points="414.24,-122 411.24,-126 390.24,-126 387.24,-122 243.76,-122 243.76,-86 414.24,-86 414.24,-122"/>
<text text-anchor="middle" x="329" y="-99.8" font-family="Times,serif" font-size="14.00">InputValuePropertyModule</text>
</g>
<!-- InputValuePropertyModule&#45;&gt;PropertiesModule -->
<g id="edge2" class="edge">
<title>InputValuePropertyModule&#45;&gt;PropertiesModule</title>
<path fill="none" stroke="black" d="M271.39,-122.11C271.39,-122.11 271.39,-140.99 271.39,-140.99"/>
<polygon fill="black" stroke="black" points="267.89,-140.99 271.39,-150.99 274.89,-140.99 267.89,-140.99"/>
</g>
</g>
</svg>
