<?xml version="1.0" encoding="UTF-8" standalone="no"?>
<!DOCTYPE svg PUBLIC "-//W3C//DTD SVG 1.1//EN"
 "http://www.w3.org/Graphics/SVG/1.1/DTD/svg11.dtd">
<!-- Generated by graphviz version 2.47.0 (20210316.0004)
 -->
<!-- Title: dependencies Pages: 1 -->
<svg width="504pt" height="284pt"
 viewBox="0.00 0.00 504.00 284.00" xmlns="http://www.w3.org/2000/svg" xmlns:xlink="http://www.w3.org/1999/xlink">
<g id="graph0" class="graph" transform="scale(1 1) rotate(0) translate(4 280)">
<title>dependencies</title>
<polygon fill="white" stroke="transparent" points="-4,4 -4,-280 500,-280 500,4 -4,4"/>
<text text-anchor="start" x="227.01" y="-42.4" font-family="Times-12" font-weight="bold" font-size="14.00">Legend</text>
<polygon fill="#ffffb3" stroke="transparent" points="14,-10 14,-30 34,-30 34,-10 14,-10"/>
<text text-anchor="start" x="37.63" y="-15.4" font-family="Times-12" font-size="14.00"> &#160;Declarations</text>
<polygon fill="#8dd3c7" stroke="transparent" points="127,-10 127,-30 147,-30 147,-10 127,-10"/>
<text text-anchor="start" x="150.73" y="-15.4" font-family="Times-12" font-size="14.00"> &#160;Module</text>
<polygon fill="#80b1d3" stroke="transparent" points="213,-10 213,-30 233,-30 233,-10 213,-10"/>
<text text-anchor="start" x="236.78" y="-15.4" font-family="Times-12" font-size="14.00"> &#160;Bootstrap</text>
<polygon fill="#fdb462" stroke="transparent" points="310,-10 310,-30 330,-30 330,-10 310,-10"/>
<text text-anchor="start" x="333.67" y="-15.4" font-family="Times-12" font-size="14.00"> &#160;Providers</text>
<polygon fill="#fb8072" stroke="transparent" points="406,-10 406,-30 426,-30 426,-10 406,-10"/>
<text text-anchor="start" x="429.73" y="-15.4" font-family="Times-12" font-size="14.00"> &#160;Exports</text>
<g id="clust1" class="cluster">
<title>cluster_MinichatTASKModule</title>
<polygon fill="none" stroke="black" stroke-dasharray="1,5" points="91,-70 91,-268 405,-268 405,-70 91,-70"/>
</g>
<g id="clust2" class="cluster">
<title>cluster_MinichatTASKModule_declarations</title>
<polygon fill="none" stroke="black" points="213,-78 213,-130 397,-130 397,-78 213,-78"/>
</g>
<g id="clust4" class="cluster">
<title>cluster_MinichatTASKModule_imports</title>
<polygon fill="none" stroke="black" points="99,-78 99,-130 205,-130 205,-78 99,-78"/>
</g>
<g id="clust5" class="cluster">
<title>cluster_MinichatTASKModule_exports</title>
<polygon fill="none" stroke="black" points="154,-208 154,-260 342,-260 342,-208 154,-208"/>
</g>
<!-- MinichatTASKComponent -->
<g id="node1" class="node">
<title>MinichatTASKComponent</title>
<polygon fill="#ffffb3" stroke="black" points="389.43,-122 220.57,-122 220.57,-86 389.43,-86 389.43,-122"/>
<text text-anchor="middle" x="305" y="-99.8" font-family="Times,serif" font-size="14.00">MinichatTASKComponent</text>
</g>
<!-- MinichatTASKModule -->
<g id="node2" class="node">
<title>MinichatTASKModule</title>
<polygon fill="#8dd3c7" stroke="black" points="321.14,-187 318.14,-191 297.14,-191 294.14,-187 174.86,-187 174.86,-151 321.14,-151 321.14,-187"/>
<text text-anchor="middle" x="248" y="-164.8" font-family="Times,serif" font-size="14.00">MinichatTASKModule</text>
</g>
<!-- MinichatTASKComponent&#45;&gt;MinichatTASKModule -->
<g id="edge1" class="edge">
<title>MinichatTASKComponent&#45;&gt;MinichatTASKModule</title>
<path fill="none" stroke="black" d="M271.05,-122.11C271.05,-122.11 271.05,-140.99 271.05,-140.99"/>
<polygon fill="black" stroke="black" points="267.55,-140.99 271.05,-150.99 274.55,-140.99 267.55,-140.99"/>
</g>
<!-- MinichatTASKComponent  -->
<g id="node4" class="node">
<title>MinichatTASKComponent </title>
<polygon fill="#fb8072" stroke="black" points="333.93,-252 162.07,-252 162.07,-216 333.93,-216 333.93,-252"/>
<text text-anchor="middle" x="248" y="-229.8" font-family="Times,serif" font-size="14.00">MinichatTASKComponent </text>
</g>
<!-- MinichatTASKModule&#45;&gt;MinichatTASKComponent  -->
<g id="edge3" class="edge">
<title>MinichatTASKModule&#45;&gt;MinichatTASKComponent </title>
<path fill="none" stroke="black" stroke-dasharray="5,2" d="M248,-187.11C248,-187.11 248,-205.99 248,-205.99"/>
<polygon fill="black" stroke="black" points="244.5,-205.99 248,-215.99 251.5,-205.99 244.5,-205.99"/>
</g>
<!-- InputModule -->
<g id="node3" class="node">
<title>InputModule</title>
<polygon fill="#8dd3c7" stroke="black" points="196.6,-122 193.6,-126 172.6,-126 169.6,-122 107.4,-122 107.4,-86 196.6,-86 196.6,-122"/>
<text text-anchor="middle" x="152" y="-99.8" font-family="Times,serif" font-size="14.00">InputModule</text>
</g>
<!-- InputModule&#45;&gt;MinichatTASKModule -->
<g id="edge2" class="edge">
<title>InputModule&#45;&gt;MinichatTASKModule</title>
<path fill="none" stroke="black" d="M185.61,-122.11C185.61,-122.11 185.61,-140.99 185.61,-140.99"/>
<polygon fill="black" stroke="black" points="182.11,-140.99 185.61,-150.99 189.11,-140.99 182.11,-140.99"/>
</g>
</g>
</svg>
