<?xml version="1.0" encoding="UTF-8" standalone="no"?>
<!DOCTYPE svg PUBLIC "-//W3C//DTD SVG 1.1//EN"
 "http://www.w3.org/Graphics/SVG/1.1/DTD/svg11.dtd">
<!-- Generated by graphviz version 2.47.0 (20210316.0004)
 -->
<!-- Title: dependencies Pages: 1 -->
<svg width="546pt" height="284pt"
 viewBox="0.00 0.00 546.00 284.00" xmlns="http://www.w3.org/2000/svg" xmlns:xlink="http://www.w3.org/1999/xlink">
<g id="graph0" class="graph" transform="scale(1 1) rotate(0) translate(4 280)">
<title>dependencies</title>
<polygon fill="white" stroke="transparent" points="-4,4 -4,-280 542,-280 542,4 -4,4"/>
<text text-anchor="start" x="248.01" y="-42.4" font-family="Times-12" font-weight="bold" font-size="14.00">Legend</text>
<polygon fill="#ffffb3" stroke="transparent" points="35,-10 35,-30 55,-30 55,-10 35,-10"/>
<text text-anchor="start" x="58.63" y="-15.4" font-family="Times-12" font-size="14.00"> &#160;Declarations</text>
<polygon fill="#8dd3c7" stroke="transparent" points="148,-10 148,-30 168,-30 168,-10 148,-10"/>
<text text-anchor="start" x="171.73" y="-15.4" font-family="Times-12" font-size="14.00"> &#160;Module</text>
<polygon fill="#80b1d3" stroke="transparent" points="234,-10 234,-30 254,-30 254,-10 234,-10"/>
<text text-anchor="start" x="257.78" y="-15.4" font-family="Times-12" font-size="14.00"> &#160;Bootstrap</text>
<polygon fill="#fdb462" stroke="transparent" points="331,-10 331,-30 351,-30 351,-10 331,-10"/>
<text text-anchor="start" x="354.67" y="-15.4" font-family="Times-12" font-size="14.00"> &#160;Providers</text>
<polygon fill="#fb8072" stroke="transparent" points="427,-10 427,-30 447,-30 447,-10 427,-10"/>
<text text-anchor="start" x="450.73" y="-15.4" font-family="Times-12" font-size="14.00"> &#160;Exports</text>
<g id="clust1" class="cluster">
<title>cluster_RowCardModule</title>
<polygon fill="none" stroke="black" stroke-dasharray="1,5" points="8,-70 8,-268 530,-268 530,-70 8,-70"/>
</g>
<g id="clust5" class="cluster">
<title>cluster_RowCardModule_exports</title>
<polygon fill="none" stroke="black" points="207,-208 207,-260 361,-260 361,-208 207,-208"/>
</g>
<g id="clust2" class="cluster">
<title>cluster_RowCardModule_declarations</title>
<polygon fill="none" stroke="black" points="372,-78 372,-130 522,-130 522,-78 372,-78"/>
</g>
<g id="clust4" class="cluster">
<title>cluster_RowCardModule_imports</title>
<polygon fill="none" stroke="black" points="16,-78 16,-130 364,-130 364,-78 16,-78"/>
</g>
<!-- RowCardComponent -->
<g id="node1" class="node">
<title>RowCardComponent</title>
<polygon fill="#ffffb3" stroke="black" points="514.49,-122 379.51,-122 379.51,-86 514.49,-86 514.49,-122"/>
<text text-anchor="middle" x="447" y="-99.8" font-family="Times,serif" font-size="14.00">RowCardComponent</text>
</g>
<!-- RowCardModule -->
<g id="node2" class="node">
<title>RowCardModule</title>
<polygon fill="#8dd3c7" stroke="black" points="340.7,-187 337.7,-191 316.7,-191 313.7,-187 227.3,-187 227.3,-151 340.7,-151 340.7,-187"/>
<text text-anchor="middle" x="284" y="-164.8" font-family="Times,serif" font-size="14.00">RowCardModule</text>
</g>
<!-- RowCardComponent&#45;&gt;RowCardModule -->
<g id="edge1" class="edge">
<title>RowCardComponent&#45;&gt;RowCardModule</title>
<path fill="none" stroke="black" d="M447,-122.11C447,-141.34 447,-169 447,-169 447,-169 351.01,-169 351.01,-169"/>
<polygon fill="black" stroke="black" points="351.01,-165.5 341.01,-169 351.01,-172.5 351.01,-165.5"/>
</g>
<!-- RowCardComponent  -->
<g id="node5" class="node">
<title>RowCardComponent </title>
<polygon fill="#fb8072" stroke="black" points="353.49,-252 214.51,-252 214.51,-216 353.49,-216 353.49,-252"/>
<text text-anchor="middle" x="284" y="-229.8" font-family="Times,serif" font-size="14.00">RowCardComponent </text>
</g>
<!-- RowCardModule&#45;&gt;RowCardComponent  -->
<g id="edge4" class="edge">
<title>RowCardModule&#45;&gt;RowCardComponent </title>
<path fill="none" stroke="black" stroke-dasharray="5,2" d="M284,-187.11C284,-187.11 284,-205.99 284,-205.99"/>
<polygon fill="black" stroke="black" points="280.5,-205.99 284,-215.99 287.5,-205.99 280.5,-205.99"/>
</g>
<!-- ConfirmModalModule -->
<g id="node3" class="node">
<title>ConfirmModalModule</title>
<polygon fill="#8dd3c7" stroke="black" points="355.54,-122 352.54,-126 331.54,-126 328.54,-122 212.46,-122 212.46,-86 355.54,-86 355.54,-122"/>
<text text-anchor="middle" x="284" y="-99.8" font-family="Times,serif" font-size="14.00">ConfirmModalModule</text>
</g>
<!-- ConfirmModalModule&#45;&gt;RowCardModule -->
<g id="edge2" class="edge">
<title>ConfirmModalModule&#45;&gt;RowCardModule</title>
<path fill="none" stroke="black" d="M284,-122.11C284,-122.11 284,-140.99 284,-140.99"/>
<polygon fill="black" stroke="black" points="280.5,-140.99 284,-150.99 287.5,-140.99 280.5,-140.99"/>
</g>
<!-- InputValuePropertyModule -->
<g id="node4" class="node">
<title>InputValuePropertyModule</title>
<polygon fill="#8dd3c7" stroke="black" points="194.24,-122 191.24,-126 170.24,-126 167.24,-122 23.76,-122 23.76,-86 194.24,-86 194.24,-122"/>
<text text-anchor="middle" x="109" y="-99.8" font-family="Times,serif" font-size="14.00">InputValuePropertyModule</text>
</g>
<!-- InputValuePropertyModule&#45;&gt;RowCardModule -->
<g id="edge3" class="edge">
<title>InputValuePropertyModule&#45;&gt;RowCardModule</title>
<path fill="none" stroke="black" d="M109,-122.11C109,-141.34 109,-169 109,-169 109,-169 217.18,-169 217.18,-169"/>
<polygon fill="black" stroke="black" points="217.18,-172.5 227.18,-169 217.18,-165.5 217.18,-172.5"/>
</g>
</g>
</svg>
