<?xml version="1.0" encoding="UTF-8" standalone="no"?>
<!DOCTYPE svg PUBLIC "-//W3C//DTD SVG 1.1//EN"
 "http://www.w3.org/Graphics/SVG/1.1/DTD/svg11.dtd">
<!-- Generated by graphviz version 2.47.0 (20210316.0004)
 -->
<!-- Title: dependencies Pages: 1 -->
<svg width="504pt" height="284pt"
 viewBox="0.00 0.00 504.00 284.00" xmlns="http://www.w3.org/2000/svg" xmlns:xlink="http://www.w3.org/1999/xlink">
<g id="graph0" class="graph" transform="scale(1 1) rotate(0) translate(4 280)">
<title>dependencies</title>
<polygon fill="white" stroke="transparent" points="-4,4 -4,-280 500,-280 500,4 -4,4"/>
<text text-anchor="start" x="227.01" y="-42.4" font-family="Times-12" font-weight="bold" font-size="14.00">Legend</text>
<polygon fill="#ffffb3" stroke="transparent" points="14,-10 14,-30 34,-30 34,-10 14,-10"/>
<text text-anchor="start" x="37.63" y="-15.4" font-family="Times-12" font-size="14.00"> &#160;Declarations</text>
<polygon fill="#8dd3c7" stroke="transparent" points="127,-10 127,-30 147,-30 147,-10 127,-10"/>
<text text-anchor="start" x="150.73" y="-15.4" font-family="Times-12" font-size="14.00"> &#160;Module</text>
<polygon fill="#80b1d3" stroke="transparent" points="213,-10 213,-30 233,-30 233,-10 213,-10"/>
<text text-anchor="start" x="236.78" y="-15.4" font-family="Times-12" font-size="14.00"> &#160;Bootstrap</text>
<polygon fill="#fdb462" stroke="transparent" points="310,-10 310,-30 330,-30 330,-10 310,-10"/>
<text text-anchor="start" x="333.67" y="-15.4" font-family="Times-12" font-size="14.00"> &#160;Providers</text>
<polygon fill="#fb8072" stroke="transparent" points="406,-10 406,-30 426,-30 426,-10 406,-10"/>
<text text-anchor="start" x="429.73" y="-15.4" font-family="Times-12" font-size="14.00"> &#160;Exports</text>
<g id="clust1" class="cluster">
<title>cluster_SidebarModule</title>
<polygon fill="none" stroke="black" stroke-dasharray="1,5" points="27.5,-70 27.5,-268 468.5,-268 468.5,-70 27.5,-70"/>
</g>
<g id="clust5" class="cluster">
<title>cluster_SidebarModule_exports</title>
<polygon fill="none" stroke="black" points="177.5,-208 177.5,-260 321.5,-260 321.5,-208 177.5,-208"/>
</g>
<g id="clust4" class="cluster">
<title>cluster_SidebarModule_imports</title>
<polygon fill="none" stroke="black" points="183.5,-78 183.5,-130 460.5,-130 460.5,-78 183.5,-78"/>
</g>
<g id="clust2" class="cluster">
<title>cluster_SidebarModule_declarations</title>
<polygon fill="none" stroke="black" points="35.5,-78 35.5,-130 175.5,-130 175.5,-78 35.5,-78"/>
</g>
<!-- SidebarComponent -->
<g id="node1" class="node">
<title>SidebarComponent</title>
<polygon fill="#ffffb3" stroke="black" points="167.6,-122 43.4,-122 43.4,-86 167.6,-86 167.6,-122"/>
<text text-anchor="middle" x="105.5" y="-99.8" font-family="Times,serif" font-size="14.00">SidebarComponent</text>
</g>
<!-- SidebarModule -->
<g id="node2" class="node">
<title>SidebarModule</title>
<polygon fill="#8dd3c7" stroke="black" points="300.81,-187 297.81,-191 276.81,-191 273.81,-187 198.19,-187 198.19,-151 300.81,-151 300.81,-187"/>
<text text-anchor="middle" x="249.5" y="-164.8" font-family="Times,serif" font-size="14.00">SidebarModule</text>
</g>
<!-- SidebarComponent&#45;&gt;SidebarModule -->
<g id="edge1" class="edge">
<title>SidebarComponent&#45;&gt;SidebarModule</title>
<path fill="none" stroke="black" d="M105.5,-122.11C105.5,-141.34 105.5,-169 105.5,-169 105.5,-169 188.33,-169 188.33,-169"/>
<polygon fill="black" stroke="black" points="188.33,-172.5 198.33,-169 188.33,-165.5 188.33,-172.5"/>
</g>
<!-- SidebarComponent  -->
<g id="node5" class="node">
<title>SidebarComponent </title>
<polygon fill="#fb8072" stroke="black" points="313.1,-252 185.9,-252 185.9,-216 313.1,-216 313.1,-252"/>
<text text-anchor="middle" x="249.5" y="-229.8" font-family="Times,serif" font-size="14.00">SidebarComponent </text>
</g>
<!-- SidebarModule&#45;&gt;SidebarComponent  -->
<g id="edge4" class="edge">
<title>SidebarModule&#45;&gt;SidebarComponent </title>
<path fill="none" stroke="black" stroke-dasharray="5,2" d="M249.5,-187.11C249.5,-187.11 249.5,-205.99 249.5,-205.99"/>
<polygon fill="black" stroke="black" points="246,-205.99 249.5,-215.99 253,-205.99 246,-205.99"/>
</g>
<!-- ModalWarnModule -->
<g id="node3" class="node">
<title>ModalWarnModule</title>
<polygon fill="#8dd3c7" stroke="black" points="452.19,-122 449.19,-126 428.19,-126 425.19,-122 324.81,-122 324.81,-86 452.19,-86 452.19,-122"/>
<text text-anchor="middle" x="388.5" y="-99.8" font-family="Times,serif" font-size="14.00">ModalWarnModule</text>
</g>
<!-- ModalWarnModule&#45;&gt;SidebarModule -->
<g id="edge2" class="edge">
<title>ModalWarnModule&#45;&gt;SidebarModule</title>
<path fill="none" stroke="black" d="M388.5,-122.11C388.5,-141.34 388.5,-169 388.5,-169 388.5,-169 310.86,-169 310.86,-169"/>
<polygon fill="black" stroke="black" points="310.86,-165.5 300.86,-169 310.86,-172.5 310.86,-165.5"/>
</g>
<!-- SearchAllModule -->
<g id="node4" class="node">
<title>SearchAllModule</title>
<polygon fill="#8dd3c7" stroke="black" points="307.03,-122 304.03,-126 283.03,-126 280.03,-122 191.97,-122 191.97,-86 307.03,-86 307.03,-122"/>
<text text-anchor="middle" x="249.5" y="-99.8" font-family="Times,serif" font-size="14.00">SearchAllModule</text>
</g>
<!-- SearchAllModule&#45;&gt;SidebarModule -->
<g id="edge3" class="edge">
<title>SearchAllModule&#45;&gt;SidebarModule</title>
<path fill="none" stroke="black" d="M249.5,-122.11C249.5,-122.11 249.5,-140.99 249.5,-140.99"/>
<polygon fill="black" stroke="black" points="246,-140.99 249.5,-150.99 253,-140.99 246,-140.99"/>
</g>
</g>
</svg>
